<?xml version="1.0" encoding="utf-8" standalone="no"?>
<!DOCTYPE svg PUBLIC "-//W3C//DTD SVG 1.1//EN"
  "http://www.w3.org/Graphics/SVG/1.1/DTD/svg11.dtd">
<svg xmlns:xlink="http://www.w3.org/1999/xlink" width="360pt" height="216pt" viewBox="0 0 360 216" xmlns="http://www.w3.org/2000/svg" version="1.1">
 <metadata>
  <rdf:RDF xmlns:dc="http://purl.org/dc/elements/1.1/" xmlns:cc="http://creativecommons.org/ns#" xmlns:rdf="http://www.w3.org/1999/02/22-rdf-syntax-ns#">
   <cc:Work>
    <dc:type rdf:resource="http://purl.org/dc/dcmitype/StillImage"/>
    <dc:date>2022-12-12T19:58:11.572344</dc:date>
    <dc:format>image/svg+xml</dc:format>
    <dc:creator>
     <cc:Agent>
      <dc:title>Matplotlib v3.6.2, https://matplotlib.org/</dc:title>
     </cc:Agent>
    </dc:creator>
   </cc:Work>
  </rdf:RDF>
 </metadata>
 <defs>
  <style type="text/css">*{stroke-linejoin: round; stroke-linecap: butt}</style>
 </defs>
 <g id="figure_1">
  <g id="patch_1">
   <path d="M 0 216 
L 360 216 
L 360 0 
L 0 0 
z
" style="fill: #ffffff"/>
  </g>
  <g id="axes_1">
   <g id="patch_2">
    <path d="M 45 192.24 
L 324 192.24 
L 324 25.92 
L 45 25.92 
z
" style="fill: #ffffff"/>
   </g>
   <g id="matplotlib.axis_1">
    <g id="xtick_1">
     <g id="text_1">
      <!-- UT -->
      <g style="fill: #262626" transform="translate(55.106172 209.613594) scale(0.11 -0.11)">
       <defs>
        <path id="ArialMT-55" d="M 3500 4581 
L 4106 4581 
L 4106 1934 
Q 4106 1244 3950 837 
Q 3794 431 3386 176 
Q 2978 -78 2316 -78 
Q 1672 -78 1262 144 
Q 853 366 678 786 
Q 503 1206 503 1934 
L 503 4581 
L 1109 4581 
L 1109 1938 
Q 1109 1341 1220 1058 
Q 1331 775 1601 622 
Q 1872 469 2263 469 
Q 2931 469 3215 772 
Q 3500 1075 3500 1938 
L 3500 4581 
z
" transform="scale(0.015625)"/>
        <path id="ArialMT-54" d="M 1659 0 
L 1659 4041 
L 150 4041 
L 150 4581 
L 3781 4581 
L 3781 4041 
L 2266 4041 
L 2266 0 
L 1659 0 
z
" transform="scale(0.015625)"/>
       </defs>
       <use xlink:href="#ArialMT-55"/>
       <use xlink:href="#ArialMT-54" x="72.216797"/>
      </g>
     </g>
    </g>
    <g id="xtick_2">
     <g id="text_2">
      <!-- E -->
      <g style="fill: #262626" transform="translate(93.643828 209.613594) scale(0.11 -0.11)">
       <defs>
        <path id="ArialMT-45" d="M 506 0 
L 506 4581 
L 3819 4581 
L 3819 4041 
L 1113 4041 
L 1113 2638 
L 3647 2638 
L 3647 2100 
L 1113 2100 
L 1113 541 
L 3925 541 
L 3925 0 
L 506 0 
z
" transform="scale(0.015625)"/>
       </defs>
       <use xlink:href="#ArialMT-45"/>
      </g>
     </g>
    </g>
    <g id="xtick_3">
     <g id="text_3">
      <!-- EA -->
      <g style="fill: #262626" transform="translate(124.850156 209.613594) scale(0.11 -0.11)">
       <defs>
        <path id="ArialMT-41" d="M -9 0 
L 1750 4581 
L 2403 4581 
L 4278 0 
L 3588 0 
L 3053 1388 
L 1138 1388 
L 634 0 
L -9 0 
z
M 1313 1881 
L 2866 1881 
L 2388 3150 
Q 2169 3728 2063 4100 
Q 1975 3659 1816 3225 
L 1313 1881 
z
" transform="scale(0.015625)"/>
       </defs>
       <use xlink:href="#ArialMT-45"/>
       <use xlink:href="#ArialMT-41" x="66.699219"/>
      </g>
     </g>
    </g>
    <g id="xtick_4">
     <g id="text_4">
      <!-- R -->
      <g style="fill: #262626" transform="translate(163.090469 209.613594) scale(0.11 -0.11)">
       <defs>
        <path id="ArialMT-52" d="M 503 0 
L 503 4581 
L 2534 4581 
Q 3147 4581 3465 4457 
Q 3784 4334 3975 4021 
Q 4166 3709 4166 3331 
Q 4166 2844 3850 2509 
Q 3534 2175 2875 2084 
Q 3116 1969 3241 1856 
Q 3506 1613 3744 1247 
L 4541 0 
L 3778 0 
L 3172 953 
Q 2906 1366 2734 1584 
Q 2563 1803 2427 1890 
Q 2291 1978 2150 2013 
Q 2047 2034 1813 2034 
L 1109 2034 
L 1109 0 
L 503 0 
z
M 1109 2559 
L 2413 2559 
Q 2828 2559 3062 2645 
Q 3297 2731 3419 2920 
Q 3541 3109 3541 3331 
Q 3541 3656 3305 3865 
Q 3069 4075 2559 4075 
L 1109 4075 
L 1109 2559 
z
" transform="scale(0.015625)"/>
       </defs>
       <use xlink:href="#ArialMT-52"/>
      </g>
     </g>
    </g>
    <g id="xtick_5">
     <g id="text_5">
      <!-- ER -->
      <g style="fill: #262626" transform="translate(194.296797 209.613594) scale(0.11 -0.11)">
       <use xlink:href="#ArialMT-45"/>
       <use xlink:href="#ArialMT-52" x="66.699219"/>
      </g>
     </g>
    </g>
    <g id="xtick_6">
     <g id="text_6">
      <!-- C -->
      <g style="fill: #262626" transform="translate(232.840469 209.613594) scale(0.11 -0.11)">
       <defs>
        <path id="ArialMT-43" d="M 3763 1606 
L 4369 1453 
Q 4178 706 3683 314 
Q 3188 -78 2472 -78 
Q 1731 -78 1267 223 
Q 803 525 561 1097 
Q 319 1669 319 2325 
Q 319 3041 592 3573 
Q 866 4106 1370 4382 
Q 1875 4659 2481 4659 
Q 3169 4659 3637 4309 
Q 4106 3959 4291 3325 
L 3694 3184 
Q 3534 3684 3231 3912 
Q 2928 4141 2469 4141 
Q 1941 4141 1586 3887 
Q 1231 3634 1087 3207 
Q 944 2781 944 2328 
Q 944 1744 1114 1308 
Q 1284 872 1643 656 
Q 2003 441 2422 441 
Q 2931 441 3284 734 
Q 3638 1028 3763 1606 
z
" transform="scale(0.015625)"/>
       </defs>
       <use xlink:href="#ArialMT-43"/>
      </g>
     </g>
    </g>
    <g id="xtick_7">
     <g id="text_7">
      <!-- EC -->
      <g style="fill: #262626" transform="translate(264.046797 209.613594) scale(0.11 -0.11)">
       <use xlink:href="#ArialMT-45"/>
       <use xlink:href="#ArialMT-43" x="66.699219"/>
      </g>
     </g>
    </g>
    <g id="xtick_8">
     <g id="text_8">
      <!-- ECA -->
      <g style="fill: #262626" transform="translate(295.253125 209.613594) scale(0.11 -0.11)">
       <use xlink:href="#ArialMT-45"/>
       <use xlink:href="#ArialMT-43" x="66.699219"/>
       <use xlink:href="#ArialMT-41" x="138.916016"/>
      </g>
     </g>
    </g>
    <g id="text_9">
     <!-- Treatment -->
     <g style="fill: #262626" transform="translate(157.384688 224.389219) scale(0.12 -0.12)">
      <defs>
       <path id="ArialMT-72" d="M 416 0 
L 416 3319 
L 922 3319 
L 922 2816 
Q 1116 3169 1280 3281 
Q 1444 3394 1641 3394 
Q 1925 3394 2219 3213 
L 2025 2691 
Q 1819 2813 1613 2813 
Q 1428 2813 1281 2702 
Q 1134 2591 1072 2394 
Q 978 2094 978 1738 
L 978 0 
L 416 0 
z
" transform="scale(0.015625)"/>
       <path id="ArialMT-65" d="M 2694 1069 
L 3275 997 
Q 3138 488 2766 206 
Q 2394 -75 1816 -75 
Q 1088 -75 661 373 
Q 234 822 234 1631 
Q 234 2469 665 2931 
Q 1097 3394 1784 3394 
Q 2450 3394 2872 2941 
Q 3294 2488 3294 1666 
Q 3294 1616 3291 1516 
L 816 1516 
Q 847 969 1125 678 
Q 1403 388 1819 388 
Q 2128 388 2347 550 
Q 2566 713 2694 1069 
z
M 847 1978 
L 2700 1978 
Q 2663 2397 2488 2606 
Q 2219 2931 1791 2931 
Q 1403 2931 1139 2672 
Q 875 2413 847 1978 
z
" transform="scale(0.015625)"/>
       <path id="ArialMT-61" d="M 2588 409 
Q 2275 144 1986 34 
Q 1697 -75 1366 -75 
Q 819 -75 525 192 
Q 231 459 231 875 
Q 231 1119 342 1320 
Q 453 1522 633 1644 
Q 813 1766 1038 1828 
Q 1203 1872 1538 1913 
Q 2219 1994 2541 2106 
Q 2544 2222 2544 2253 
Q 2544 2597 2384 2738 
Q 2169 2928 1744 2928 
Q 1347 2928 1158 2789 
Q 969 2650 878 2297 
L 328 2372 
Q 403 2725 575 2942 
Q 747 3159 1072 3276 
Q 1397 3394 1825 3394 
Q 2250 3394 2515 3294 
Q 2781 3194 2906 3042 
Q 3031 2891 3081 2659 
Q 3109 2516 3109 2141 
L 3109 1391 
Q 3109 606 3145 398 
Q 3181 191 3288 0 
L 2700 0 
Q 2613 175 2588 409 
z
M 2541 1666 
Q 2234 1541 1622 1453 
Q 1275 1403 1131 1340 
Q 988 1278 909 1158 
Q 831 1038 831 891 
Q 831 666 1001 516 
Q 1172 366 1500 366 
Q 1825 366 2078 508 
Q 2331 650 2450 897 
Q 2541 1088 2541 1459 
L 2541 1666 
z
" transform="scale(0.015625)"/>
       <path id="ArialMT-74" d="M 1650 503 
L 1731 6 
Q 1494 -44 1306 -44 
Q 1000 -44 831 53 
Q 663 150 594 308 
Q 525 466 525 972 
L 525 2881 
L 113 2881 
L 113 3319 
L 525 3319 
L 525 4141 
L 1084 4478 
L 1084 3319 
L 1650 3319 
L 1650 2881 
L 1084 2881 
L 1084 941 
Q 1084 700 1114 631 
Q 1144 563 1211 522 
Q 1278 481 1403 481 
Q 1497 481 1650 503 
z
" transform="scale(0.015625)"/>
       <path id="ArialMT-6d" d="M 422 0 
L 422 3319 
L 925 3319 
L 925 2853 
Q 1081 3097 1340 3245 
Q 1600 3394 1931 3394 
Q 2300 3394 2536 3241 
Q 2772 3088 2869 2813 
Q 3263 3394 3894 3394 
Q 4388 3394 4653 3120 
Q 4919 2847 4919 2278 
L 4919 0 
L 4359 0 
L 4359 2091 
Q 4359 2428 4304 2576 
Q 4250 2725 4106 2815 
Q 3963 2906 3769 2906 
Q 3419 2906 3187 2673 
Q 2956 2441 2956 1928 
L 2956 0 
L 2394 0 
L 2394 2156 
Q 2394 2531 2256 2718 
Q 2119 2906 1806 2906 
Q 1569 2906 1367 2781 
Q 1166 2656 1075 2415 
Q 984 2175 984 1722 
L 984 0 
L 422 0 
z
" transform="scale(0.015625)"/>
       <path id="ArialMT-6e" d="M 422 0 
L 422 3319 
L 928 3319 
L 928 2847 
Q 1294 3394 1984 3394 
Q 2284 3394 2536 3286 
Q 2788 3178 2913 3003 
Q 3038 2828 3088 2588 
Q 3119 2431 3119 2041 
L 3119 0 
L 2556 0 
L 2556 2019 
Q 2556 2363 2490 2533 
Q 2425 2703 2258 2804 
Q 2091 2906 1866 2906 
Q 1506 2906 1245 2678 
Q 984 2450 984 1813 
L 984 0 
L 422 0 
z
" transform="scale(0.015625)"/>
      </defs>
      <use xlink:href="#ArialMT-54"/>
      <use xlink:href="#ArialMT-72" x="57.333984"/>
      <use xlink:href="#ArialMT-65" x="90.634766"/>
      <use xlink:href="#ArialMT-61" x="146.25"/>
      <use xlink:href="#ArialMT-74" x="201.865234"/>
      <use xlink:href="#ArialMT-6d" x="229.648438"/>
      <use xlink:href="#ArialMT-65" x="312.949219"/>
      <use xlink:href="#ArialMT-6e" x="368.564453"/>
      <use xlink:href="#ArialMT-74" x="424.179688"/>
     </g>
    </g>
   </g>
   <g id="matplotlib.axis_2">
    <g id="ytick_1">
     <g id="line2d_1">
      <path d="M 45 192.24 
L 324 192.24 
" clip-path="url(#p96674a0f0c)" style="fill: none; stroke-dasharray: 1,1.65; stroke-dashoffset: 0; stroke: #cccccc"/>
     </g>
     <g id="text_10">
      <!-- 0 -->
      <g style="fill: #262626" transform="translate(29.382969 196.176797) scale(0.11 -0.11)">
       <defs>
        <path id="ArialMT-30" d="M 266 2259 
Q 266 3072 433 3567 
Q 600 4063 929 4331 
Q 1259 4600 1759 4600 
Q 2128 4600 2406 4451 
Q 2684 4303 2865 4023 
Q 3047 3744 3150 3342 
Q 3253 2941 3253 2259 
Q 3253 1453 3087 958 
Q 2922 463 2592 192 
Q 2263 -78 1759 -78 
Q 1097 -78 719 397 
Q 266 969 266 2259 
z
M 844 2259 
Q 844 1131 1108 757 
Q 1372 384 1759 384 
Q 2147 384 2411 759 
Q 2675 1134 2675 2259 
Q 2675 3391 2411 3762 
Q 2147 4134 1753 4134 
Q 1366 4134 1134 3806 
Q 844 3388 844 2259 
z
" transform="scale(0.015625)"/>
       </defs>
       <use xlink:href="#ArialMT-30"/>
      </g>
     </g>
    </g>
    <g id="ytick_2">
     <g id="line2d_2">
      <path d="M 45 158.976 
L 324 158.976 
" clip-path="url(#p96674a0f0c)" style="fill: none; stroke-dasharray: 1,1.65; stroke-dashoffset: 0; stroke: #cccccc"/>
     </g>
     <g id="text_11">
      <!-- 1 -->
      <g style="fill: #262626" transform="translate(29.382969 162.912797) scale(0.11 -0.11)">
       <defs>
        <path id="ArialMT-31" d="M 2384 0 
L 1822 0 
L 1822 3584 
Q 1619 3391 1289 3197 
Q 959 3003 697 2906 
L 697 3450 
Q 1169 3672 1522 3987 
Q 1875 4303 2022 4600 
L 2384 4600 
L 2384 0 
z
" transform="scale(0.015625)"/>
       </defs>
       <use xlink:href="#ArialMT-31"/>
      </g>
     </g>
    </g>
    <g id="ytick_3">
     <g id="line2d_3">
      <path d="M 45 125.712 
L 324 125.712 
" clip-path="url(#p96674a0f0c)" style="fill: none; stroke-dasharray: 1,1.65; stroke-dashoffset: 0; stroke: #cccccc"/>
     </g>
     <g id="text_12">
      <!-- 2 -->
      <g style="fill: #262626" transform="translate(29.382969 129.648797) scale(0.11 -0.11)">
       <defs>
        <path id="ArialMT-32" d="M 3222 541 
L 3222 0 
L 194 0 
Q 188 203 259 391 
Q 375 700 629 1000 
Q 884 1300 1366 1694 
Q 2113 2306 2375 2664 
Q 2638 3022 2638 3341 
Q 2638 3675 2398 3904 
Q 2159 4134 1775 4134 
Q 1369 4134 1125 3890 
Q 881 3647 878 3216 
L 300 3275 
Q 359 3922 746 4261 
Q 1134 4600 1788 4600 
Q 2447 4600 2831 4234 
Q 3216 3869 3216 3328 
Q 3216 3053 3103 2787 
Q 2991 2522 2730 2228 
Q 2469 1934 1863 1422 
Q 1356 997 1212 845 
Q 1069 694 975 541 
L 3222 541 
z
" transform="scale(0.015625)"/>
       </defs>
       <use xlink:href="#ArialMT-32"/>
      </g>
     </g>
    </g>
    <g id="ytick_4">
     <g id="line2d_4">
      <path d="M 45 92.448 
L 324 92.448 
" clip-path="url(#p96674a0f0c)" style="fill: none; stroke-dasharray: 1,1.65; stroke-dashoffset: 0; stroke: #cccccc"/>
     </g>
     <g id="text_13">
      <!-- 3 -->
      <g style="fill: #262626" transform="translate(29.382969 96.384797) scale(0.11 -0.11)">
       <defs>
        <path id="ArialMT-33" d="M 269 1209 
L 831 1284 
Q 928 806 1161 595 
Q 1394 384 1728 384 
Q 2125 384 2398 659 
Q 2672 934 2672 1341 
Q 2672 1728 2419 1979 
Q 2166 2231 1775 2231 
Q 1616 2231 1378 2169 
L 1441 2663 
Q 1497 2656 1531 2656 
Q 1891 2656 2178 2843 
Q 2466 3031 2466 3422 
Q 2466 3731 2256 3934 
Q 2047 4138 1716 4138 
Q 1388 4138 1169 3931 
Q 950 3725 888 3313 
L 325 3413 
Q 428 3978 793 4289 
Q 1159 4600 1703 4600 
Q 2078 4600 2393 4439 
Q 2709 4278 2876 4000 
Q 3044 3722 3044 3409 
Q 3044 3113 2884 2869 
Q 2725 2625 2413 2481 
Q 2819 2388 3044 2092 
Q 3269 1797 3269 1353 
Q 3269 753 2831 336 
Q 2394 -81 1725 -81 
Q 1122 -81 723 278 
Q 325 638 269 1209 
z
" transform="scale(0.015625)"/>
       </defs>
       <use xlink:href="#ArialMT-33"/>
      </g>
     </g>
    </g>
    <g id="ytick_5">
     <g id="line2d_5">
      <path d="M 45 59.184 
L 324 59.184 
" clip-path="url(#p96674a0f0c)" style="fill: none; stroke-dasharray: 1,1.65; stroke-dashoffset: 0; stroke: #cccccc"/>
     </g>
     <g id="text_14">
      <!-- 4 -->
      <g style="fill: #262626" transform="translate(29.382969 63.120797) scale(0.11 -0.11)">
       <defs>
        <path id="ArialMT-34" d="M 2069 0 
L 2069 1097 
L 81 1097 
L 81 1613 
L 2172 4581 
L 2631 4581 
L 2631 1613 
L 3250 1613 
L 3250 1097 
L 2631 1097 
L 2631 0 
L 2069 0 
z
M 2069 1613 
L 2069 3678 
L 634 1613 
L 2069 1613 
z
" transform="scale(0.015625)"/>
       </defs>
       <use xlink:href="#ArialMT-34"/>
      </g>
     </g>
    </g>
    <g id="ytick_6">
     <g id="line2d_6">
      <path d="M 45 25.92 
L 324 25.92 
" clip-path="url(#p96674a0f0c)" style="fill: none; stroke-dasharray: 1,1.65; stroke-dashoffset: 0; stroke: #cccccc"/>
     </g>
     <g id="text_15">
      <!-- 5 -->
      <g style="fill: #262626" transform="translate(29.382969 29.856797) scale(0.11 -0.11)">
       <defs>
        <path id="ArialMT-35" d="M 266 1200 
L 856 1250 
Q 922 819 1161 601 
Q 1400 384 1738 384 
Q 2144 384 2425 690 
Q 2706 997 2706 1503 
Q 2706 1984 2436 2262 
Q 2166 2541 1728 2541 
Q 1456 2541 1237 2417 
Q 1019 2294 894 2097 
L 366 2166 
L 809 4519 
L 3088 4519 
L 3088 3981 
L 1259 3981 
L 1013 2750 
Q 1425 3038 1878 3038 
Q 2478 3038 2890 2622 
Q 3303 2206 3303 1553 
Q 3303 931 2941 478 
Q 2500 -78 1738 -78 
Q 1113 -78 717 272 
Q 322 622 266 1200 
z
" transform="scale(0.015625)"/>
       </defs>
       <use xlink:href="#ArialMT-35"/>
      </g>
     </g>
    </g>
    <g id="text_16">
     <!-- WT -->
     <g style="fill: #262626" transform="translate(22.997969 118.408125) rotate(-90) scale(0.12 -0.12)">
      <defs>
       <path id="ArialMT-57" d="M 1294 0 
L 78 4581 
L 700 4581 
L 1397 1578 
Q 1509 1106 1591 641 
Q 1766 1375 1797 1488 
L 2669 4581 
L 3400 4581 
L 4056 2263 
Q 4303 1400 4413 641 
Q 4500 1075 4641 1638 
L 5359 4581 
L 5969 4581 
L 4713 0 
L 4128 0 
L 3163 3491 
Q 3041 3928 3019 4028 
Q 2947 3713 2884 3491 
L 1913 0 
L 1294 0 
z
" transform="scale(0.015625)"/>
      </defs>
      <use xlink:href="#ArialMT-57"/>
      <use xlink:href="#ArialMT-54" x="94.384766"/>
     </g>
    </g>
   </g>
   <g id="PathCollection_1"/>
   <g id="PathCollection_2"/>
   <g id="PathCollection_3"/>
   <g id="PathCollection_4"/>
   <g id="PathCollection_5"/>
   <g id="PathCollection_6"/>
   <g id="PathCollection_7"/>
   <g id="PathCollection_8"/>
   <g id="PolyCollection_1">
    <defs>
     <path id="m2128710d62" d="M 62.605724 -28.301488 
L 62.269276 -28.301488 
L 62.227228 -29.304461 
L 62.177223 -30.307435 
L 62.118365 -31.310408 
L 62.049762 -32.313381 
L 61.970538 -33.316354 
L 61.879834 -34.319327 
L 61.776809 -35.322301 
L 61.66063 -36.325274 
L 61.530455 -37.328247 
L 61.385419 -38.33122 
L 61.224613 -39.334193 
L 61.047067 -40.337167 
L 60.851752 -41.34014 
L 60.637577 -42.343113 
L 60.403429 -43.346086 
L 60.148214 -44.349059 
L 59.870937 -45.352033 
L 59.570797 -46.355006 
L 59.247305 -47.357979 
L 58.900417 -48.360952 
L 58.530665 -49.363925 
L 58.139287 -50.366899 
L 57.728336 -51.369872 
L 57.300759 -52.372845 
L 56.860432 -53.375818 
L 56.412153 -54.378791 
L 55.961574 -55.381765 
L 55.515077 -56.384738 
L 55.079603 -57.387711 
L 54.662416 -58.390684 
L 54.270847 -59.393657 
L 53.911986 -60.396631 
L 53.592376 -61.399604 
L 53.317689 -62.402577 
L 53.092429 -63.40555 
L 52.919657 -64.408523 
L 52.800763 -65.411497 
L 52.735305 -66.41447 
L 52.720921 -67.417443 
L 52.753329 -68.420416 
L 52.826434 -69.423389 
L 52.932524 -70.426363 
L 53.062572 -71.429336 
L 53.206633 -72.432309 
L 53.354309 -73.435282 
L 53.495272 -74.438255 
L 53.619808 -75.441229 
L 53.719355 -76.444202 
L 53.786996 -77.447175 
L 53.81788 -78.450148 
L 53.809526 -79.453121 
L 53.762004 -80.456095 
L 53.677966 -81.459068 
L 53.562523 -82.462041 
L 53.422977 -83.465014 
L 53.268425 -84.467987 
L 53.10925 -85.470961 
L 52.956552 -86.473934 
L 52.821537 -87.476907 
L 52.714915 -88.47988 
L 52.646341 -89.482853 
L 52.623941 -90.485827 
L 52.653935 -91.4888 
L 52.740394 -92.491773 
L 52.885122 -93.494746 
L 53.087684 -94.497719 
L 53.34554 -95.500693 
L 53.654304 -96.503666 
L 54.008072 -97.506639 
L 54.399808 -98.509612 
L 54.821752 -99.512585 
L 55.265831 -100.515559 
L 55.724033 -101.518532 
L 56.188734 -102.521505 
L 56.652964 -103.524478 
L 57.110594 -104.527451 
L 57.556451 -105.530425 
L 57.986362 -106.533398 
L 58.397137 -107.536371 
L 58.7865 -108.539344 
L 59.152982 -109.542317 
L 59.495797 -110.545291 
L 59.81471 -111.548264 
L 60.109905 -112.551237 
L 60.38187 -113.55421 
L 60.631299 -114.557183 
L 60.859017 -115.560157 
L 61.06593 -116.56313 
L 61.252985 -117.566103 
L 61.421159 -118.569076 
L 61.571448 -119.572049 
L 61.704873 -120.575023 
L 61.82248 -121.577996 
L 61.925345 -122.580969 
L 62.014572 -123.583942 
L 62.091289 -124.586915 
L 62.156639 -125.589889 
L 62.211766 -126.592862 
L 62.257803 -127.595835 
L 62.617197 -127.595835 
L 62.617197 -127.595835 
L 62.663234 -126.592862 
L 62.718361 -125.589889 
L 62.783711 -124.586915 
L 62.860428 -123.583942 
L 62.949655 -122.580969 
L 63.05252 -121.577996 
L 63.170127 -120.575023 
L 63.303552 -119.572049 
L 63.453841 -118.569076 
L 63.622015 -117.566103 
L 63.80907 -116.56313 
L 64.015983 -115.560157 
L 64.243701 -114.557183 
L 64.49313 -113.55421 
L 64.765095 -112.551237 
L 65.06029 -111.548264 
L 65.379203 -110.545291 
L 65.722018 -109.542317 
L 66.0885 -108.539344 
L 66.477863 -107.536371 
L 66.888638 -106.533398 
L 67.318549 -105.530425 
L 67.764406 -104.527451 
L 68.222036 -103.524478 
L 68.686266 -102.521505 
L 69.150967 -101.518532 
L 69.609169 -100.515559 
L 70.053248 -99.512585 
L 70.475192 -98.509612 
L 70.866928 -97.506639 
L 71.220696 -96.503666 
L 71.52946 -95.500693 
L 71.787316 -94.497719 
L 71.989878 -93.494746 
L 72.134606 -92.491773 
L 72.221065 -91.4888 
L 72.251059 -90.485827 
L 72.228659 -89.482853 
L 72.160085 -88.47988 
L 72.053463 -87.476907 
L 71.918448 -86.473934 
L 71.76575 -85.470961 
L 71.606575 -84.467987 
L 71.452023 -83.465014 
L 71.312477 -82.462041 
L 71.197034 -81.459068 
L 71.112996 -80.456095 
L 71.065474 -79.453121 
L 71.05712 -78.450148 
L 71.088004 -77.447175 
L 71.155645 -76.444202 
L 71.255192 -75.441229 
L 71.379728 -74.438255 
L 71.520691 -73.435282 
L 71.668367 -72.432309 
L 71.812428 -71.429336 
L 71.942476 -70.426363 
L 72.048566 -69.423389 
L 72.121671 -68.420416 
L 72.154079 -67.417443 
L 72.139695 -66.41447 
L 72.074237 -65.411497 
L 71.955343 -64.408523 
L 71.782571 -63.40555 
L 71.557311 -62.402577 
L 71.282624 -61.399604 
L 70.963014 -60.396631 
L 70.604153 -59.393657 
L 70.212584 -58.390684 
L 69.795397 -57.387711 
L 69.359923 -56.384738 
L 68.913426 -55.381765 
L 68.462847 -54.378791 
L 68.014568 -53.375818 
L 67.574241 -52.372845 
L 67.146664 -51.369872 
L 66.735713 -50.366899 
L 66.344335 -49.363925 
L 65.974583 -48.360952 
L 65.627695 -47.357979 
L 65.304203 -46.355006 
L 65.004063 -45.352033 
L 64.726786 -44.349059 
L 64.471571 -43.346086 
L 64.237423 -42.343113 
L 64.023248 -41.34014 
L 63.827933 -40.337167 
L 63.650387 -39.334193 
L 63.489581 -38.33122 
L 63.344545 -37.328247 
L 63.21437 -36.325274 
L 63.098191 -35.322301 
L 62.995166 -34.319327 
L 62.904462 -33.316354 
L 62.825238 -32.313381 
L 62.756635 -31.310408 
L 62.697777 -30.307435 
L 62.647772 -29.304461 
L 62.605724 -28.301488 
z
" style="stroke: #999999; stroke-width: 1.5"/>
    </defs>
    <g clip-path="url(#p96674a0f0c)">
     <use xlink:href="#m2128710d62" x="0" y="216" style="fill: #ffffff; stroke: #999999; stroke-width: 1.5"/>
    </g>
   </g>
   <g id="PolyCollection_2">
    <defs>
     <path id="mcb3f0956d1" d="M 97.425223 -44.019649 
L 97.199777 -44.019649 
L 97.173009 -45.422622 
L 97.141822 -46.825595 
L 97.105981 -48.228569 
L 97.065351 -49.631542 
L 97.019908 -51.034515 
L 96.969752 -52.437488 
L 96.915101 -53.840461 
L 96.856275 -55.243434 
L 96.793664 -56.646407 
L 96.727682 -58.04938 
L 96.658708 -59.452353 
L 96.587008 -60.855326 
L 96.51266 -62.258299 
L 96.435471 -63.661272 
L 96.354901 -65.064245 
L 96.270004 -66.467218 
L 96.179391 -67.870191 
L 96.081222 -69.273164 
L 95.973238 -70.676137 
L 95.852834 -72.07911 
L 95.71717 -73.482083 
L 95.563323 -74.885056 
L 95.388477 -76.288029 
L 95.190119 -77.691002 
L 94.966265 -79.093975 
L 94.71566 -80.496948 
L 94.437967 -81.899921 
L 94.133913 -83.302894 
L 93.805382 -84.705867 
L 93.455447 -86.10884 
L 93.088328 -87.511813 
L 92.709285 -88.914786 
L 92.324437 -90.317759 
L 91.940533 -91.720732 
L 91.56467 -93.123705 
L 91.203992 -94.526678 
L 90.865375 -95.929651 
L 90.55513 -97.332624 
L 90.278731 -98.735597 
L 90.040596 -100.13857 
L 89.843914 -101.541543 
L 89.690551 -102.944516 
L 89.581015 -104.347489 
L 89.514488 -105.750462 
L 89.488924 -107.153435 
L 89.501192 -108.556408 
L 89.547268 -109.959381 
L 89.622445 -111.362354 
L 89.721567 -112.765327 
L 89.839261 -114.1683 
L 89.970155 -115.571273 
L 90.109089 -116.974246 
L 90.251288 -118.377219 
L 90.392508 -119.780192 
L 90.529146 -121.183165 
L 90.658307 -122.586138 
L 90.777851 -123.989111 
L 90.88639 -125.392084 
L 90.98327 -126.795057 
L 91.068526 -128.19803 
L 91.142823 -129.601003 
L 91.207381 -131.003976 
L 91.263907 -132.406949 
L 91.314506 -133.809922 
L 91.361612 -135.212895 
L 91.407906 -136.615868 
L 91.456237 -138.018841 
L 91.509547 -139.421814 
L 91.570783 -140.824787 
L 91.642812 -142.22776 
L 91.728325 -143.630733 
L 91.829739 -145.033706 
L 91.949094 -146.436679 
L 92.087955 -147.839652 
L 92.247325 -149.242625 
L 92.427565 -150.645598 
L 92.628346 -152.048571 
L 92.848629 -153.451544 
L 93.08667 -154.854517 
L 93.340073 -156.25749 
L 93.605871 -157.660463 
L 93.880637 -159.063436 
L 94.160628 -160.466409 
L 94.441936 -161.869382 
L 94.720655 -163.272355 
L 94.993034 -164.675328 
L 95.255623 -166.078301 
L 95.505396 -167.481274 
L 95.739842 -168.884247 
L 95.957025 -170.28722 
L 96.155612 -171.690193 
L 96.334865 -173.093166 
L 96.494605 -174.496139 
L 96.635161 -175.899112 
L 96.757283 -177.302085 
L 96.862069 -178.705058 
L 96.950865 -180.108031 
L 97.025185 -181.511004 
L 97.086628 -182.913977 
L 97.538372 -182.913977 
L 97.538372 -182.913977 
L 97.599815 -181.511004 
L 97.674135 -180.108031 
L 97.762931 -178.705058 
L 97.867717 -177.302085 
L 97.989839 -175.899112 
L 98.130395 -174.496139 
L 98.290135 -173.093166 
L 98.469388 -171.690193 
L 98.667975 -170.28722 
L 98.885158 -168.884247 
L 99.119604 -167.481274 
L 99.369377 -166.078301 
L 99.631966 -164.675328 
L 99.904345 -163.272355 
L 100.183064 -161.869382 
L 100.464372 -160.466409 
L 100.744363 -159.063436 
L 101.019129 -157.660463 
L 101.284927 -156.25749 
L 101.53833 -154.854517 
L 101.776371 -153.451544 
L 101.996654 -152.048571 
L 102.197435 -150.645598 
L 102.377675 -149.242625 
L 102.537045 -147.839652 
L 102.675906 -146.436679 
L 102.795261 -145.033706 
L 102.896675 -143.630733 
L 102.982188 -142.22776 
L 103.054217 -140.824787 
L 103.115453 -139.421814 
L 103.168763 -138.018841 
L 103.217094 -136.615868 
L 103.263388 -135.212895 
L 103.310494 -133.809922 
L 103.361093 -132.406949 
L 103.417619 -131.003976 
L 103.482177 -129.601003 
L 103.556474 -128.19803 
L 103.64173 -126.795057 
L 103.73861 -125.392084 
L 103.847149 -123.989111 
L 103.966693 -122.586138 
L 104.095854 -121.183165 
L 104.232492 -119.780192 
L 104.373712 -118.377219 
L 104.515911 -116.974246 
L 104.654845 -115.571273 
L 104.785739 -114.1683 
L 104.903433 -112.765327 
L 105.002555 -111.362354 
L 105.077732 -109.959381 
L 105.123808 -108.556408 
L 105.136076 -107.153435 
L 105.110512 -105.750462 
L 105.043985 -104.347489 
L 104.934449 -102.944516 
L 104.781086 -101.541543 
L 104.584404 -100.13857 
L 104.346269 -98.735597 
L 104.06987 -97.332624 
L 103.759625 -95.929651 
L 103.421008 -94.526678 
L 103.06033 -93.123705 
L 102.684467 -91.720732 
L 102.300563 -90.317759 
L 101.915715 -88.914786 
L 101.536672 -87.511813 
L 101.169553 -86.10884 
L 100.819618 -84.705867 
L 100.491087 -83.302894 
L 100.187033 -81.899921 
L 99.90934 -80.496948 
L 99.658735 -79.093975 
L 99.434881 -77.691002 
L 99.236523 -76.288029 
L 99.061677 -74.885056 
L 98.90783 -73.482083 
L 98.772166 -72.07911 
L 98.651762 -70.676137 
L 98.543778 -69.273164 
L 98.445609 -67.870191 
L 98.354996 -66.467218 
L 98.270099 -65.064245 
L 98.189529 -63.661272 
L 98.11234 -62.258299 
L 98.037992 -60.855326 
L 97.966292 -59.452353 
L 97.897318 -58.04938 
L 97.831336 -56.646407 
L 97.768725 -55.243434 
L 97.709899 -53.840461 
L 97.655248 -52.437488 
L 97.605092 -51.034515 
L 97.559649 -49.631542 
L 97.519019 -48.228569 
L 97.483178 -46.825595 
L 97.451991 -45.422622 
L 97.425223 -44.019649 
z
" style="stroke: #999999; stroke-width: 1.5"/>
    </defs>
    <g clip-path="url(#p96674a0f0c)">
     <use xlink:href="#mcb3f0956d1" x="0" y="216" style="fill: #ffffff; stroke: #999999; stroke-width: 1.5"/>
    </g>
   </g>
   <g id="PolyCollection_3">
    <defs>
     <path id="mb1d652aabd" d="M 132.398361 -54.048039 
L 131.976639 -54.048039 
L 131.91998 -55.298024 
L 131.851418 -56.548009 
L 131.769359 -57.797994 
L 131.672207 -59.047979 
L 131.558413 -60.297964 
L 131.426522 -61.547949 
L 131.275228 -62.797934 
L 131.10342 -64.047919 
L 130.910226 -65.297904 
L 130.695044 -66.547889 
L 130.457566 -67.797874 
L 130.197786 -69.047859 
L 129.915995 -70.297844 
L 129.612774 -71.547829 
L 129.288966 -72.797814 
L 128.945657 -74.047799 
L 128.584153 -75.297784 
L 128.205962 -76.547769 
L 127.812791 -77.797754 
L 127.406552 -79.047739 
L 126.989386 -80.297724 
L 126.563694 -81.547709 
L 126.132183 -82.797694 
L 125.697905 -84.047679 
L 125.2643 -85.297663 
L 124.83521 -86.547648 
L 124.414883 -87.797633 
L 124.007937 -89.047618 
L 123.619292 -90.297603 
L 123.254065 -91.547588 
L 122.91744 -92.797573 
L 122.6145 -94.047558 
L 122.350053 -95.297543 
L 122.128455 -96.547528 
L 121.953441 -97.797513 
L 121.82798 -99.047498 
L 121.754165 -100.297483 
L 121.733143 -101.547468 
L 121.765095 -102.797453 
L 121.849251 -104.047438 
L 121.98395 -105.297423 
L 122.166728 -106.547408 
L 122.394427 -107.797393 
L 122.663306 -109.047378 
L 122.969161 -110.297363 
L 123.307424 -111.547348 
L 123.673254 -112.797333 
L 124.061606 -114.047318 
L 124.467288 -115.297303 
L 124.885 -116.547288 
L 125.309377 -117.797273 
L 125.735027 -119.047258 
L 126.156581 -120.297243 
L 126.568753 -121.547228 
L 126.96643 -122.797213 
L 127.344763 -124.047198 
L 127.699291 -125.297183 
L 128.026065 -126.547168 
L 128.321778 -127.797153 
L 128.58389 -129.047137 
L 128.810739 -130.297122 
L 129.001624 -131.547107 
L 129.156857 -132.797092 
L 129.277772 -134.047077 
L 129.366693 -135.297062 
L 129.426856 -136.547047 
L 129.46229 -137.797032 
L 129.477659 -139.047017 
L 129.478071 -140.297002 
L 129.468868 -141.546987 
L 129.455412 -142.796972 
L 129.442862 -144.046957 
L 129.435974 -145.296942 
L 129.438917 -146.546927 
L 129.45513 -147.796912 
L 129.487215 -149.046897 
L 129.536872 -150.296882 
L 129.604883 -151.546867 
L 129.691143 -152.796852 
L 129.794722 -154.046837 
L 129.913978 -155.296822 
L 130.046677 -156.546807 
L 130.190147 -157.796792 
L 130.341434 -159.046777 
L 130.497454 -160.296762 
L 130.655146 -161.546747 
L 130.811597 -162.796732 
L 130.964154 -164.046717 
L 131.110508 -165.296702 
L 131.248752 -166.546687 
L 131.37741 -167.796672 
L 131.495445 -169.046657 
L 131.602242 -170.296642 
L 131.697573 -171.546626 
L 131.781551 -172.796611 
L 131.854577 -174.046596 
L 131.917273 -175.296581 
L 131.970428 -176.546566 
L 132.014936 -177.796551 
L 132.360064 -177.796551 
L 132.360064 -177.796551 
L 132.404572 -176.546566 
L 132.457727 -175.296581 
L 132.520423 -174.046596 
L 132.593449 -172.796611 
L 132.677427 -171.546626 
L 132.772758 -170.296642 
L 132.879555 -169.046657 
L 132.99759 -167.796672 
L 133.126248 -166.546687 
L 133.264492 -165.296702 
L 133.410846 -164.046717 
L 133.563403 -162.796732 
L 133.719854 -161.546747 
L 133.877546 -160.296762 
L 134.033566 -159.046777 
L 134.184853 -157.796792 
L 134.328323 -156.546807 
L 134.461022 -155.296822 
L 134.580278 -154.046837 
L 134.683857 -152.796852 
L 134.770117 -151.546867 
L 134.838128 -150.296882 
L 134.887785 -149.046897 
L 134.91987 -147.796912 
L 134.936083 -146.546927 
L 134.939026 -145.296942 
L 134.932138 -144.046957 
L 134.919588 -142.796972 
L 134.906132 -141.546987 
L 134.896929 -140.297002 
L 134.897341 -139.047017 
L 134.91271 -137.797032 
L 134.948144 -136.547047 
L 135.008307 -135.297062 
L 135.097228 -134.047077 
L 135.218143 -132.797092 
L 135.373376 -131.547107 
L 135.564261 -130.297122 
L 135.79111 -129.047137 
L 136.053222 -127.797153 
L 136.348935 -126.547168 
L 136.675709 -125.297183 
L 137.030237 -124.047198 
L 137.40857 -122.797213 
L 137.806247 -121.547228 
L 138.218419 -120.297243 
L 138.639973 -119.047258 
L 139.065623 -117.797273 
L 139.49 -116.547288 
L 139.907712 -115.297303 
L 140.313394 -114.047318 
L 140.701746 -112.797333 
L 141.067576 -111.547348 
L 141.405839 -110.297363 
L 141.711694 -109.047378 
L 141.980573 -107.797393 
L 142.208272 -106.547408 
L 142.39105 -105.297423 
L 142.525749 -104.047438 
L 142.609905 -102.797453 
L 142.641857 -101.547468 
L 142.620835 -100.297483 
L 142.54702 -99.047498 
L 142.421559 -97.797513 
L 142.246545 -96.547528 
L 142.024947 -95.297543 
L 141.7605 -94.047558 
L 141.45756 -92.797573 
L 141.120935 -91.547588 
L 140.755708 -90.297603 
L 140.367063 -89.047618 
L 139.960117 -87.797633 
L 139.53979 -86.547648 
L 139.1107 -85.297663 
L 138.677095 -84.047679 
L 138.242817 -82.797694 
L 137.811306 -81.547709 
L 137.385614 -80.297724 
L 136.968448 -79.047739 
L 136.562209 -77.797754 
L 136.169038 -76.547769 
L 135.790847 -75.297784 
L 135.429343 -74.047799 
L 135.086034 -72.797814 
L 134.762226 -71.547829 
L 134.459005 -70.297844 
L 134.177214 -69.047859 
L 133.917434 -67.797874 
L 133.679956 -66.547889 
L 133.464774 -65.297904 
L 133.27158 -64.047919 
L 133.099772 -62.797934 
L 132.948478 -61.547949 
L 132.816587 -60.297964 
L 132.702793 -59.047979 
L 132.605641 -57.797994 
L 132.523582 -56.548009 
L 132.45502 -55.298024 
L 132.398361 -54.048039 
z
" style="stroke: #999999; stroke-width: 1.5"/>
    </defs>
    <g clip-path="url(#p96674a0f0c)">
     <use xlink:href="#mb1d652aabd" x="0" y="216" style="fill: #ffffff; stroke: #999999; stroke-width: 1.5"/>
    </g>
   </g>
   <g id="PolyCollection_4">
    <defs>
     <path id="m00f9076b67" d="M 167.220423 -57.739645 
L 166.904577 -57.739645 
L 166.861834 -58.894683 
L 166.810642 -60.04972 
L 166.750178 -61.204757 
L 166.679722 -62.359794 
L 166.598694 -63.514831 
L 166.50667 -64.669869 
L 166.403388 -65.824906 
L 166.288742 -66.979943 
L 166.162746 -68.13498 
L 166.025487 -69.290017 
L 165.877055 -70.445054 
L 165.717475 -71.600092 
L 165.546622 -72.755129 
L 165.364149 -73.910166 
L 165.169432 -75.065203 
L 164.961541 -76.22024 
L 164.739233 -77.375278 
L 164.501 -78.530315 
L 164.24514 -79.685352 
L 163.969871 -80.840389 
L 163.673482 -81.995426 
L 163.354497 -83.150464 
L 163.011855 -84.305501 
L 162.645089 -85.460538 
L 162.254488 -86.615575 
L 161.84123 -87.770612 
L 161.407478 -88.92565 
L 160.956425 -90.080687 
L 160.49228 -91.235724 
L 160.020202 -92.390761 
L 159.546169 -93.545798 
L 159.076802 -94.700836 
L 158.619138 -95.855873 
L 158.180377 -97.01091 
L 157.767613 -98.165947 
L 157.387564 -99.320984 
L 157.046315 -100.476022 
L 156.749096 -101.631059 
L 156.500098 -102.786096 
L 156.302344 -103.941133 
L 156.157604 -105.09617 
L 156.066374 -106.251208 
L 156.027894 -107.406245 
L 156.040222 -108.561282 
L 156.10034 -109.716319 
L 156.204302 -110.871356 
L 156.347405 -112.026394 
L 156.5244 -113.181431 
L 156.729712 -114.336468 
L 156.957696 -115.491505 
L 157.202892 -116.646542 
L 157.460284 -117.80158 
L 157.72554 -118.956617 
L 157.995222 -120.111654 
L 158.266933 -121.266691 
L 158.539394 -122.421728 
L 158.812427 -123.576766 
L 159.086843 -124.731803 
L 159.364239 -125.88684 
L 159.646707 -127.041877 
L 159.936491 -128.196914 
L 160.235624 -129.351952 
L 160.545577 -130.506989 
L 160.866959 -131.662026 
L 161.199306 -132.817063 
L 161.540989 -133.9721 
L 161.889233 -135.127138 
L 162.240269 -136.282175 
L 162.589594 -137.437212 
L 162.932303 -138.592249 
L 163.263471 -139.747286 
L 163.578538 -140.902324 
L 163.873648 -142.057361 
L 164.145929 -143.212398 
L 164.393669 -144.367435 
L 164.616383 -145.522472 
L 164.814769 -146.677509 
L 164.990568 -147.832547 
L 165.146338 -148.987584 
L 165.285181 -150.142621 
L 165.41045 -151.297658 
L 165.525459 -152.452695 
L 165.633233 -153.607733 
L 165.73631 -154.76277 
L 165.836616 -155.917807 
L 165.935406 -157.072844 
L 166.033273 -158.227881 
L 166.130217 -159.382919 
L 166.225757 -160.537956 
L 166.319067 -161.692993 
L 166.409123 -162.84803 
L 166.494844 -164.003067 
L 166.575211 -165.158105 
L 166.649365 -166.313142 
L 166.716673 -167.468179 
L 166.776756 -168.623216 
L 166.829499 -169.778253 
L 166.875029 -170.933291 
L 166.913685 -172.088328 
L 167.211315 -172.088328 
L 167.211315 -172.088328 
L 167.249971 -170.933291 
L 167.295501 -169.778253 
L 167.348244 -168.623216 
L 167.408327 -167.468179 
L 167.475635 -166.313142 
L 167.549789 -165.158105 
L 167.630156 -164.003067 
L 167.715877 -162.84803 
L 167.805933 -161.692993 
L 167.899243 -160.537956 
L 167.994783 -159.382919 
L 168.091727 -158.227881 
L 168.189594 -157.072844 
L 168.288384 -155.917807 
L 168.38869 -154.76277 
L 168.491767 -153.607733 
L 168.599541 -152.452695 
L 168.71455 -151.297658 
L 168.839819 -150.142621 
L 168.978662 -148.987584 
L 169.134432 -147.832547 
L 169.310231 -146.677509 
L 169.508617 -145.522472 
L 169.731331 -144.367435 
L 169.979071 -143.212398 
L 170.251352 -142.057361 
L 170.546462 -140.902324 
L 170.861529 -139.747286 
L 171.192697 -138.592249 
L 171.535406 -137.437212 
L 171.884731 -136.282175 
L 172.235767 -135.127138 
L 172.584011 -133.9721 
L 172.925694 -132.817063 
L 173.258041 -131.662026 
L 173.579423 -130.506989 
L 173.889376 -129.351952 
L 174.188509 -128.196914 
L 174.478293 -127.041877 
L 174.760761 -125.88684 
L 175.038157 -124.731803 
L 175.312573 -123.576766 
L 175.585606 -122.421728 
L 175.858067 -121.266691 
L 176.129778 -120.111654 
L 176.39946 -118.956617 
L 176.664716 -117.80158 
L 176.922108 -116.646542 
L 177.167304 -115.491505 
L 177.395288 -114.336468 
L 177.6006 -113.181431 
L 177.777595 -112.026394 
L 177.920698 -110.871356 
L 178.02466 -109.716319 
L 178.084778 -108.561282 
L 178.097106 -107.406245 
L 178.058626 -106.251208 
L 177.967396 -105.09617 
L 177.822656 -103.941133 
L 177.624902 -102.786096 
L 177.375904 -101.631059 
L 177.078685 -100.476022 
L 176.737436 -99.320984 
L 176.357387 -98.165947 
L 175.944623 -97.01091 
L 175.505862 -95.855873 
L 175.048198 -94.700836 
L 174.578831 -93.545798 
L 174.104798 -92.390761 
L 173.63272 -91.235724 
L 173.168575 -90.080687 
L 172.717522 -88.92565 
L 172.28377 -87.770612 
L 171.870512 -86.615575 
L 171.479911 -85.460538 
L 171.113145 -84.305501 
L 170.770503 -83.150464 
L 170.451518 -81.995426 
L 170.155129 -80.840389 
L 169.87986 -79.685352 
L 169.624 -78.530315 
L 169.385767 -77.375278 
L 169.163459 -76.22024 
L 168.955568 -75.065203 
L 168.760851 -73.910166 
L 168.578378 -72.755129 
L 168.407525 -71.600092 
L 168.247945 -70.445054 
L 168.099513 -69.290017 
L 167.962254 -68.13498 
L 167.836258 -66.979943 
L 167.721612 -65.824906 
L 167.61833 -64.669869 
L 167.526306 -63.514831 
L 167.445278 -62.359794 
L 167.374822 -61.204757 
L 167.314358 -60.04972 
L 167.263166 -58.894683 
L 167.220423 -57.739645 
z
" style="stroke: #999999; stroke-width: 1.5"/>
    </defs>
    <g clip-path="url(#p96674a0f0c)">
     <use xlink:href="#m00f9076b67" x="0" y="216" style="fill: #ffffff; stroke: #999999; stroke-width: 1.5"/>
    </g>
   </g>
   <g id="PolyCollection_5">
    <defs>
     <path id="mf4d988d2e3" d="M 202.322807 -78.778508 
L 201.552193 -78.778508 
L 201.457653 -79.827408 
L 201.345055 -80.876309 
L 201.212304 -81.92521 
L 201.057395 -82.974111 
L 200.878497 -84.023011 
L 200.67406 -85.071912 
L 200.442917 -86.120813 
L 200.184401 -87.169714 
L 199.898451 -88.218614 
L 199.585709 -89.267515 
L 199.247603 -90.316416 
L 198.886403 -91.365317 
L 198.505254 -92.414217 
L 198.108163 -93.463118 
L 197.699954 -94.512019 
L 197.28618 -95.560919 
L 196.872991 -96.60982 
L 196.466964 -97.658721 
L 196.074899 -98.707622 
L 195.703588 -99.756522 
L 195.359572 -100.805423 
L 195.048889 -101.854324 
L 194.77683 -102.903225 
L 194.547716 -103.952125 
L 194.364711 -105.001026 
L 194.229672 -106.049927 
L 194.143053 -107.098828 
L 194.103865 -108.147728 
L 194.109699 -109.196629 
L 194.156801 -110.24553 
L 194.240206 -111.294431 
L 194.353918 -112.343331 
L 194.491131 -113.392232 
L 194.644473 -114.441133 
L 194.806268 -115.490034 
L 194.968807 -116.538934 
L 195.124602 -117.587835 
L 195.26663 -118.636736 
L 195.388553 -119.685637 
L 195.484895 -120.734537 
L 195.551199 -121.783438 
L 195.584131 -122.832339 
L 195.581552 -123.88124 
L 195.542558 -124.93014 
L 195.467468 -125.979041 
L 195.357799 -127.027942 
L 195.216196 -128.076843 
L 195.046339 -129.125743 
L 194.852835 -130.174644 
L 194.641076 -131.223545 
L 194.417086 -132.272445 
L 194.187357 -133.321346 
L 193.958663 -134.370247 
L 193.737878 -135.419148 
L 193.531782 -136.468048 
L 193.346872 -137.516949 
L 193.189184 -138.56585 
L 193.064121 -139.614751 
L 192.976306 -140.663651 
L 192.92946 -141.712552 
L 192.926305 -142.761453 
L 192.968508 -143.810354 
L 193.056657 -144.859254 
L 193.190277 -145.908155 
L 193.367874 -146.957056 
L 193.587027 -148.005957 
L 193.844495 -149.054857 
L 194.136349 -150.103758 
L 194.45813 -151.152659 
L 194.804998 -152.20156 
L 195.171897 -153.25046 
L 195.553707 -154.299361 
L 195.945381 -155.348262 
L 196.342074 -156.397163 
L 196.739244 -157.446063 
L 197.13273 -158.494964 
L 197.518816 -159.543865 
L 197.894262 -160.592766 
L 198.256322 -161.641666 
L 198.602741 -162.690567 
L 198.931743 -163.739468 
L 199.241996 -164.788368 
L 199.532586 -165.837269 
L 199.80297 -166.88617 
L 200.052941 -167.935071 
L 200.282579 -168.983971 
L 200.492215 -170.032872 
L 200.682393 -171.081773 
L 200.85383 -172.130674 
L 201.007386 -173.179574 
L 201.144033 -174.228475 
L 201.264829 -175.277376 
L 201.370887 -176.326277 
L 201.463361 -177.375177 
L 201.543418 -178.424078 
L 201.612219 -179.472979 
L 201.670906 -180.52188 
L 201.720582 -181.57078 
L 201.762304 -182.619681 
L 202.112696 -182.619681 
L 202.112696 -182.619681 
L 202.154418 -181.57078 
L 202.204094 -180.52188 
L 202.262781 -179.472979 
L 202.331582 -178.424078 
L 202.411639 -177.375177 
L 202.504113 -176.326277 
L 202.610171 -175.277376 
L 202.730967 -174.228475 
L 202.867614 -173.179574 
L 203.02117 -172.130674 
L 203.192607 -171.081773 
L 203.382785 -170.032872 
L 203.592421 -168.983971 
L 203.822059 -167.935071 
L 204.07203 -166.88617 
L 204.342414 -165.837269 
L 204.633004 -164.788368 
L 204.943257 -163.739468 
L 205.272259 -162.690567 
L 205.618678 -161.641666 
L 205.980738 -160.592766 
L 206.356184 -159.543865 
L 206.74227 -158.494964 
L 207.135756 -157.446063 
L 207.532926 -156.397163 
L 207.929619 -155.348262 
L 208.321293 -154.299361 
L 208.703103 -153.25046 
L 209.070002 -152.20156 
L 209.41687 -151.152659 
L 209.738651 -150.103758 
L 210.030505 -149.054857 
L 210.287973 -148.005957 
L 210.507126 -146.957056 
L 210.684723 -145.908155 
L 210.818343 -144.859254 
L 210.906492 -143.810354 
L 210.948695 -142.761453 
L 210.94554 -141.712552 
L 210.898694 -140.663651 
L 210.810879 -139.614751 
L 210.685816 -138.56585 
L 210.528128 -137.516949 
L 210.343218 -136.468048 
L 210.137122 -135.419148 
L 209.916337 -134.370247 
L 209.687643 -133.321346 
L 209.457914 -132.272445 
L 209.233924 -131.223545 
L 209.022165 -130.174644 
L 208.828661 -129.125743 
L 208.658804 -128.076843 
L 208.517201 -127.027942 
L 208.407532 -125.979041 
L 208.332442 -124.93014 
L 208.293448 -123.88124 
L 208.290869 -122.832339 
L 208.323801 -121.783438 
L 208.390105 -120.734537 
L 208.486447 -119.685637 
L 208.60837 -118.636736 
L 208.750398 -117.587835 
L 208.906193 -116.538934 
L 209.068732 -115.490034 
L 209.230527 -114.441133 
L 209.383869 -113.392232 
L 209.521082 -112.343331 
L 209.634794 -111.294431 
L 209.718199 -110.24553 
L 209.765301 -109.196629 
L 209.771135 -108.147728 
L 209.731947 -107.098828 
L 209.645328 -106.049927 
L 209.510289 -105.001026 
L 209.327284 -103.952125 
L 209.09817 -102.903225 
L 208.826111 -101.854324 
L 208.515428 -100.805423 
L 208.171412 -99.756522 
L 207.800101 -98.707622 
L 207.408036 -97.658721 
L 207.002009 -96.60982 
L 206.58882 -95.560919 
L 206.175046 -94.512019 
L 205.766837 -93.463118 
L 205.369746 -92.414217 
L 204.988597 -91.365317 
L 204.627397 -90.316416 
L 204.289291 -89.267515 
L 203.976549 -88.218614 
L 203.690599 -87.169714 
L 203.432083 -86.120813 
L 203.20094 -85.071912 
L 202.996503 -84.023011 
L 202.817605 -82.974111 
L 202.662696 -81.92521 
L 202.529945 -80.876309 
L 202.417347 -79.827408 
L 202.322807 -78.778508 
z
" style="stroke: #999999; stroke-width: 1.5"/>
    </defs>
    <g clip-path="url(#p96674a0f0c)">
     <use xlink:href="#mf4d988d2e3" x="0" y="216" style="fill: #ffffff; stroke: #999999; stroke-width: 1.5"/>
    </g>
   </g>
   <g id="PolyCollection_6">
    <defs>
     <path id="md35932a00d" d="M 237.319743 -84.449011 
L 236.305257 -84.449011 
L 236.181273 -85.04278 
L 236.033388 -85.636549 
L 235.858675 -86.230318 
L 235.654253 -86.824088 
L 235.417391 -87.417857 
L 235.145629 -88.011626 
L 234.836914 -88.605395 
L 234.489736 -89.199164 
L 234.103268 -89.792933 
L 233.677494 -90.386702 
L 233.21332 -90.980471 
L 232.712665 -91.57424 
L 232.17851 -92.16801 
L 231.614913 -92.761779 
L 231.026971 -93.355548 
L 230.420737 -93.949317 
L 229.803084 -94.543086 
L 229.181521 -95.136855 
L 228.563967 -95.730624 
L 227.958495 -96.324393 
L 227.37305 -96.918162 
L 226.815174 -97.511931 
L 226.291719 -98.105701 
L 225.808607 -98.69947 
L 225.370612 -99.293239 
L 224.9812 -99.887008 
L 224.642429 -100.480777 
L 224.35491 -101.074546 
L 224.117838 -101.668315 
L 223.929082 -102.262084 
L 223.785334 -102.855853 
L 223.682298 -103.449623 
L 223.614915 -104.043392 
L 223.577606 -104.637161 
L 223.564516 -105.23093 
L 223.569756 -105.824699 
L 223.587613 -106.418468 
L 223.612741 -107.012237 
L 223.640311 -107.606006 
L 223.666129 -108.199775 
L 223.686705 -108.793544 
L 223.699295 -109.387314 
L 223.701907 -109.981083 
L 223.69328 -110.574852 
L 223.672841 -111.168621 
L 223.640642 -111.76239 
L 223.597296 -112.356159 
L 223.543898 -112.949928 
L 223.481944 -113.543697 
L 223.413259 -114.137466 
L 223.339918 -114.731236 
L 223.264177 -115.325005 
L 223.188416 -115.918774 
L 223.115081 -116.512543 
L 223.046643 -117.106312 
L 222.98556 -117.700081 
L 222.934257 -118.29385 
L 222.895109 -118.887619 
L 222.870435 -119.481388 
L 222.8625 -120.075157 
L 222.873517 -120.668927 
L 222.905653 -121.262696 
L 222.961034 -121.856465 
L 223.041735 -122.450234 
L 223.149773 -123.044003 
L 223.287076 -123.637772 
L 223.455449 -124.231541 
L 223.65651 -124.82531 
L 223.891635 -125.419079 
L 224.161871 -126.012849 
L 224.467858 -126.606618 
L 224.809746 -127.200387 
L 225.187116 -127.794156 
L 225.598913 -128.387925 
L 226.043405 -128.981694 
L 226.518155 -129.575463 
L 227.020031 -130.169232 
L 227.54524 -130.763001 
L 228.089396 -131.35677 
L 228.647616 -131.95054 
L 229.214641 -132.544309 
L 229.784979 -133.138078 
L 230.353057 -133.731847 
L 230.913382 -134.325616 
L 231.460697 -134.919385 
L 231.990125 -135.513154 
L 232.497298 -136.106923 
L 232.978461 -136.700692 
L 233.430548 -137.294462 
L 233.851227 -137.888231 
L 234.23892 -138.482 
L 234.592786 -139.075769 
L 234.912682 -139.669538 
L 235.199103 -140.263307 
L 235.453104 -140.857076 
L 235.676206 -141.450845 
L 235.870302 -142.044614 
L 236.037557 -142.638383 
L 236.180315 -143.232153 
L 237.444685 -143.232153 
L 237.444685 -143.232153 
L 237.587443 -142.638383 
L 237.754698 -142.044614 
L 237.948794 -141.450845 
L 238.171896 -140.857076 
L 238.425897 -140.263307 
L 238.712318 -139.669538 
L 239.032214 -139.075769 
L 239.38608 -138.482 
L 239.773773 -137.888231 
L 240.194452 -137.294462 
L 240.646539 -136.700692 
L 241.127702 -136.106923 
L 241.634875 -135.513154 
L 242.164303 -134.919385 
L 242.711618 -134.325616 
L 243.271943 -133.731847 
L 243.840021 -133.138078 
L 244.410359 -132.544309 
L 244.977384 -131.95054 
L 245.535604 -131.35677 
L 246.07976 -130.763001 
L 246.604969 -130.169232 
L 247.106845 -129.575463 
L 247.581595 -128.981694 
L 248.026087 -128.387925 
L 248.437884 -127.794156 
L 248.815254 -127.200387 
L 249.157142 -126.606618 
L 249.463129 -126.012849 
L 249.733365 -125.419079 
L 249.96849 -124.82531 
L 250.169551 -124.231541 
L 250.337924 -123.637772 
L 250.475227 -123.044003 
L 250.583265 -122.450234 
L 250.663966 -121.856465 
L 250.719347 -121.262696 
L 250.751483 -120.668927 
L 250.7625 -120.075157 
L 250.754565 -119.481388 
L 250.729891 -118.887619 
L 250.690743 -118.29385 
L 250.63944 -117.700081 
L 250.578357 -117.106312 
L 250.509919 -116.512543 
L 250.436584 -115.918774 
L 250.360823 -115.325005 
L 250.285082 -114.731236 
L 250.211741 -114.137466 
L 250.143056 -113.543697 
L 250.081102 -112.949928 
L 250.027704 -112.356159 
L 249.984358 -111.76239 
L 249.952159 -111.168621 
L 249.93172 -110.574852 
L 249.923093 -109.981083 
L 249.925705 -109.387314 
L 249.938295 -108.793544 
L 249.958871 -108.199775 
L 249.984689 -107.606006 
L 250.012259 -107.012237 
L 250.037387 -106.418468 
L 250.055244 -105.824699 
L 250.060484 -105.23093 
L 250.047394 -104.637161 
L 250.010085 -104.043392 
L 249.942702 -103.449623 
L 249.839666 -102.855853 
L 249.695918 -102.262084 
L 249.507162 -101.668315 
L 249.27009 -101.074546 
L 248.982571 -100.480777 
L 248.6438 -99.887008 
L 248.254388 -99.293239 
L 247.816393 -98.69947 
L 247.333281 -98.105701 
L 246.809826 -97.511931 
L 246.25195 -96.918162 
L 245.666505 -96.324393 
L 245.061033 -95.730624 
L 244.443479 -95.136855 
L 243.821916 -94.543086 
L 243.204263 -93.949317 
L 242.598029 -93.355548 
L 242.010087 -92.761779 
L 241.44649 -92.16801 
L 240.912335 -91.57424 
L 240.41168 -90.980471 
L 239.947506 -90.386702 
L 239.521732 -89.792933 
L 239.135264 -89.199164 
L 238.788086 -88.605395 
L 238.479371 -88.011626 
L 238.207609 -87.417857 
L 237.970747 -86.824088 
L 237.766325 -86.230318 
L 237.591612 -85.636549 
L 237.443727 -85.04278 
L 237.319743 -84.449011 
z
" style="stroke: #999999; stroke-width: 1.5"/>
    </defs>
    <g clip-path="url(#p96674a0f0c)">
     <use xlink:href="#md35932a00d" x="0" y="216" style="fill: #ffffff; stroke: #999999; stroke-width: 1.5"/>
    </g>
   </g>
   <g id="PolyCollection_7">
    <defs>
     <path id="me06703cc67" d="M 271.876108 -62.393335 
L 271.498892 -62.393335 
L 271.446564 -63.617489 
L 271.383546 -64.841643 
L 271.308788 -66.065797 
L 271.221438 -67.289951 
L 271.120932 -68.514105 
L 271.007079 -69.738259 
L 270.880139 -70.962413 
L 270.740882 -72.186567 
L 270.59063 -73.41072 
L 270.431263 -74.634874 
L 270.265193 -75.859028 
L 270.095297 -77.083182 
L 269.924817 -78.307336 
L 269.75722 -79.53149 
L 269.596029 -80.755644 
L 269.44463 -81.979798 
L 269.306076 -83.203951 
L 269.182876 -84.428105 
L 269.07681 -85.652259 
L 268.988755 -86.876413 
L 268.918548 -88.100567 
L 268.864893 -89.324721 
L 268.825309 -90.548875 
L 268.796139 -91.773029 
L 268.772613 -92.997182 
L 268.748968 -94.221336 
L 268.718626 -95.44549 
L 268.674429 -96.669644 
L 268.60892 -97.893798 
L 268.514661 -99.117952 
L 268.384585 -100.342106 
L 268.212353 -101.56626 
L 267.992715 -102.790414 
L 267.721839 -104.014567 
L 267.397596 -105.238721 
L 267.019791 -106.462875 
L 266.590307 -107.687029 
L 266.113154 -108.911183 
L 265.594429 -110.135337 
L 265.042168 -111.359491 
L 264.466104 -112.583645 
L 263.877338 -113.807798 
L 263.287949 -115.031952 
L 262.710548 -116.256106 
L 262.157812 -117.48026 
L 261.642012 -118.704414 
L 261.174568 -119.928568 
L 260.765643 -121.152722 
L 260.423805 -122.376876 
L 260.15576 -123.60103 
L 259.966181 -124.825183 
L 259.857624 -126.049337 
L 259.830544 -127.273491 
L 259.883397 -128.497645 
L 260.012823 -129.721799 
L 260.213893 -130.945953 
L 260.480399 -132.170107 
L 260.805173 -133.394261 
L 261.180407 -134.618414 
L 261.597954 -135.842568 
L 262.049604 -137.066722 
L 262.527304 -138.290876 
L 263.023338 -139.51503 
L 263.530452 -140.739184 
L 264.041926 -141.963338 
L 264.551629 -143.187492 
L 265.054027 -144.411645 
L 265.544202 -145.635799 
L 266.017852 -146.859953 
L 266.47131 -148.084107 
L 266.901564 -149.308261 
L 267.306287 -150.532415 
L 267.683864 -151.756569 
L 268.033415 -152.980723 
L 268.354792 -154.204877 
L 268.648556 -155.42903 
L 268.915915 -156.653184 
L 269.158634 -157.877338 
L 269.378905 -159.101492 
L 269.579202 -160.325646 
L 269.762118 -161.5498 
L 269.930202 -162.773954 
L 270.085819 -163.998108 
L 270.231027 -165.222261 
L 270.367493 -166.446415 
L 270.496454 -167.670569 
L 270.618712 -168.894723 
L 270.734671 -170.118877 
L 270.844404 -171.343031 
L 270.947734 -172.567185 
L 271.044333 -173.791339 
L 271.133815 -175.015493 
L 271.215817 -176.239646 
L 271.290069 -177.4638 
L 271.356441 -178.687954 
L 271.414966 -179.912108 
L 271.465847 -181.136262 
L 271.509447 -182.360416 
L 271.546262 -183.58457 
L 271.828738 -183.58457 
L 271.828738 -183.58457 
L 271.865553 -182.360416 
L 271.909153 -181.136262 
L 271.960034 -179.912108 
L 272.018559 -178.687954 
L 272.084931 -177.4638 
L 272.159183 -176.239646 
L 272.241185 -175.015493 
L 272.330667 -173.791339 
L 272.427266 -172.567185 
L 272.530596 -171.343031 
L 272.640329 -170.118877 
L 272.756288 -168.894723 
L 272.878546 -167.670569 
L 273.007507 -166.446415 
L 273.143973 -165.222261 
L 273.289181 -163.998108 
L 273.444798 -162.773954 
L 273.612882 -161.5498 
L 273.795798 -160.325646 
L 273.996095 -159.101492 
L 274.216366 -157.877338 
L 274.459085 -156.653184 
L 274.726444 -155.42903 
L 275.020208 -154.204877 
L 275.341585 -152.980723 
L 275.691136 -151.756569 
L 276.068713 -150.532415 
L 276.473436 -149.308261 
L 276.90369 -148.084107 
L 277.357148 -146.859953 
L 277.830798 -145.635799 
L 278.320973 -144.411645 
L 278.823371 -143.187492 
L 279.333074 -141.963338 
L 279.844548 -140.739184 
L 280.351662 -139.51503 
L 280.847696 -138.290876 
L 281.325396 -137.066722 
L 281.777046 -135.842568 
L 282.194593 -134.618414 
L 282.569827 -133.394261 
L 282.894601 -132.170107 
L 283.161107 -130.945953 
L 283.362177 -129.721799 
L 283.491603 -128.497645 
L 283.544456 -127.273491 
L 283.517376 -126.049337 
L 283.408819 -124.825183 
L 283.21924 -123.60103 
L 282.951195 -122.376876 
L 282.609357 -121.152722 
L 282.200432 -119.928568 
L 281.732988 -118.704414 
L 281.217188 -117.48026 
L 280.664452 -116.256106 
L 280.087051 -115.031952 
L 279.497662 -113.807798 
L 278.908896 -112.583645 
L 278.332832 -111.359491 
L 277.780571 -110.135337 
L 277.261846 -108.911183 
L 276.784693 -107.687029 
L 276.355209 -106.462875 
L 275.977404 -105.238721 
L 275.653161 -104.014567 
L 275.382285 -102.790414 
L 275.162647 -101.56626 
L 274.990415 -100.342106 
L 274.860339 -99.117952 
L 274.76608 -97.893798 
L 274.700571 -96.669644 
L 274.656374 -95.44549 
L 274.626032 -94.221336 
L 274.602387 -92.997182 
L 274.578861 -91.773029 
L 274.549691 -90.548875 
L 274.510107 -89.324721 
L 274.456452 -88.100567 
L 274.386245 -86.876413 
L 274.29819 -85.652259 
L 274.192124 -84.428105 
L 274.068924 -83.203951 
L 273.93037 -81.979798 
L 273.778971 -80.755644 
L 273.61778 -79.53149 
L 273.450183 -78.307336 
L 273.279703 -77.083182 
L 273.109807 -75.859028 
L 272.943737 -74.634874 
L 272.78437 -73.41072 
L 272.634118 -72.186567 
L 272.494861 -70.962413 
L 272.367921 -69.738259 
L 272.254068 -68.514105 
L 272.153562 -67.289951 
L 272.066212 -66.065797 
L 271.991454 -64.841643 
L 271.928436 -63.617489 
L 271.876108 -62.393335 
z
" style="stroke: #999999; stroke-width: 1.5"/>
    </defs>
    <g clip-path="url(#p96674a0f0c)">
     <use xlink:href="#me06703cc67" x="0" y="216" style="fill: #ffffff; stroke: #999999; stroke-width: 1.5"/>
    </g>
   </g>
   <g id="PolyCollection_8">
    <defs>
     <path id="m905ff17ad5" d="M 306.766025 -80.396359 
L 306.358975 -80.396359 
L 306.304506 -81.336922 
L 306.239176 -82.277484 
L 306.161824 -83.218047 
L 306.071397 -84.158609 
L 305.966991 -85.099172 
L 305.847895 -86.039734 
L 305.713617 -86.980297 
L 305.563899 -87.920859 
L 305.39871 -88.861422 
L 305.21822 -89.801985 
L 305.022752 -90.742547 
L 304.81272 -91.68311 
L 304.588559 -92.623672 
L 304.350646 -93.564235 
L 304.099239 -94.504797 
L 303.834429 -95.44536 
L 303.556125 -96.385922 
L 303.264069 -97.326485 
L 302.9579 -98.267047 
L 302.637252 -99.20761 
L 302.301881 -100.148172 
L 301.951822 -101.088735 
L 301.587537 -102.029297 
L 301.210057 -102.96986 
L 300.821083 -103.910423 
L 300.423029 -104.850985 
L 300.018998 -105.791548 
L 299.612681 -106.73211 
L 299.208174 -107.672673 
L 298.809736 -108.613235 
L 298.421501 -109.553798 
L 298.04717 -110.49436 
L 297.68972 -111.434923 
L 297.351173 -112.375485 
L 297.032437 -113.316048 
L 296.733265 -114.25661 
L 296.452333 -115.197173 
L 296.187442 -116.137736 
L 295.935839 -117.078298 
L 295.694607 -118.018861 
L 295.461123 -118.959423 
L 295.233493 -119.899986 
L 295.01096 -120.840548 
L 294.794205 -121.781111 
L 294.585523 -122.721673 
L 294.388843 -123.662236 
L 294.209586 -124.602798 
L 294.054365 -125.543361 
L 293.930556 -126.483923 
L 293.845776 -127.424486 
L 293.80732 -128.365049 
L 293.821597 -129.305611 
L 293.893636 -130.246174 
L 294.026686 -131.186736 
L 294.221945 -132.127299 
L 294.478455 -133.067861 
L 294.793138 -134.008424 
L 295.160982 -134.948986 
L 295.575347 -135.889549 
L 296.028349 -136.830111 
L 296.511307 -137.770674 
L 297.01519 -138.711236 
L 297.531048 -139.651799 
L 298.050393 -140.592361 
L 298.565508 -141.532924 
L 299.069679 -142.473487 
L 299.557345 -143.414049 
L 300.024169 -144.354612 
L 300.467041 -145.295174 
L 300.884021 -146.235737 
L 301.274246 -147.176299 
L 301.637799 -148.116862 
L 301.975561 -149.057424 
L 302.289053 -149.997987 
L 302.580271 -150.938549 
L 302.851527 -151.879112 
L 303.105286 -152.819674 
L 303.34403 -153.760237 
L 303.570115 -154.7008 
L 303.785665 -155.641362 
L 303.992475 -156.581925 
L 304.191947 -157.522487 
L 304.385051 -158.46305 
L 304.572316 -159.403612 
L 304.753856 -160.344175 
L 304.929413 -161.284737 
L 305.098434 -162.2253 
L 305.260149 -163.165862 
L 305.413676 -164.106425 
L 305.558109 -165.046987 
L 305.692611 -165.98755 
L 305.816485 -166.928112 
L 305.929236 -167.868675 
L 306.030607 -168.809238 
L 306.120591 -169.7498 
L 306.199426 -170.690363 
L 306.267578 -171.630925 
L 306.325702 -172.571488 
L 306.3746 -173.51205 
L 306.7504 -173.51205 
L 306.7504 -173.51205 
L 306.799298 -172.571488 
L 306.857422 -171.630925 
L 306.925574 -170.690363 
L 307.004409 -169.7498 
L 307.094393 -168.809238 
L 307.195764 -167.868675 
L 307.308515 -166.928112 
L 307.432389 -165.98755 
L 307.566891 -165.046987 
L 307.711324 -164.106425 
L 307.864851 -163.165862 
L 308.026566 -162.2253 
L 308.195587 -161.284737 
L 308.371144 -160.344175 
L 308.552684 -159.403612 
L 308.739949 -158.46305 
L 308.933053 -157.522487 
L 309.132525 -156.581925 
L 309.339335 -155.641362 
L 309.554885 -154.7008 
L 309.78097 -153.760237 
L 310.019714 -152.819674 
L 310.273473 -151.879112 
L 310.544729 -150.938549 
L 310.835947 -149.997987 
L 311.149439 -149.057424 
L 311.487201 -148.116862 
L 311.850754 -147.176299 
L 312.240979 -146.235737 
L 312.657959 -145.295174 
L 313.100831 -144.354612 
L 313.567655 -143.414049 
L 314.055321 -142.473487 
L 314.559492 -141.532924 
L 315.074607 -140.592361 
L 315.593952 -139.651799 
L 316.10981 -138.711236 
L 316.613693 -137.770674 
L 317.096651 -136.830111 
L 317.549653 -135.889549 
L 317.964018 -134.948986 
L 318.331862 -134.008424 
L 318.646545 -133.067861 
L 318.903055 -132.127299 
L 319.098314 -131.186736 
L 319.231364 -130.246174 
L 319.303403 -129.305611 
L 319.31768 -128.365049 
L 319.279224 -127.424486 
L 319.194444 -126.483923 
L 319.070635 -125.543361 
L 318.915414 -124.602798 
L 318.736157 -123.662236 
L 318.539477 -122.721673 
L 318.330795 -121.781111 
L 318.11404 -120.840548 
L 317.891507 -119.899986 
L 317.663877 -118.959423 
L 317.430393 -118.018861 
L 317.189161 -117.078298 
L 316.937558 -116.137736 
L 316.672667 -115.197173 
L 316.391735 -114.25661 
L 316.092563 -113.316048 
L 315.773827 -112.375485 
L 315.43528 -111.434923 
L 315.07783 -110.49436 
L 314.703499 -109.553798 
L 314.315264 -108.613235 
L 313.916826 -107.672673 
L 313.512319 -106.73211 
L 313.106002 -105.791548 
L 312.701971 -104.850985 
L 312.303917 -103.910423 
L 311.914943 -102.96986 
L 311.537463 -102.029297 
L 311.173178 -101.088735 
L 310.823119 -100.148172 
L 310.487748 -99.20761 
L 310.1671 -98.267047 
L 309.860931 -97.326485 
L 309.568875 -96.385922 
L 309.290571 -95.44536 
L 309.025761 -94.504797 
L 308.774354 -93.564235 
L 308.536441 -92.623672 
L 308.31228 -91.68311 
L 308.102248 -90.742547 
L 307.90678 -89.801985 
L 307.72629 -88.861422 
L 307.561101 -87.920859 
L 307.411383 -86.980297 
L 307.277105 -86.039734 
L 307.158009 -85.099172 
L 307.053603 -84.158609 
L 306.963176 -83.218047 
L 306.885824 -82.277484 
L 306.820494 -81.336922 
L 306.766025 -80.396359 
z
" style="stroke: #999999; stroke-width: 1.5"/>
    </defs>
    <g clip-path="url(#p96674a0f0c)">
     <use xlink:href="#m905ff17ad5" x="0" y="216" style="fill: #ffffff; stroke: #999999; stroke-width: 1.5"/>
    </g>
   </g>
   <g id="line2d_7">
    <path d="M 62.4375 169.183152 
L 62.4375 106.919525 
" clip-path="url(#p96674a0f0c)" style="fill: none; stroke: #999999; stroke-width: 1.5; stroke-linecap: round"/>
   </g>
   <g id="line2d_8">
    <path d="M 62.4375 148.518668 
L 62.4375 123.069457 
" clip-path="url(#p96674a0f0c)" style="fill: none; stroke: #999999; stroke-width: 4.5; stroke-linecap: round"/>
   </g>
   <g id="line2d_9">
    <path d="M 97.3125 146.126304 
L 97.3125 58.940069 
" clip-path="url(#p96674a0f0c)" style="fill: none; stroke: #999999; stroke-width: 1.5; stroke-linecap: round"/>
   </g>
   <g id="line2d_10">
    <path d="M 97.3125 114.145189 
L 97.3125 79.782948 
" clip-path="url(#p96674a0f0c)" style="fill: none; stroke: #999999; stroke-width: 4.5; stroke-linecap: round"/>
   </g>
   <g id="line2d_11">
    <path d="M 132.1875 138.703657 
L 132.1875 72.126427 
" clip-path="url(#p96674a0f0c)" style="fill: none; stroke: #999999; stroke-width: 1.5; stroke-linecap: round"/>
   </g>
   <g id="line2d_12">
    <path d="M 132.1875 120.131005 
L 132.1875 100.012609 
" clip-path="url(#p96674a0f0c)" style="fill: none; stroke: #999999; stroke-width: 4.5; stroke-linecap: round"/>
   </g>
   <g id="line2d_13">
    <path d="M 167.0625 138.703657 
L 167.0625 63.46837 
" clip-path="url(#p96674a0f0c)" style="fill: none; stroke: #999999; stroke-width: 1.5; stroke-linecap: round"/>
   </g>
   <g id="line2d_14">
    <path d="M 167.0625 113.269011 
L 167.0625 92.707366 
" clip-path="url(#p96674a0f0c)" style="fill: none; stroke: #999999; stroke-width: 4.5; stroke-linecap: round"/>
   </g>
   <g id="line2d_15">
    <path d="M 201.9375 115.646809 
L 201.9375 54.955002 
" clip-path="url(#p96674a0f0c)" style="fill: none; stroke: #999999; stroke-width: 1.5; stroke-linecap: round"/>
   </g>
   <g id="line2d_16">
    <path d="M 201.9375 107.58516 
L 201.9375 72.588203 
" clip-path="url(#p96674a0f0c)" style="fill: none; stroke: #999999; stroke-width: 4.5; stroke-linecap: round"/>
   </g>
   <g id="line2d_17">
    <path d="M 236.8125 119.151522 
L 236.8125 85.167315 
" clip-path="url(#p96674a0f0c)" style="fill: none; stroke: #999999; stroke-width: 1.5; stroke-linecap: round"/>
   </g>
   <g id="line2d_18">
    <path d="M 236.8125 113.269011 
L 236.8125 93.463888 
" clip-path="url(#p96674a0f0c)" style="fill: none; stroke: #999999; stroke-width: 4.5; stroke-linecap: round"/>
   </g>
   <g id="line2d_19">
    <path d="M 271.6875 127.511245 
L 271.6875 53.383182 
" clip-path="url(#p96674a0f0c)" style="fill: none; stroke: #999999; stroke-width: 1.5; stroke-linecap: round"/>
   </g>
   <g id="line2d_20">
    <path d="M 271.6875 100.012609 
L 271.6875 80.823804 
" clip-path="url(#p96674a0f0c)" style="fill: none; stroke: #999999; stroke-width: 4.5; stroke-linecap: round"/>
   </g>
   <g id="line2d_21">
    <path d="M 306.5625 119.151522 
L 306.5625 58.940069 
" clip-path="url(#p96674a0f0c)" style="fill: none; stroke: #999999; stroke-width: 1.5; stroke-linecap: round"/>
   </g>
   <g id="line2d_22">
    <path d="M 306.5625 102.159418 
L 306.5625 82.954575 
" clip-path="url(#p96674a0f0c)" style="fill: none; stroke: #999999; stroke-width: 4.5; stroke-linecap: round"/>
   </g>
   <g id="patch_3">
    <path d="M 45 192.24 
L 45 25.92 
" style="fill: none; stroke: #cccccc; stroke-width: 0.6; stroke-linejoin: miter; stroke-linecap: square"/>
   </g>
   <g id="patch_4">
    <path d="M 324 192.24 
L 324 25.92 
" style="fill: none; stroke: #cccccc; stroke-width: 0.6; stroke-linejoin: miter; stroke-linecap: square"/>
   </g>
   <g id="patch_5">
    <path d="M 45 192.24 
L 324 192.24 
" style="fill: none; stroke: #cccccc; stroke-width: 0.6; stroke-linejoin: miter; stroke-linecap: square"/>
   </g>
   <g id="patch_6">
    <path d="M 45 25.92 
L 324 25.92 
" style="fill: none; stroke: #cccccc; stroke-width: 0.6; stroke-linejoin: miter; stroke-linecap: square"/>
   </g>
   <g id="PathCollection_9">
    <defs>
     <path id="C0_0_9ee4a2ac1a" d="M 0 2.5 
C 0.663008 2.5 1.29895 2.236584 1.767767 1.767767 
C 2.236584 1.29895 2.5 0.663008 2.5 -0 
C 2.5 -0.663008 2.236584 -1.29895 1.767767 -1.767767 
C 1.29895 -2.236584 0.663008 -2.5 0 -2.5 
C -0.663008 -2.5 -1.29895 -2.236584 -1.767767 -1.767767 
C -2.236584 -1.29895 -2.5 -0.663008 -2.5 0 
C -2.5 0.663008 -2.236584 1.29895 -1.767767 1.767767 
C -1.29895 2.236584 -0.663008 2.5 0 2.5 
z
"/>
    </defs>
    <g clip-path="url(#p96674a0f0c)">
     <use xlink:href="#C0_0_9ee4a2ac1a" x="58.957509" y="127.511245" style="fill: #0173b2; fill-opacity: 0.5"/>
    </g>
    <g clip-path="url(#p96674a0f0c)">
     <use xlink:href="#C0_0_9ee4a2ac1a" x="63.277991" y="132.638913" style="fill: #0173b2; fill-opacity: 0.5"/>
    </g>
    <g clip-path="url(#p96674a0f0c)">
     <use xlink:href="#C0_0_9ee4a2ac1a" x="60.727852" y="115.646809" style="fill: #0173b2; fill-opacity: 0.5"/>
    </g>
    <g clip-path="url(#p96674a0f0c)">
     <use xlink:href="#C0_0_9ee4a2ac1a" x="59.587325" y="123.069457" style="fill: #0173b2; fill-opacity: 0.5"/>
    </g>
    <g clip-path="url(#p96674a0f0c)">
     <use xlink:href="#C0_0_9ee4a2ac1a" x="60.874451" y="106.919525" style="fill: #0173b2; fill-opacity: 0.5"/>
    </g>
    <g clip-path="url(#p96674a0f0c)">
     <use xlink:href="#C0_0_9ee4a2ac1a" x="60.587617" y="146.126304" style="fill: #0173b2; fill-opacity: 0.5"/>
    </g>
    <g clip-path="url(#p96674a0f0c)">
     <use xlink:href="#C0_0_9ee4a2ac1a" x="59.183115" y="155.695761" style="fill: #0173b2; fill-opacity: 0.5"/>
    </g>
    <g clip-path="url(#p96674a0f0c)">
     <use xlink:href="#C0_0_9ee4a2ac1a" x="61.528604" y="169.183152" style="fill: #0173b2; fill-opacity: 0.5"/>
    </g>
    <g clip-path="url(#p96674a0f0c)">
     <use xlink:href="#C0_0_9ee4a2ac1a" x="60.746254" y="146.126304" style="fill: #0173b2; fill-opacity: 0.5"/>
    </g>
    <g clip-path="url(#p96674a0f0c)">
     <use xlink:href="#C0_0_9ee4a2ac1a" x="62.05892" y="146.126304" style="fill: #0173b2; fill-opacity: 0.5"/>
    </g>
    <g clip-path="url(#p96674a0f0c)">
     <use xlink:href="#C0_0_9ee4a2ac1a" x="59.135571" y="127.511245" style="fill: #0173b2; fill-opacity: 0.5"/>
    </g>
    <g clip-path="url(#p96674a0f0c)">
     <use xlink:href="#C0_0_9ee4a2ac1a" x="59.560365" y="155.695761" style="fill: #0173b2; fill-opacity: 0.5"/>
    </g>
    <g clip-path="url(#p96674a0f0c)">
     <use xlink:href="#C0_0_9ee4a2ac1a" x="64.506433" y="155.695761" style="fill: #0173b2; fill-opacity: 0.5"/>
    </g>
    <g clip-path="url(#p96674a0f0c)">
     <use xlink:href="#C0_0_9ee4a2ac1a" x="61.802925" y="123.069457" style="fill: #0173b2; fill-opacity: 0.5"/>
    </g>
    <g clip-path="url(#p96674a0f0c)">
     <use xlink:href="#C0_0_9ee4a2ac1a" x="60.683828" y="146.126304" style="fill: #0173b2; fill-opacity: 0.5"/>
    </g>
    <g clip-path="url(#p96674a0f0c)">
     <use xlink:href="#C0_0_9ee4a2ac1a" x="60.923013" y="127.511245" style="fill: #0173b2; fill-opacity: 0.5"/>
    </g>
    <g clip-path="url(#p96674a0f0c)">
     <use xlink:href="#C0_0_9ee4a2ac1a" x="60.617032" y="123.069457" style="fill: #0173b2; fill-opacity: 0.5"/>
    </g>
    <g clip-path="url(#p96674a0f0c)">
     <use xlink:href="#C0_0_9ee4a2ac1a" x="59.377394" y="146.126304" style="fill: #0173b2; fill-opacity: 0.5"/>
    </g>
    <g clip-path="url(#p96674a0f0c)">
     <use xlink:href="#C0_0_9ee4a2ac1a" x="62.505556" y="155.695761" style="fill: #0173b2; fill-opacity: 0.5"/>
    </g>
    <g clip-path="url(#p96674a0f0c)">
     <use xlink:href="#C0_0_9ee4a2ac1a" x="61.188951" y="119.151522" style="fill: #0173b2; fill-opacity: 0.5"/>
    </g>
   </g>
   <g id="PathCollection_10">
    <defs>
     <path id="C1_0_b0c5fa70f6" d="M 0 2.5 
C 0.663008 2.5 1.29895 2.236584 1.767767 1.767767 
C 2.236584 1.29895 2.5 0.663008 2.5 -0 
C 2.5 -0.663008 2.236584 -1.29895 1.767767 -1.767767 
C 1.29895 -2.236584 0.663008 -2.5 0 -2.5 
C -0.663008 -2.5 -1.29895 -2.236584 -1.767767 -1.767767 
C -2.236584 -1.29895 -2.5 -0.663008 -2.5 0 
C -2.5 0.663008 -2.236584 1.29895 -1.767767 1.767767 
C -1.29895 2.236584 -0.663008 2.5 0 2.5 
z
"/>
    </defs>
    <g clip-path="url(#p96674a0f0c)">
     <use xlink:href="#C1_0_b0c5fa70f6" x="100.178842" y="66.362716" style="fill: #de8f05; fill-opacity: 0.5"/>
    </g>
    <g clip-path="url(#p96674a0f0c)">
     <use xlink:href="#C1_0_b0c5fa70f6" x="94.135907" y="112.476412" style="fill: #de8f05; fill-opacity: 0.5"/>
    </g>
    <g clip-path="url(#p96674a0f0c)">
     <use xlink:href="#C1_0_b0c5fa70f6" x="98.663793" y="81.397549" style="fill: #de8f05; fill-opacity: 0.5"/>
    </g>
    <g clip-path="url(#p96674a0f0c)">
     <use xlink:href="#C1_0_b0c5fa70f6" x="96.072853" y="119.151522" style="fill: #de8f05; fill-opacity: 0.5"/>
    </g>
    <g clip-path="url(#p96674a0f0c)">
     <use xlink:href="#C1_0_b0c5fa70f6" x="94.876091" y="82.607282" style="fill: #de8f05; fill-opacity: 0.5"/>
    </g>
    <g clip-path="url(#p96674a0f0c)">
     <use xlink:href="#C1_0_b0c5fa70f6" x="98.730596" y="67.127439" style="fill: #de8f05; fill-opacity: 0.5"/>
    </g>
    <g clip-path="url(#p96674a0f0c)">
     <use xlink:href="#C1_0_b0c5fa70f6" x="94.165024" y="106.919525" style="fill: #de8f05; fill-opacity: 0.5"/>
    </g>
    <g clip-path="url(#p96674a0f0c)">
     <use xlink:href="#C1_0_b0c5fa70f6" x="99.409368" y="112.476412" style="fill: #de8f05; fill-opacity: 0.5"/>
    </g>
    <g clip-path="url(#p96674a0f0c)">
     <use xlink:href="#C1_0_b0c5fa70f6" x="95.125352" y="119.151522" style="fill: #de8f05; fill-opacity: 0.5"/>
    </g>
    <g clip-path="url(#p96674a0f0c)">
     <use xlink:href="#C1_0_b0c5fa70f6" x="99.391964" y="146.126304" style="fill: #de8f05; fill-opacity: 0.5"/>
    </g>
    <g clip-path="url(#p96674a0f0c)">
     <use xlink:href="#C1_0_b0c5fa70f6" x="100.211629" y="97.995991" style="fill: #de8f05; fill-opacity: 0.5"/>
    </g>
    <g clip-path="url(#p96674a0f0c)">
     <use xlink:href="#C1_0_b0c5fa70f6" x="98.199195" y="104.454397" style="fill: #de8f05; fill-opacity: 0.5"/>
    </g>
    <g clip-path="url(#p96674a0f0c)">
     <use xlink:href="#C1_0_b0c5fa70f6" x="97.547752" y="119.151522" style="fill: #de8f05; fill-opacity: 0.5"/>
    </g>
    <g clip-path="url(#p96674a0f0c)">
     <use xlink:href="#C1_0_b0c5fa70f6" x="100.325369" y="119.151522" style="fill: #de8f05; fill-opacity: 0.5"/>
    </g>
    <g clip-path="url(#p96674a0f0c)">
     <use xlink:href="#C1_0_b0c5fa70f6" x="95.543692" y="58.940069" style="fill: #de8f05; fill-opacity: 0.5"/>
    </g>
    <g clip-path="url(#p96674a0f0c)">
     <use xlink:href="#C1_0_b0c5fa70f6" x="97.771784" y="94.296182" style="fill: #de8f05; fill-opacity: 0.5"/>
    </g>
    <g clip-path="url(#p96674a0f0c)">
     <use xlink:href="#C1_0_b0c5fa70f6" x="95.887702" y="86.525217" style="fill: #de8f05; fill-opacity: 0.5"/>
    </g>
    <g clip-path="url(#p96674a0f0c)">
     <use xlink:href="#C1_0_b0c5fa70f6" x="97.669381" y="74.939144" style="fill: #de8f05; fill-opacity: 0.5"/>
    </g>
    <g clip-path="url(#p96674a0f0c)">
     <use xlink:href="#C1_0_b0c5fa70f6" x="100.669856" y="104.454397" style="fill: #de8f05; fill-opacity: 0.5"/>
    </g>
    <g clip-path="url(#p96674a0f0c)">
     <use xlink:href="#C1_0_b0c5fa70f6" x="97.256964" y="63.46837" style="fill: #de8f05; fill-opacity: 0.5"/>
    </g>
   </g>
   <g id="PathCollection_11">
    <defs>
     <path id="C2_0_2d0c70df4d" d="M 0 2.5 
C 0.663008 2.5 1.29895 2.236584 1.767767 1.767767 
C 2.236584 1.29895 2.5 0.663008 2.5 -0 
C 2.5 -0.663008 2.236584 -1.29895 1.767767 -1.767767 
C 1.29895 -2.236584 0.663008 -2.5 0 -2.5 
C -0.663008 -2.5 -1.29895 -2.236584 -1.767767 -1.767767 
C -2.236584 -1.29895 -2.5 -0.663008 -2.5 0 
C -2.5 0.663008 -2.236584 1.29895 -1.767767 1.767767 
C -1.29895 2.236584 -0.663008 2.5 0 2.5 
z
"/>
    </defs>
    <g clip-path="url(#p96674a0f0c)">
     <use xlink:href="#C2_0_2d0c70df4d" x="133.493366" y="100.012609" style="fill: #029e73; fill-opacity: 0.5"/>
    </g>
    <g clip-path="url(#p96674a0f0c)">
     <use xlink:href="#C2_0_2d0c70df4d" x="135.620418" y="102.159418" style="fill: #029e73; fill-opacity: 0.5"/>
    </g>
    <g clip-path="url(#p96674a0f0c)">
     <use xlink:href="#C2_0_2d0c70df4d" x="128.975111" y="61.451752" style="fill: #029e73; fill-opacity: 0.5"/>
    </g>
    <g clip-path="url(#p96674a0f0c)">
     <use xlink:href="#C2_0_2d0c70df4d" x="130.199392" y="119.151522" style="fill: #029e73; fill-opacity: 0.5"/>
    </g>
    <g clip-path="url(#p96674a0f0c)">
     <use xlink:href="#C2_0_2d0c70df4d" x="135.377453" y="67.910158" style="fill: #029e73; fill-opacity: 0.5"/>
    </g>
    <g clip-path="url(#p96674a0f0c)">
     <use xlink:href="#C2_0_2d0c70df4d" x="135.425204" y="132.638913" style="fill: #029e73; fill-opacity: 0.5"/>
    </g>
    <g clip-path="url(#p96674a0f0c)">
     <use xlink:href="#C2_0_2d0c70df4d" x="131.999897" y="115.646809" style="fill: #029e73; fill-opacity: 0.5"/>
    </g>
    <g clip-path="url(#p96674a0f0c)">
     <use xlink:href="#C2_0_2d0c70df4d" x="134.538608" y="138.703657" style="fill: #029e73; fill-opacity: 0.5"/>
    </g>
    <g clip-path="url(#p96674a0f0c)">
     <use xlink:href="#C2_0_2d0c70df4d" x="131.837713" y="104.454397" style="fill: #029e73; fill-opacity: 0.5"/>
    </g>
    <g clip-path="url(#p96674a0f0c)">
     <use xlink:href="#C2_0_2d0c70df4d" x="133.970466" y="112.476412" style="fill: #029e73; fill-opacity: 0.5"/>
    </g>
    <g clip-path="url(#p96674a0f0c)">
     <use xlink:href="#C2_0_2d0c70df4d" x="130.087614" y="100.012609" style="fill: #029e73; fill-opacity: 0.5"/>
    </g>
    <g clip-path="url(#p96674a0f0c)">
     <use xlink:href="#C2_0_2d0c70df4d" x="133.130928" y="112.476412" style="fill: #029e73; fill-opacity: 0.5"/>
    </g>
    <g clip-path="url(#p96674a0f0c)">
     <use xlink:href="#C2_0_2d0c70df4d" x="134.50348" y="92.589962" style="fill: #029e73; fill-opacity: 0.5"/>
    </g>
    <g clip-path="url(#p96674a0f0c)">
     <use xlink:href="#C2_0_2d0c70df4d" x="129.603285" y="119.151522" style="fill: #029e73; fill-opacity: 0.5"/>
    </g>
    <g clip-path="url(#p96674a0f0c)">
     <use xlink:href="#C2_0_2d0c70df4d" x="128.701031" y="123.069457" style="fill: #029e73; fill-opacity: 0.5"/>
    </g>
    <g clip-path="url(#p96674a0f0c)">
     <use xlink:href="#C2_0_2d0c70df4d" x="130.990677" y="123.069457" style="fill: #029e73; fill-opacity: 0.5"/>
    </g>
    <g clip-path="url(#p96674a0f0c)">
     <use xlink:href="#C2_0_2d0c70df4d" x="130.111688" y="72.126427" style="fill: #029e73; fill-opacity: 0.5"/>
    </g>
    <g clip-path="url(#p96674a0f0c)">
     <use xlink:href="#C2_0_2d0c70df4d" x="131.743225" y="132.638913" style="fill: #029e73; fill-opacity: 0.5"/>
    </g>
    <g clip-path="url(#p96674a0f0c)">
     <use xlink:href="#C2_0_2d0c70df4d" x="132.376956" y="112.476412" style="fill: #029e73; fill-opacity: 0.5"/>
    </g>
    <g clip-path="url(#p96674a0f0c)">
     <use xlink:href="#C2_0_2d0c70df4d" x="131.211175" y="115.646809" style="fill: #029e73; fill-opacity: 0.5"/>
    </g>
   </g>
   <g id="PathCollection_12">
    <defs>
     <path id="C3_0_48c2659823" d="M 0 2.5 
C 0.663008 2.5 1.29895 2.236584 1.767767 1.767767 
C 2.236584 1.29895 2.5 0.663008 2.5 -0 
C 2.5 -0.663008 2.236584 -1.29895 1.767767 -1.767767 
C 1.29895 -2.236584 0.663008 -2.5 0 -2.5 
C -0.663008 -2.5 -1.29895 -2.236584 -1.767767 -1.767767 
C -2.236584 -1.29895 -2.5 -0.663008 -2.5 0 
C -2.5 0.663008 -2.236584 1.29895 -1.767767 1.767767 
C -1.29895 2.236584 -0.663008 2.5 0 2.5 
z
"/>
    </defs>
    <g clip-path="url(#p96674a0f0c)">
     <use xlink:href="#C3_0_48c2659823" x="164.777235" y="112.476412" style="fill: #d55e00; fill-opacity: 0.5"/>
    </g>
    <g clip-path="url(#p96674a0f0c)">
     <use xlink:href="#C3_0_48c2659823" x="169.445528" y="138.703657" style="fill: #d55e00; fill-opacity: 0.5"/>
    </g>
    <g clip-path="url(#p96674a0f0c)">
     <use xlink:href="#C3_0_48c2659823" x="164.033993" y="94.296182" style="fill: #d55e00; fill-opacity: 0.5"/>
    </g>
    <g clip-path="url(#p96674a0f0c)">
     <use xlink:href="#C3_0_48c2659823" x="166.193797" y="102.159418" style="fill: #d55e00; fill-opacity: 0.5"/>
    </g>
    <g clip-path="url(#p96674a0f0c)">
     <use xlink:href="#C3_0_48c2659823" x="163.629208" y="112.476412" style="fill: #d55e00; fill-opacity: 0.5"/>
    </g>
    <g clip-path="url(#p96674a0f0c)">
     <use xlink:href="#C3_0_48c2659823" x="170.503007" y="115.646809" style="fill: #d55e00; fill-opacity: 0.5"/>
    </g>
    <g clip-path="url(#p96674a0f0c)">
     <use xlink:href="#C3_0_48c2659823" x="169.032404" y="119.151522" style="fill: #d55e00; fill-opacity: 0.5"/>
    </g>
    <g clip-path="url(#p96674a0f0c)">
     <use xlink:href="#C3_0_48c2659823" x="166.936987" y="87.94092" style="fill: #d55e00; fill-opacity: 0.5"/>
    </g>
    <g clip-path="url(#p96674a0f0c)">
     <use xlink:href="#C3_0_48c2659823" x="168.308859" y="100.012609" style="fill: #d55e00; fill-opacity: 0.5"/>
    </g>
    <g clip-path="url(#p96674a0f0c)">
     <use xlink:href="#C3_0_48c2659823" x="166.661569" y="112.476412" style="fill: #d55e00; fill-opacity: 0.5"/>
    </g>
    <g clip-path="url(#p96674a0f0c)">
     <use xlink:href="#C3_0_48c2659823" x="168.965738" y="104.454397" style="fill: #d55e00; fill-opacity: 0.5"/>
    </g>
    <g clip-path="url(#p96674a0f0c)">
     <use xlink:href="#C3_0_48c2659823" x="167.578722" y="112.476412" style="fill: #d55e00; fill-opacity: 0.5"/>
    </g>
    <g clip-path="url(#p96674a0f0c)">
     <use xlink:href="#C3_0_48c2659823" x="166.574813" y="83.862677" style="fill: #d55e00; fill-opacity: 0.5"/>
    </g>
    <g clip-path="url(#p96674a0f0c)">
     <use xlink:href="#C3_0_48c2659823" x="169.180617" y="100.012609" style="fill: #d55e00; fill-opacity: 0.5"/>
    </g>
    <g clip-path="url(#p96674a0f0c)">
     <use xlink:href="#C3_0_48c2659823" x="168.620067" y="123.069457" style="fill: #d55e00; fill-opacity: 0.5"/>
    </g>
    <g clip-path="url(#p96674a0f0c)">
     <use xlink:href="#C3_0_48c2659823" x="168.610651" y="82.607282" style="fill: #d55e00; fill-opacity: 0.5"/>
    </g>
    <g clip-path="url(#p96674a0f0c)">
     <use xlink:href="#C3_0_48c2659823" x="167.488461" y="85.167315" style="fill: #d55e00; fill-opacity: 0.5"/>
    </g>
    <g clip-path="url(#p96674a0f0c)">
     <use xlink:href="#C3_0_48c2659823" x="164.819705" y="63.46837" style="fill: #d55e00; fill-opacity: 0.5"/>
    </g>
    <g clip-path="url(#p96674a0f0c)">
     <use xlink:href="#C3_0_48c2659823" x="169.375688" y="104.454397" style="fill: #d55e00; fill-opacity: 0.5"/>
    </g>
    <g clip-path="url(#p96674a0f0c)">
     <use xlink:href="#C3_0_48c2659823" x="167.74089" y="127.511245" style="fill: #d55e00; fill-opacity: 0.5"/>
    </g>
   </g>
   <g id="PathCollection_13">
    <defs>
     <path id="C4_0_13abaab01a" d="M 0 2.5 
C 0.663008 2.5 1.29895 2.236584 1.767767 1.767767 
C 2.236584 1.29895 2.5 0.663008 2.5 -0 
C 2.5 -0.663008 2.236584 -1.29895 1.767767 -1.767767 
C 1.29895 -2.236584 0.663008 -2.5 0 -2.5 
C -0.663008 -2.5 -1.29895 -2.236584 -1.767767 -1.767767 
C -2.236584 -1.29895 -2.5 -0.663008 -2.5 0 
C -2.5 0.663008 -2.236584 1.29895 -1.767767 1.767767 
C -1.29895 2.236584 -0.663008 2.5 0 2.5 
z
"/>
    </defs>
    <g clip-path="url(#p96674a0f0c)">
     <use xlink:href="#C4_0_13abaab01a" x="199.269197" y="54.955002" style="fill: #cc78bc; fill-opacity: 0.5"/>
    </g>
    <g clip-path="url(#p96674a0f0c)">
     <use xlink:href="#C4_0_13abaab01a" x="200.567523" y="68.711739" style="fill: #cc78bc; fill-opacity: 0.5"/>
    </g>
    <g clip-path="url(#p96674a0f0c)">
     <use xlink:href="#C4_0_13abaab01a" x="203.019175" y="90.967006" style="fill: #cc78bc; fill-opacity: 0.5"/>
    </g>
    <g clip-path="url(#p96674a0f0c)">
     <use xlink:href="#C4_0_13abaab01a" x="202.268004" y="112.476412" style="fill: #cc78bc; fill-opacity: 0.5"/>
    </g>
    <g clip-path="url(#p96674a0f0c)">
     <use xlink:href="#C4_0_13abaab01a" x="200.083843" y="74.939144" style="fill: #cc78bc; fill-opacity: 0.5"/>
    </g>
    <g clip-path="url(#p96674a0f0c)">
     <use xlink:href="#C4_0_13abaab01a" x="200.020481" y="63.46837" style="fill: #cc78bc; fill-opacity: 0.5"/>
    </g>
    <g clip-path="url(#p96674a0f0c)">
     <use xlink:href="#C4_0_13abaab01a" x="199.135511" y="104.454397" style="fill: #cc78bc; fill-opacity: 0.5"/>
    </g>
    <g clip-path="url(#p96674a0f0c)">
     <use xlink:href="#C4_0_13abaab01a" x="203.894911" y="112.476412" style="fill: #cc78bc; fill-opacity: 0.5"/>
    </g>
    <g clip-path="url(#p96674a0f0c)">
     <use xlink:href="#C4_0_13abaab01a" x="199.323123" y="106.919525" style="fill: #cc78bc; fill-opacity: 0.5"/>
    </g>
    <g clip-path="url(#p96674a0f0c)">
     <use xlink:href="#C4_0_13abaab01a" x="204.707017" y="109.582065" style="fill: #cc78bc; fill-opacity: 0.5"/>
    </g>
    <g clip-path="url(#p96674a0f0c)">
     <use xlink:href="#C4_0_13abaab01a" x="204.623282" y="86.525217" style="fill: #cc78bc; fill-opacity: 0.5"/>
    </g>
    <g clip-path="url(#p96674a0f0c)">
     <use xlink:href="#C4_0_13abaab01a" x="200.245423" y="65.615179" style="fill: #cc78bc; fill-opacity: 0.5"/>
    </g>
    <g clip-path="url(#p96674a0f0c)">
     <use xlink:href="#C4_0_13abaab01a" x="203.457842" y="80.230272" style="fill: #cc78bc; fill-opacity: 0.5"/>
    </g>
    <g clip-path="url(#p96674a0f0c)">
     <use xlink:href="#C4_0_13abaab01a" x="202.179425" y="109.582065" style="fill: #cc78bc; fill-opacity: 0.5"/>
    </g>
    <g clip-path="url(#p96674a0f0c)">
     <use xlink:href="#C4_0_13abaab01a" x="201.11717" y="71.239334" style="fill: #cc78bc; fill-opacity: 0.5"/>
    </g>
    <g clip-path="url(#p96674a0f0c)">
     <use xlink:href="#C4_0_13abaab01a" x="200.521448" y="76.955761" style="fill: #cc78bc; fill-opacity: 0.5"/>
    </g>
    <g clip-path="url(#p96674a0f0c)">
     <use xlink:href="#C4_0_13abaab01a" x="203.86238" y="102.159418" style="fill: #cc78bc; fill-opacity: 0.5"/>
    </g>
    <g clip-path="url(#p96674a0f0c)">
     <use xlink:href="#C4_0_13abaab01a" x="201.166163" y="115.646809" style="fill: #cc78bc; fill-opacity: 0.5"/>
    </g>
    <g clip-path="url(#p96674a0f0c)">
     <use xlink:href="#C4_0_13abaab01a" x="198.930832" y="73.037826" style="fill: #cc78bc; fill-opacity: 0.5"/>
    </g>
    <g clip-path="url(#p96674a0f0c)">
     <use xlink:href="#C4_0_13abaab01a" x="205.292953" y="74.939144" style="fill: #cc78bc; fill-opacity: 0.5"/>
    </g>
   </g>
   <g id="PathCollection_14">
    <defs>
     <path id="C5_0_3a223cdbdf" d="M 0 2.5 
C 0.663008 2.5 1.29895 2.236584 1.767767 1.767767 
C 2.236584 1.29895 2.5 0.663008 2.5 -0 
C 2.5 -0.663008 2.236584 -1.29895 1.767767 -1.767767 
C 1.29895 -2.236584 0.663008 -2.5 0 -2.5 
C -0.663008 -2.5 -1.29895 -2.236584 -1.767767 -1.767767 
C -2.236584 -1.29895 -2.5 -0.663008 -2.5 0 
C -2.5 0.663008 -2.236584 1.29895 -1.767767 1.767767 
C -1.29895 2.236584 -0.663008 2.5 0 2.5 
z
"/>
    </defs>
    <g clip-path="url(#p96674a0f0c)">
     <use xlink:href="#C5_0_3a223cdbdf" x="239.708222" y="87.94092" style="fill: #ca9161; fill-opacity: 0.5"/>
    </g>
    <g clip-path="url(#p96674a0f0c)">
     <use xlink:href="#C5_0_3a223cdbdf" x="237.86651" y="97.995991" style="fill: #ca9161; fill-opacity: 0.5"/>
    </g>
    <g clip-path="url(#p96674a0f0c)">
     <use xlink:href="#C5_0_3a223cdbdf" x="234.080498" y="112.476412" style="fill: #ca9161; fill-opacity: 0.5"/>
    </g>
    <g clip-path="url(#p96674a0f0c)">
     <use xlink:href="#C5_0_3a223cdbdf" x="236.255932" y="90.967006" style="fill: #ca9161; fill-opacity: 0.5"/>
    </g>
    <g clip-path="url(#p96674a0f0c)">
     <use xlink:href="#C5_0_3a223cdbdf" x="234.660992" y="85.167315" style="fill: #ca9161; fill-opacity: 0.5"/>
    </g>
    <g clip-path="url(#p96674a0f0c)">
     <use xlink:href="#C5_0_3a223cdbdf" x="238.1532" y="97.995991" style="fill: #ca9161; fill-opacity: 0.5"/>
    </g>
    <g clip-path="url(#p96674a0f0c)">
     <use xlink:href="#C5_0_3a223cdbdf" x="233.799758" y="106.919525" style="fill: #ca9161; fill-opacity: 0.5"/>
    </g>
    <g clip-path="url(#p96674a0f0c)">
     <use xlink:href="#C5_0_3a223cdbdf" x="237.444209" y="94.296182" style="fill: #ca9161; fill-opacity: 0.5"/>
    </g>
    <g clip-path="url(#p96674a0f0c)">
     <use xlink:href="#C5_0_3a223cdbdf" x="235.539517" y="115.646809" style="fill: #ca9161; fill-opacity: 0.5"/>
    </g>
    <g clip-path="url(#p96674a0f0c)">
     <use xlink:href="#C5_0_3a223cdbdf" x="233.979809" y="106.919525" style="fill: #ca9161; fill-opacity: 0.5"/>
    </g>
    <g clip-path="url(#p96674a0f0c)">
     <use xlink:href="#C5_0_3a223cdbdf" x="235.346244" y="85.167315" style="fill: #ca9161; fill-opacity: 0.5"/>
    </g>
    <g clip-path="url(#p96674a0f0c)">
     <use xlink:href="#C5_0_3a223cdbdf" x="239.123669" y="94.296182" style="fill: #ca9161; fill-opacity: 0.5"/>
    </g>
    <g clip-path="url(#p96674a0f0c)">
     <use xlink:href="#C5_0_3a223cdbdf" x="239.722433" y="115.646809" style="fill: #ca9161; fill-opacity: 0.5"/>
    </g>
    <g clip-path="url(#p96674a0f0c)">
     <use xlink:href="#C5_0_3a223cdbdf" x="239.139644" y="89.419564" style="fill: #ca9161; fill-opacity: 0.5"/>
    </g>
    <g clip-path="url(#p96674a0f0c)">
     <use xlink:href="#C5_0_3a223cdbdf" x="235.033367" y="102.159418" style="fill: #ca9161; fill-opacity: 0.5"/>
    </g>
    <g clip-path="url(#p96674a0f0c)">
     <use xlink:href="#C5_0_3a223cdbdf" x="233.489785" y="115.646809" style="fill: #ca9161; fill-opacity: 0.5"/>
    </g>
    <g clip-path="url(#p96674a0f0c)">
     <use xlink:href="#C5_0_3a223cdbdf" x="239.800329" y="119.151522" style="fill: #ca9161; fill-opacity: 0.5"/>
    </g>
    <g clip-path="url(#p96674a0f0c)">
     <use xlink:href="#C5_0_3a223cdbdf" x="233.45921" y="100.012609" style="fill: #ca9161; fill-opacity: 0.5"/>
    </g>
    <g clip-path="url(#p96674a0f0c)">
     <use xlink:href="#C5_0_3a223cdbdf" x="239.512686" y="106.919525" style="fill: #ca9161; fill-opacity: 0.5"/>
    </g>
    <g clip-path="url(#p96674a0f0c)">
     <use xlink:href="#C5_0_3a223cdbdf" x="238.030256" y="115.646809" style="fill: #ca9161; fill-opacity: 0.5"/>
    </g>
   </g>
   <g id="PathCollection_15">
    <defs>
     <path id="C6_0_e57e4275b2" d="M 0 2.5 
C 0.663008 2.5 1.29895 2.236584 1.767767 1.767767 
C 2.236584 1.29895 2.5 0.663008 2.5 -0 
C 2.5 -0.663008 2.236584 -1.29895 1.767767 -1.767767 
C 1.29895 -2.236584 0.663008 -2.5 0 -2.5 
C -0.663008 -2.5 -1.29895 -2.236584 -1.767767 -1.767767 
C -2.236584 -1.29895 -2.5 -0.663008 -2.5 0 
C -2.5 0.663008 -2.236584 1.29895 -1.767767 1.767767 
C -1.29895 2.236584 -0.663008 2.5 0 2.5 
z
"/>
    </defs>
    <g clip-path="url(#p96674a0f0c)">
     <use xlink:href="#C6_0_e57e4275b2" x="274.131284" y="71.239334" style="fill: #fbafe4; fill-opacity: 0.5"/>
    </g>
    <g clip-path="url(#p96674a0f0c)">
     <use xlink:href="#C6_0_e57e4275b2" x="272.201893" y="79.10257" style="fill: #fbafe4; fill-opacity: 0.5"/>
    </g>
    <g clip-path="url(#p96674a0f0c)">
     <use xlink:href="#C6_0_e57e4275b2" x="272.366743" y="53.383182" style="fill: #fbafe4; fill-opacity: 0.5"/>
    </g>
    <g clip-path="url(#p96674a0f0c)">
     <use xlink:href="#C6_0_e57e4275b2" x="272.554874" y="69.533114" style="fill: #fbafe4; fill-opacity: 0.5"/>
    </g>
    <g clip-path="url(#p96674a0f0c)">
     <use xlink:href="#C6_0_e57e4275b2" x="271.669726" y="86.525217" style="fill: #fbafe4; fill-opacity: 0.5"/>
    </g>
    <g clip-path="url(#p96674a0f0c)">
     <use xlink:href="#C6_0_e57e4275b2" x="274.269254" y="89.419564" style="fill: #fbafe4; fill-opacity: 0.5"/>
    </g>
    <g clip-path="url(#p96674a0f0c)">
     <use xlink:href="#C6_0_e57e4275b2" x="272.800717" y="86.525217" style="fill: #fbafe4; fill-opacity: 0.5"/>
    </g>
    <g clip-path="url(#p96674a0f0c)">
     <use xlink:href="#C6_0_e57e4275b2" x="268.851708" y="92.589962" style="fill: #fbafe4; fill-opacity: 0.5"/>
    </g>
    <g clip-path="url(#p96674a0f0c)">
     <use xlink:href="#C6_0_e57e4275b2" x="273.018979" y="100.012609" style="fill: #fbafe4; fill-opacity: 0.5"/>
    </g>
    <g clip-path="url(#p96674a0f0c)">
     <use xlink:href="#C6_0_e57e4275b2" x="273.57818" y="92.589962" style="fill: #fbafe4; fill-opacity: 0.5"/>
    </g>
    <g clip-path="url(#p96674a0f0c)">
     <use xlink:href="#C6_0_e57e4275b2" x="268.206473" y="132.638913" style="fill: #fbafe4; fill-opacity: 0.5"/>
    </g>
    <g clip-path="url(#p96674a0f0c)">
     <use xlink:href="#C6_0_e57e4275b2" x="274.700173" y="81.397549" style="fill: #fbafe4; fill-opacity: 0.5"/>
    </g>
    <g clip-path="url(#p96674a0f0c)">
     <use xlink:href="#C6_0_e57e4275b2" x="274.392597" y="100.012609" style="fill: #fbafe4; fill-opacity: 0.5"/>
    </g>
    <g clip-path="url(#p96674a0f0c)">
     <use xlink:href="#C6_0_e57e4275b2" x="274.285376" y="127.511245" style="fill: #fbafe4; fill-opacity: 0.5"/>
    </g>
    <g clip-path="url(#p96674a0f0c)">
     <use xlink:href="#C6_0_e57e4275b2" x="270.695418" y="89.419564" style="fill: #fbafe4; fill-opacity: 0.5"/>
    </g>
    <g clip-path="url(#p96674a0f0c)">
     <use xlink:href="#C6_0_e57e4275b2" x="271.705558" y="75.932172" style="fill: #fbafe4; fill-opacity: 0.5"/>
    </g>
    <g clip-path="url(#p96674a0f0c)">
     <use xlink:href="#C6_0_e57e4275b2" x="273.15664" y="119.151522" style="fill: #fbafe4; fill-opacity: 0.5"/>
    </g>
    <g clip-path="url(#p96674a0f0c)">
     <use xlink:href="#C6_0_e57e4275b2" x="269.211079" y="86.525217" style="fill: #fbafe4; fill-opacity: 0.5"/>
    </g>
    <g clip-path="url(#p96674a0f0c)">
     <use xlink:href="#C6_0_e57e4275b2" x="273.986989" y="100.012609" style="fill: #fbafe4; fill-opacity: 0.5"/>
    </g>
    <g clip-path="url(#p96674a0f0c)">
     <use xlink:href="#C6_0_e57e4275b2" x="269.68651" y="96.094674" style="fill: #fbafe4; fill-opacity: 0.5"/>
    </g>
   </g>
   <g id="PathCollection_16">
    <defs>
     <path id="C7_0_6ebd2b6a58" d="M 0 2.5 
C 0.663008 2.5 1.29895 2.236584 1.767767 1.767767 
C 2.236584 1.29895 2.5 0.663008 2.5 -0 
C 2.5 -0.663008 2.236584 -1.29895 1.767767 -1.767767 
C 1.29895 -2.236584 0.663008 -2.5 0 -2.5 
C -0.663008 -2.5 -1.29895 -2.236584 -1.767767 -1.767767 
C -2.236584 -1.29895 -2.5 -0.663008 -2.5 0 
C -2.5 0.663008 -2.236584 1.29895 -1.767767 1.767767 
C -1.29895 2.236584 -0.663008 2.5 0 2.5 
z
"/>
    </defs>
    <g clip-path="url(#p96674a0f0c)">
     <use xlink:href="#C7_0_6ebd2b6a58" x="307.4044" y="80.230272" style="fill: #949494; fill-opacity: 0.5"/>
    </g>
    <g clip-path="url(#p96674a0f0c)">
     <use xlink:href="#C7_0_6ebd2b6a58" x="308.252856" y="85.167315" style="fill: #949494; fill-opacity: 0.5"/>
    </g>
    <g clip-path="url(#p96674a0f0c)">
     <use xlink:href="#C7_0_6ebd2b6a58" x="305.528062" y="58.940069" style="fill: #949494; fill-opacity: 0.5"/>
    </g>
    <g clip-path="url(#p96674a0f0c)">
     <use xlink:href="#C7_0_6ebd2b6a58" x="306.995131" y="85.167315" style="fill: #949494; fill-opacity: 0.5"/>
    </g>
    <g clip-path="url(#p96674a0f0c)">
     <use xlink:href="#C7_0_6ebd2b6a58" x="304.023297" y="90.967006" style="fill: #949494; fill-opacity: 0.5"/>
    </g>
    <g clip-path="url(#p96674a0f0c)">
     <use xlink:href="#C7_0_6ebd2b6a58" x="303.203634" y="87.94092" style="fill: #949494; fill-opacity: 0.5"/>
    </g>
    <g clip-path="url(#p96674a0f0c)">
     <use xlink:href="#C7_0_6ebd2b6a58" x="303.102489" y="73.974902" style="fill: #949494; fill-opacity: 0.5"/>
    </g>
    <g clip-path="url(#p96674a0f0c)">
     <use xlink:href="#C7_0_6ebd2b6a58" x="308.354174" y="102.159418" style="fill: #949494; fill-opacity: 0.5"/>
    </g>
    <g clip-path="url(#p96674a0f0c)">
     <use xlink:href="#C7_0_6ebd2b6a58" x="307.462988" y="104.454397" style="fill: #949494; fill-opacity: 0.5"/>
    </g>
    <g clip-path="url(#p96674a0f0c)">
     <use xlink:href="#C7_0_6ebd2b6a58" x="303.296164" y="112.476412" style="fill: #949494; fill-opacity: 0.5"/>
    </g>
    <g clip-path="url(#p96674a0f0c)">
     <use xlink:href="#C7_0_6ebd2b6a58" x="307.495773" y="104.454397" style="fill: #949494; fill-opacity: 0.5"/>
    </g>
    <g clip-path="url(#p96674a0f0c)">
     <use xlink:href="#C7_0_6ebd2b6a58" x="309.933061" y="67.910158" style="fill: #949494; fill-opacity: 0.5"/>
    </g>
    <g clip-path="url(#p96674a0f0c)">
     <use xlink:href="#C7_0_6ebd2b6a58" x="303.792541" y="76.955761" style="fill: #949494; fill-opacity: 0.5"/>
    </g>
    <g clip-path="url(#p96674a0f0c)">
     <use xlink:href="#C7_0_6ebd2b6a58" x="309.915082" y="119.151522" style="fill: #949494; fill-opacity: 0.5"/>
    </g>
    <g clip-path="url(#p96674a0f0c)">
     <use xlink:href="#C7_0_6ebd2b6a58" x="306.231549" y="85.167315" style="fill: #949494; fill-opacity: 0.5"/>
    </g>
    <g clip-path="url(#p96674a0f0c)">
     <use xlink:href="#C7_0_6ebd2b6a58" x="303.190083" y="102.159418" style="fill: #949494; fill-opacity: 0.5"/>
    </g>
    <g clip-path="url(#p96674a0f0c)">
     <use xlink:href="#C7_0_6ebd2b6a58" x="303.188517" y="96.094674" style="fill: #949494; fill-opacity: 0.5"/>
    </g>
    <g clip-path="url(#p96674a0f0c)">
     <use xlink:href="#C7_0_6ebd2b6a58" x="304.463215" y="97.995991" style="fill: #949494; fill-opacity: 0.5"/>
    </g>
    <g clip-path="url(#p96674a0f0c)">
     <use xlink:href="#C7_0_6ebd2b6a58" x="306.555868" y="83.862677" style="fill: #949494; fill-opacity: 0.5"/>
    </g>
    <g clip-path="url(#p96674a0f0c)">
     <use xlink:href="#C7_0_6ebd2b6a58" x="304.859679" y="87.94092" style="fill: #949494; fill-opacity: 0.5"/>
    </g>
   </g>
   <g id="PathCollection_17">
    <defs>
     <path id="m54625df4cf" d="M 0 1.5 
C 0.397805 1.5 0.77937 1.341951 1.06066 1.06066 
C 1.341951 0.77937 1.5 0.397805 1.5 0 
C 1.5 -0.397805 1.341951 -0.77937 1.06066 -1.06066 
C 0.77937 -1.341951 0.397805 -1.5 0 -1.5 
C -0.397805 -1.5 -0.77937 -1.341951 -1.06066 -1.06066 
C -1.341951 -0.77937 -1.5 -0.397805 -1.5 0 
C -1.5 0.397805 -1.341951 0.77937 -1.06066 1.06066 
C -0.77937 1.341951 -0.397805 1.5 0 1.5 
z
" style="stroke: #999999"/>
    </defs>
    <g clip-path="url(#p96674a0f0c)">
     <use xlink:href="#m54625df4cf" x="62.4375" y="139.382609" style="fill: #ffffff; stroke: #999999"/>
    </g>
   </g>
   <g id="PathCollection_18">
    <g clip-path="url(#p96674a0f0c)">
     <use xlink:href="#m54625df4cf" x="97.3125" y="101.225194" style="fill: #ffffff; stroke: #999999"/>
    </g>
   </g>
   <g id="PathCollection_19">
    <g clip-path="url(#p96674a0f0c)">
     <use xlink:href="#m54625df4cf" x="132.1875" y="112.476412" style="fill: #ffffff; stroke: #999999"/>
    </g>
   </g>
   <g id="PathCollection_20">
    <g clip-path="url(#p96674a0f0c)">
     <use xlink:href="#m54625df4cf" x="167.0625" y="104.454397" style="fill: #ffffff; stroke: #999999"/>
    </g>
   </g>
   <g id="PathCollection_21">
    <g clip-path="url(#p96674a0f0c)">
     <use xlink:href="#m54625df4cf" x="201.9375" y="83.377744" style="fill: #ffffff; stroke: #999999"/>
    </g>
   </g>
   <g id="PathCollection_22">
    <g clip-path="url(#p96674a0f0c)">
     <use xlink:href="#m54625df4cf" x="236.8125" y="101.086013" style="fill: #ffffff; stroke: #999999"/>
    </g>
   </g>
   <g id="PathCollection_23">
    <g clip-path="url(#p96674a0f0c)">
     <use xlink:href="#m54625df4cf" x="271.6875" y="89.419564" style="fill: #ffffff; stroke: #999999"/>
    </g>
   </g>
   <g id="PathCollection_24">
    <g clip-path="url(#p96674a0f0c)">
     <use xlink:href="#m54625df4cf" x="306.5625" y="87.94092" style="fill: #ffffff; stroke: #999999"/>
    </g>
   </g>
  </g>
 </g>
 <defs>
  <clipPath id="p96674a0f0c">
   <rect x="45" y="25.92" width="279" height="166.32"/>
  </clipPath>
 </defs>
</svg>
