<?xml version="1.0" encoding="utf-8" standalone="no"?>
<!DOCTYPE svg PUBLIC "-//W3C//DTD SVG 1.1//EN"
  "http://www.w3.org/Graphics/SVG/1.1/DTD/svg11.dtd">
<svg xmlns:xlink="http://www.w3.org/1999/xlink" width="720pt" height="216pt" viewBox="0 0 720 216" xmlns="http://www.w3.org/2000/svg" version="1.1">
 <metadata>
  <rdf:RDF xmlns:dc="http://purl.org/dc/elements/1.1/" xmlns:cc="http://creativecommons.org/ns#" xmlns:rdf="http://www.w3.org/1999/02/22-rdf-syntax-ns#">
   <cc:Work>
    <dc:type rdf:resource="http://purl.org/dc/dcmitype/StillImage"/>
    <dc:date>2022-12-12T23:25:15.645449</dc:date>
    <dc:format>image/svg+xml</dc:format>
    <dc:creator>
     <cc:Agent>
      <dc:title>Matplotlib v3.6.2, https://matplotlib.org/</dc:title>
     </cc:Agent>
    </dc:creator>
   </cc:Work>
  </rdf:RDF>
 </metadata>
 <defs>
  <style type="text/css">*{stroke-linejoin: round; stroke-linecap: butt}</style>
 </defs>
 <g id="figure_1">
  <g id="patch_1">
   <path d="M 0 216 
L 720 216 
L 720 0 
L 0 0 
z
" style="fill: #ffffff"/>
  </g>
  <g id="axes_1">
   <g id="patch_2">
    <path d="M 90 192.24 
L 343.636364 192.24 
L 343.636364 25.92 
L 90 25.92 
z
" style="fill: #ffffff"/>
   </g>
   <g id="matplotlib.axis_1">
    <g id="xtick_1">
     <g id="text_1">
      <!-- 0uM -->
      <g style="fill: #262626" transform="translate(98.375762 212.763031) scale(0.154 -0.154)">
       <defs>
        <path id="ArialMT-30" d="M 266 2259 
Q 266 3072 433 3567 
Q 600 4063 929 4331 
Q 1259 4600 1759 4600 
Q 2128 4600 2406 4451 
Q 2684 4303 2865 4023 
Q 3047 3744 3150 3342 
Q 3253 2941 3253 2259 
Q 3253 1453 3087 958 
Q 2922 463 2592 192 
Q 2263 -78 1759 -78 
Q 1097 -78 719 397 
Q 266 969 266 2259 
z
M 844 2259 
Q 844 1131 1108 757 
Q 1372 384 1759 384 
Q 2147 384 2411 759 
Q 2675 1134 2675 2259 
Q 2675 3391 2411 3762 
Q 2147 4134 1753 4134 
Q 1366 4134 1134 3806 
Q 844 3388 844 2259 
z
" transform="scale(0.015625)"/>
        <path id="ArialMT-75" d="M 2597 0 
L 2597 488 
Q 2209 -75 1544 -75 
Q 1250 -75 995 37 
Q 741 150 617 320 
Q 494 491 444 738 
Q 409 903 409 1263 
L 409 3319 
L 972 3319 
L 972 1478 
Q 972 1038 1006 884 
Q 1059 663 1231 536 
Q 1403 409 1656 409 
Q 1909 409 2131 539 
Q 2353 669 2445 892 
Q 2538 1116 2538 1541 
L 2538 3319 
L 3100 3319 
L 3100 0 
L 2597 0 
z
" transform="scale(0.015625)"/>
        <path id="ArialMT-4d" d="M 475 0 
L 475 4581 
L 1388 4581 
L 2472 1338 
Q 2622 884 2691 659 
Q 2769 909 2934 1394 
L 4031 4581 
L 4847 4581 
L 4847 0 
L 4263 0 
L 4263 3834 
L 2931 0 
L 2384 0 
L 1059 3900 
L 1059 0 
L 475 0 
z
" transform="scale(0.015625)"/>
       </defs>
       <use xlink:href="#ArialMT-30"/>
       <use xlink:href="#ArialMT-75" x="55.615234"/>
       <use xlink:href="#ArialMT-4d" x="111.230469"/>
      </g>
     </g>
    </g>
    <g id="xtick_2">
     <g id="text_2">
      <!-- 0.5uM -->
      <g style="fill: #262626" transform="translate(121.516031 212.763031) scale(0.154 -0.154)">
       <defs>
        <path id="ArialMT-2e" d="M 581 0 
L 581 641 
L 1222 641 
L 1222 0 
L 581 0 
z
" transform="scale(0.015625)"/>
        <path id="ArialMT-35" d="M 266 1200 
L 856 1250 
Q 922 819 1161 601 
Q 1400 384 1738 384 
Q 2144 384 2425 690 
Q 2706 997 2706 1503 
Q 2706 1984 2436 2262 
Q 2166 2541 1728 2541 
Q 1456 2541 1237 2417 
Q 1019 2294 894 2097 
L 366 2166 
L 809 4519 
L 3088 4519 
L 3088 3981 
L 1259 3981 
L 1013 2750 
Q 1425 3038 1878 3038 
Q 2478 3038 2890 2622 
Q 3303 2206 3303 1553 
Q 3303 931 2941 478 
Q 2500 -78 1738 -78 
Q 1113 -78 717 272 
Q 322 622 266 1200 
z
" transform="scale(0.015625)"/>
       </defs>
       <use xlink:href="#ArialMT-30"/>
       <use xlink:href="#ArialMT-2e" x="55.615234"/>
       <use xlink:href="#ArialMT-35" x="83.398438"/>
       <use xlink:href="#ArialMT-75" x="139.013672"/>
       <use xlink:href="#ArialMT-4d" x="194.628906"/>
      </g>
     </g>
    </g>
    <g id="xtick_3">
     <g id="text_3">
      <!-- 1uM -->
      <g style="fill: #262626" transform="translate(157.498457 212.763031) scale(0.154 -0.154)">
       <defs>
        <path id="ArialMT-31" d="M 2384 0 
L 1822 0 
L 1822 3584 
Q 1619 3391 1289 3197 
Q 959 3003 697 2906 
L 697 3450 
Q 1169 3672 1522 3987 
Q 1875 4303 2022 4600 
L 2384 4600 
L 2384 0 
z
" transform="scale(0.015625)"/>
       </defs>
       <use xlink:href="#ArialMT-31"/>
       <use xlink:href="#ArialMT-75" x="55.615234"/>
       <use xlink:href="#ArialMT-4d" x="111.230469"/>
      </g>
     </g>
    </g>
    <g id="xtick_4">
     <g id="text_4">
      <!-- 2uM -->
      <g style="fill: #262626" transform="translate(187.059805 212.763031) scale(0.154 -0.154)">
       <defs>
        <path id="ArialMT-32" d="M 3222 541 
L 3222 0 
L 194 0 
Q 188 203 259 391 
Q 375 700 629 1000 
Q 884 1300 1366 1694 
Q 2113 2306 2375 2664 
Q 2638 3022 2638 3341 
Q 2638 3675 2398 3904 
Q 2159 4134 1775 4134 
Q 1369 4134 1125 3890 
Q 881 3647 878 3216 
L 300 3275 
Q 359 3922 746 4261 
Q 1134 4600 1788 4600 
Q 2447 4600 2831 4234 
Q 3216 3869 3216 3328 
Q 3216 3053 3103 2787 
Q 2991 2522 2730 2228 
Q 2469 1934 1863 1422 
Q 1356 997 1212 845 
Q 1069 694 975 541 
L 3222 541 
z
" transform="scale(0.015625)"/>
       </defs>
       <use xlink:href="#ArialMT-32"/>
       <use xlink:href="#ArialMT-75" x="55.615234"/>
       <use xlink:href="#ArialMT-4d" x="111.230469"/>
      </g>
     </g>
    </g>
    <g id="xtick_5">
     <g id="text_5">
      <!-- 4uM -->
      <g style="fill: #262626" transform="translate(216.621153 212.763031) scale(0.154 -0.154)">
       <defs>
        <path id="ArialMT-34" d="M 2069 0 
L 2069 1097 
L 81 1097 
L 81 1613 
L 2172 4581 
L 2631 4581 
L 2631 1613 
L 3250 1613 
L 3250 1097 
L 2631 1097 
L 2631 0 
L 2069 0 
z
M 2069 1613 
L 2069 3678 
L 634 1613 
L 2069 1613 
z
" transform="scale(0.015625)"/>
       </defs>
       <use xlink:href="#ArialMT-34"/>
       <use xlink:href="#ArialMT-75" x="55.615234"/>
       <use xlink:href="#ArialMT-4d" x="111.230469"/>
      </g>
     </g>
    </g>
    <g id="xtick_6">
     <g id="text_6">
      <!-- 8uM -->
      <g style="fill: #262626" transform="translate(246.1825 212.763031) scale(0.154 -0.154)">
       <defs>
        <path id="ArialMT-38" d="M 1131 2484 
Q 781 2613 612 2850 
Q 444 3088 444 3419 
Q 444 3919 803 4259 
Q 1163 4600 1759 4600 
Q 2359 4600 2725 4251 
Q 3091 3903 3091 3403 
Q 3091 3084 2923 2848 
Q 2756 2613 2416 2484 
Q 2838 2347 3058 2040 
Q 3278 1734 3278 1309 
Q 3278 722 2862 322 
Q 2447 -78 1769 -78 
Q 1091 -78 675 323 
Q 259 725 259 1325 
Q 259 1772 486 2073 
Q 713 2375 1131 2484 
z
M 1019 3438 
Q 1019 3113 1228 2906 
Q 1438 2700 1772 2700 
Q 2097 2700 2305 2904 
Q 2513 3109 2513 3406 
Q 2513 3716 2298 3927 
Q 2084 4138 1766 4138 
Q 1444 4138 1231 3931 
Q 1019 3725 1019 3438 
z
M 838 1322 
Q 838 1081 952 856 
Q 1066 631 1291 507 
Q 1516 384 1775 384 
Q 2178 384 2440 643 
Q 2703 903 2703 1303 
Q 2703 1709 2433 1975 
Q 2163 2241 1756 2241 
Q 1359 2241 1098 1978 
Q 838 1716 838 1322 
z
" transform="scale(0.015625)"/>
       </defs>
       <use xlink:href="#ArialMT-38"/>
       <use xlink:href="#ArialMT-75" x="55.615234"/>
       <use xlink:href="#ArialMT-4d" x="111.230469"/>
      </g>
     </g>
    </g>
    <g id="xtick_7">
     <g id="text_7">
      <!-- 16uM -->
      <g style="fill: #262626" transform="translate(271.461926 212.763031) scale(0.154 -0.154)">
       <defs>
        <path id="ArialMT-36" d="M 3184 3459 
L 2625 3416 
Q 2550 3747 2413 3897 
Q 2184 4138 1850 4138 
Q 1581 4138 1378 3988 
Q 1113 3794 959 3422 
Q 806 3050 800 2363 
Q 1003 2672 1297 2822 
Q 1591 2972 1913 2972 
Q 2475 2972 2870 2558 
Q 3266 2144 3266 1488 
Q 3266 1056 3080 686 
Q 2894 316 2569 119 
Q 2244 -78 1831 -78 
Q 1128 -78 684 439 
Q 241 956 241 2144 
Q 241 3472 731 4075 
Q 1159 4600 1884 4600 
Q 2425 4600 2770 4297 
Q 3116 3994 3184 3459 
z
M 888 1484 
Q 888 1194 1011 928 
Q 1134 663 1356 523 
Q 1578 384 1822 384 
Q 2178 384 2434 671 
Q 2691 959 2691 1453 
Q 2691 1928 2437 2201 
Q 2184 2475 1800 2475 
Q 1419 2475 1153 2201 
Q 888 1928 888 1484 
z
" transform="scale(0.015625)"/>
       </defs>
       <use xlink:href="#ArialMT-31"/>
       <use xlink:href="#ArialMT-36" x="55.615234"/>
       <use xlink:href="#ArialMT-75" x="111.230469"/>
       <use xlink:href="#ArialMT-4d" x="166.845703"/>
      </g>
     </g>
    </g>
    <g id="xtick_8">
     <g id="text_8">
      <!-- 32uM -->
      <g style="fill: #262626" transform="translate(301.023274 212.763031) scale(0.154 -0.154)">
       <defs>
        <path id="ArialMT-33" d="M 269 1209 
L 831 1284 
Q 928 806 1161 595 
Q 1394 384 1728 384 
Q 2125 384 2398 659 
Q 2672 934 2672 1341 
Q 2672 1728 2419 1979 
Q 2166 2231 1775 2231 
Q 1616 2231 1378 2169 
L 1441 2663 
Q 1497 2656 1531 2656 
Q 1891 2656 2178 2843 
Q 2466 3031 2466 3422 
Q 2466 3731 2256 3934 
Q 2047 4138 1716 4138 
Q 1388 4138 1169 3931 
Q 950 3725 888 3313 
L 325 3413 
Q 428 3978 793 4289 
Q 1159 4600 1703 4600 
Q 2078 4600 2393 4439 
Q 2709 4278 2876 4000 
Q 3044 3722 3044 3409 
Q 3044 3113 2884 2869 
Q 2725 2625 2413 2481 
Q 2819 2388 3044 2092 
Q 3269 1797 3269 1353 
Q 3269 753 2831 336 
Q 2394 -81 1725 -81 
Q 1122 -81 723 278 
Q 325 638 269 1209 
z
" transform="scale(0.015625)"/>
       </defs>
       <use xlink:href="#ArialMT-33"/>
       <use xlink:href="#ArialMT-32" x="55.615234"/>
       <use xlink:href="#ArialMT-75" x="111.230469"/>
       <use xlink:href="#ArialMT-4d" x="166.845703"/>
      </g>
     </g>
    </g>
    <g id="text_9">
     <!-- CX-4945 Concentration -->
     <g style="fill: #262626" transform="translate(129.038182 231.848906) scale(0.168 -0.168)">
      <defs>
       <path id="ArialMT-43" d="M 3763 1606 
L 4369 1453 
Q 4178 706 3683 314 
Q 3188 -78 2472 -78 
Q 1731 -78 1267 223 
Q 803 525 561 1097 
Q 319 1669 319 2325 
Q 319 3041 592 3573 
Q 866 4106 1370 4382 
Q 1875 4659 2481 4659 
Q 3169 4659 3637 4309 
Q 4106 3959 4291 3325 
L 3694 3184 
Q 3534 3684 3231 3912 
Q 2928 4141 2469 4141 
Q 1941 4141 1586 3887 
Q 1231 3634 1087 3207 
Q 944 2781 944 2328 
Q 944 1744 1114 1308 
Q 1284 872 1643 656 
Q 2003 441 2422 441 
Q 2931 441 3284 734 
Q 3638 1028 3763 1606 
z
" transform="scale(0.015625)"/>
       <path id="ArialMT-58" d="M 28 0 
L 1800 2388 
L 238 4581 
L 959 4581 
L 1791 3406 
Q 2050 3041 2159 2844 
Q 2313 3094 2522 3366 
L 3444 4581 
L 4103 4581 
L 2494 2422 
L 4228 0 
L 3478 0 
L 2325 1634 
Q 2228 1775 2125 1941 
Q 1972 1691 1906 1597 
L 756 0 
L 28 0 
z
" transform="scale(0.015625)"/>
       <path id="ArialMT-2d" d="M 203 1375 
L 203 1941 
L 1931 1941 
L 1931 1375 
L 203 1375 
z
" transform="scale(0.015625)"/>
       <path id="ArialMT-39" d="M 350 1059 
L 891 1109 
Q 959 728 1153 556 
Q 1347 384 1650 384 
Q 1909 384 2104 503 
Q 2300 622 2425 820 
Q 2550 1019 2634 1356 
Q 2719 1694 2719 2044 
Q 2719 2081 2716 2156 
Q 2547 1888 2255 1720 
Q 1963 1553 1622 1553 
Q 1053 1553 659 1965 
Q 266 2378 266 3053 
Q 266 3750 677 4175 
Q 1088 4600 1706 4600 
Q 2153 4600 2523 4359 
Q 2894 4119 3086 3673 
Q 3278 3228 3278 2384 
Q 3278 1506 3087 986 
Q 2897 466 2520 194 
Q 2144 -78 1638 -78 
Q 1100 -78 759 220 
Q 419 519 350 1059 
z
M 2653 3081 
Q 2653 3566 2395 3850 
Q 2138 4134 1775 4134 
Q 1400 4134 1122 3828 
Q 844 3522 844 3034 
Q 844 2597 1108 2323 
Q 1372 2050 1759 2050 
Q 2150 2050 2401 2323 
Q 2653 2597 2653 3081 
z
" transform="scale(0.015625)"/>
       <path id="ArialMT-20" transform="scale(0.015625)"/>
       <path id="ArialMT-6f" d="M 213 1659 
Q 213 2581 725 3025 
Q 1153 3394 1769 3394 
Q 2453 3394 2887 2945 
Q 3322 2497 3322 1706 
Q 3322 1066 3130 698 
Q 2938 331 2570 128 
Q 2203 -75 1769 -75 
Q 1072 -75 642 372 
Q 213 819 213 1659 
z
M 791 1659 
Q 791 1022 1069 705 
Q 1347 388 1769 388 
Q 2188 388 2466 706 
Q 2744 1025 2744 1678 
Q 2744 2294 2464 2611 
Q 2184 2928 1769 2928 
Q 1347 2928 1069 2612 
Q 791 2297 791 1659 
z
" transform="scale(0.015625)"/>
       <path id="ArialMT-6e" d="M 422 0 
L 422 3319 
L 928 3319 
L 928 2847 
Q 1294 3394 1984 3394 
Q 2284 3394 2536 3286 
Q 2788 3178 2913 3003 
Q 3038 2828 3088 2588 
Q 3119 2431 3119 2041 
L 3119 0 
L 2556 0 
L 2556 2019 
Q 2556 2363 2490 2533 
Q 2425 2703 2258 2804 
Q 2091 2906 1866 2906 
Q 1506 2906 1245 2678 
Q 984 2450 984 1813 
L 984 0 
L 422 0 
z
" transform="scale(0.015625)"/>
       <path id="ArialMT-63" d="M 2588 1216 
L 3141 1144 
Q 3050 572 2676 248 
Q 2303 -75 1759 -75 
Q 1078 -75 664 370 
Q 250 816 250 1647 
Q 250 2184 428 2587 
Q 606 2991 970 3192 
Q 1334 3394 1763 3394 
Q 2303 3394 2647 3120 
Q 2991 2847 3088 2344 
L 2541 2259 
Q 2463 2594 2264 2762 
Q 2066 2931 1784 2931 
Q 1359 2931 1093 2626 
Q 828 2322 828 1663 
Q 828 994 1084 691 
Q 1341 388 1753 388 
Q 2084 388 2306 591 
Q 2528 794 2588 1216 
z
" transform="scale(0.015625)"/>
       <path id="ArialMT-65" d="M 2694 1069 
L 3275 997 
Q 3138 488 2766 206 
Q 2394 -75 1816 -75 
Q 1088 -75 661 373 
Q 234 822 234 1631 
Q 234 2469 665 2931 
Q 1097 3394 1784 3394 
Q 2450 3394 2872 2941 
Q 3294 2488 3294 1666 
Q 3294 1616 3291 1516 
L 816 1516 
Q 847 969 1125 678 
Q 1403 388 1819 388 
Q 2128 388 2347 550 
Q 2566 713 2694 1069 
z
M 847 1978 
L 2700 1978 
Q 2663 2397 2488 2606 
Q 2219 2931 1791 2931 
Q 1403 2931 1139 2672 
Q 875 2413 847 1978 
z
" transform="scale(0.015625)"/>
       <path id="ArialMT-74" d="M 1650 503 
L 1731 6 
Q 1494 -44 1306 -44 
Q 1000 -44 831 53 
Q 663 150 594 308 
Q 525 466 525 972 
L 525 2881 
L 113 2881 
L 113 3319 
L 525 3319 
L 525 4141 
L 1084 4478 
L 1084 3319 
L 1650 3319 
L 1650 2881 
L 1084 2881 
L 1084 941 
Q 1084 700 1114 631 
Q 1144 563 1211 522 
Q 1278 481 1403 481 
Q 1497 481 1650 503 
z
" transform="scale(0.015625)"/>
       <path id="ArialMT-72" d="M 416 0 
L 416 3319 
L 922 3319 
L 922 2816 
Q 1116 3169 1280 3281 
Q 1444 3394 1641 3394 
Q 1925 3394 2219 3213 
L 2025 2691 
Q 1819 2813 1613 2813 
Q 1428 2813 1281 2702 
Q 1134 2591 1072 2394 
Q 978 2094 978 1738 
L 978 0 
L 416 0 
z
" transform="scale(0.015625)"/>
       <path id="ArialMT-61" d="M 2588 409 
Q 2275 144 1986 34 
Q 1697 -75 1366 -75 
Q 819 -75 525 192 
Q 231 459 231 875 
Q 231 1119 342 1320 
Q 453 1522 633 1644 
Q 813 1766 1038 1828 
Q 1203 1872 1538 1913 
Q 2219 1994 2541 2106 
Q 2544 2222 2544 2253 
Q 2544 2597 2384 2738 
Q 2169 2928 1744 2928 
Q 1347 2928 1158 2789 
Q 969 2650 878 2297 
L 328 2372 
Q 403 2725 575 2942 
Q 747 3159 1072 3276 
Q 1397 3394 1825 3394 
Q 2250 3394 2515 3294 
Q 2781 3194 2906 3042 
Q 3031 2891 3081 2659 
Q 3109 2516 3109 2141 
L 3109 1391 
Q 3109 606 3145 398 
Q 3181 191 3288 0 
L 2700 0 
Q 2613 175 2588 409 
z
M 2541 1666 
Q 2234 1541 1622 1453 
Q 1275 1403 1131 1340 
Q 988 1278 909 1158 
Q 831 1038 831 891 
Q 831 666 1001 516 
Q 1172 366 1500 366 
Q 1825 366 2078 508 
Q 2331 650 2450 897 
Q 2541 1088 2541 1459 
L 2541 1666 
z
" transform="scale(0.015625)"/>
       <path id="ArialMT-69" d="M 425 3934 
L 425 4581 
L 988 4581 
L 988 3934 
L 425 3934 
z
M 425 0 
L 425 3319 
L 988 3319 
L 988 0 
L 425 0 
z
" transform="scale(0.015625)"/>
      </defs>
      <use xlink:href="#ArialMT-43"/>
      <use xlink:href="#ArialMT-58" x="72.216797"/>
      <use xlink:href="#ArialMT-2d" x="138.916016"/>
      <use xlink:href="#ArialMT-34" x="172.216797"/>
      <use xlink:href="#ArialMT-39" x="227.832031"/>
      <use xlink:href="#ArialMT-34" x="283.447266"/>
      <use xlink:href="#ArialMT-35" x="339.0625"/>
      <use xlink:href="#ArialMT-20" x="394.677734"/>
      <use xlink:href="#ArialMT-43" x="422.460938"/>
      <use xlink:href="#ArialMT-6f" x="494.677734"/>
      <use xlink:href="#ArialMT-6e" x="550.292969"/>
      <use xlink:href="#ArialMT-63" x="605.908203"/>
      <use xlink:href="#ArialMT-65" x="655.908203"/>
      <use xlink:href="#ArialMT-6e" x="711.523438"/>
      <use xlink:href="#ArialMT-74" x="767.138672"/>
      <use xlink:href="#ArialMT-72" x="794.921875"/>
      <use xlink:href="#ArialMT-61" x="828.222656"/>
      <use xlink:href="#ArialMT-74" x="883.837891"/>
      <use xlink:href="#ArialMT-69" x="911.621094"/>
      <use xlink:href="#ArialMT-6f" x="933.837891"/>
      <use xlink:href="#ArialMT-6e" x="989.453125"/>
     </g>
    </g>
   </g>
   <g id="matplotlib.axis_2">
    <g id="ytick_1">
     <g id="line2d_1">
      <path d="M 90 192.24 
L 343.636364 192.24 
" clip-path="url(#p332d4c4c2d)" style="fill: none; stroke-dasharray: 1,1.65; stroke-dashoffset: 0; stroke: #cccccc"/>
     </g>
     <g id="text_10">
      <!-- 0 -->
      <g style="fill: #262626" transform="translate(71.936156 197.751516) scale(0.154 -0.154)">
       <use xlink:href="#ArialMT-30"/>
      </g>
     </g>
    </g>
    <g id="ytick_2">
     <g id="line2d_2">
      <path d="M 90 157.590931 
L 343.636364 157.590931 
" clip-path="url(#p332d4c4c2d)" style="fill: none; stroke-dasharray: 1,1.65; stroke-dashoffset: 0; stroke: #cccccc"/>
     </g>
     <g id="text_11">
      <!-- 25 -->
      <g style="fill: #262626" transform="translate(63.372312 163.102446) scale(0.154 -0.154)">
       <use xlink:href="#ArialMT-32"/>
       <use xlink:href="#ArialMT-35" x="55.615234"/>
      </g>
     </g>
    </g>
    <g id="ytick_3">
     <g id="line2d_3">
      <path d="M 90 122.941861 
L 343.636364 122.941861 
" clip-path="url(#p332d4c4c2d)" style="fill: none; stroke-dasharray: 1,1.65; stroke-dashoffset: 0; stroke: #cccccc"/>
     </g>
     <g id="text_12">
      <!-- 50 -->
      <g style="fill: #262626" transform="translate(63.372312 128.453377) scale(0.154 -0.154)">
       <use xlink:href="#ArialMT-35"/>
       <use xlink:href="#ArialMT-30" x="55.615234"/>
      </g>
     </g>
    </g>
    <g id="ytick_4">
     <g id="line2d_4">
      <path d="M 90 88.292792 
L 343.636364 88.292792 
" clip-path="url(#p332d4c4c2d)" style="fill: none; stroke-dasharray: 1,1.65; stroke-dashoffset: 0; stroke: #cccccc"/>
     </g>
     <g id="text_13">
      <!-- 75 -->
      <g style="fill: #262626" transform="translate(63.372312 93.804308) scale(0.154 -0.154)">
       <defs>
        <path id="ArialMT-37" d="M 303 3981 
L 303 4522 
L 3269 4522 
L 3269 4084 
Q 2831 3619 2401 2847 
Q 1972 2075 1738 1259 
Q 1569 684 1522 0 
L 944 0 
Q 953 541 1156 1306 
Q 1359 2072 1739 2783 
Q 2119 3494 2547 3981 
L 303 3981 
z
" transform="scale(0.015625)"/>
       </defs>
       <use xlink:href="#ArialMT-37"/>
       <use xlink:href="#ArialMT-35" x="55.615234"/>
      </g>
     </g>
    </g>
    <g id="ytick_5">
     <g id="line2d_5">
      <path d="M 90 53.643723 
L 343.636364 53.643723 
" clip-path="url(#p332d4c4c2d)" style="fill: none; stroke-dasharray: 1,1.65; stroke-dashoffset: 0; stroke: #cccccc"/>
     </g>
     <g id="text_14">
      <!-- 100 -->
      <g style="fill: #262626" transform="translate(54.808469 59.155238) scale(0.154 -0.154)">
       <use xlink:href="#ArialMT-31"/>
       <use xlink:href="#ArialMT-30" x="55.615234"/>
       <use xlink:href="#ArialMT-30" x="111.230469"/>
      </g>
     </g>
    </g>
    <g id="text_15">
     <!-- % Survival (Relative to UT) -->
     <g style="fill: #262626" transform="translate(47.272594 209.901) rotate(-90) scale(0.168 -0.168)">
      <defs>
       <path id="ArialMT-25" d="M 372 3481 
Q 372 3972 619 4315 
Q 866 4659 1334 4659 
Q 1766 4659 2048 4351 
Q 2331 4044 2331 3447 
Q 2331 2866 2045 2552 
Q 1759 2238 1341 2238 
Q 925 2238 648 2547 
Q 372 2856 372 3481 
z
M 1350 4272 
Q 1141 4272 1002 4090 
Q 863 3909 863 3425 
Q 863 2984 1003 2804 
Q 1144 2625 1350 2625 
Q 1563 2625 1702 2806 
Q 1841 2988 1841 3469 
Q 1841 3913 1700 4092 
Q 1559 4272 1350 4272 
z
M 1353 -169 
L 3859 4659 
L 4316 4659 
L 1819 -169 
L 1353 -169 
z
M 3334 1075 
Q 3334 1569 3581 1911 
Q 3828 2253 4300 2253 
Q 4731 2253 5014 1945 
Q 5297 1638 5297 1041 
Q 5297 459 5011 145 
Q 4725 -169 4303 -169 
Q 3888 -169 3611 142 
Q 3334 453 3334 1075 
z
M 4316 1866 
Q 4103 1866 3964 1684 
Q 3825 1503 3825 1019 
Q 3825 581 3965 400 
Q 4106 219 4313 219 
Q 4528 219 4667 400 
Q 4806 581 4806 1063 
Q 4806 1506 4665 1686 
Q 4525 1866 4316 1866 
z
" transform="scale(0.015625)"/>
       <path id="ArialMT-53" d="M 288 1472 
L 859 1522 
Q 900 1178 1048 958 
Q 1197 738 1509 602 
Q 1822 466 2213 466 
Q 2559 466 2825 569 
Q 3091 672 3220 851 
Q 3350 1031 3350 1244 
Q 3350 1459 3225 1620 
Q 3100 1781 2813 1891 
Q 2628 1963 1997 2114 
Q 1366 2266 1113 2400 
Q 784 2572 623 2826 
Q 463 3081 463 3397 
Q 463 3744 659 4045 
Q 856 4347 1234 4503 
Q 1613 4659 2075 4659 
Q 2584 4659 2973 4495 
Q 3363 4331 3572 4012 
Q 3781 3694 3797 3291 
L 3216 3247 
Q 3169 3681 2898 3903 
Q 2628 4125 2100 4125 
Q 1550 4125 1298 3923 
Q 1047 3722 1047 3438 
Q 1047 3191 1225 3031 
Q 1400 2872 2139 2705 
Q 2878 2538 3153 2413 
Q 3553 2228 3743 1945 
Q 3934 1663 3934 1294 
Q 3934 928 3725 604 
Q 3516 281 3123 101 
Q 2731 -78 2241 -78 
Q 1619 -78 1198 103 
Q 778 284 539 648 
Q 300 1013 288 1472 
z
" transform="scale(0.015625)"/>
       <path id="ArialMT-76" d="M 1344 0 
L 81 3319 
L 675 3319 
L 1388 1331 
Q 1503 1009 1600 663 
Q 1675 925 1809 1294 
L 2547 3319 
L 3125 3319 
L 1869 0 
L 1344 0 
z
" transform="scale(0.015625)"/>
       <path id="ArialMT-6c" d="M 409 0 
L 409 4581 
L 972 4581 
L 972 0 
L 409 0 
z
" transform="scale(0.015625)"/>
       <path id="ArialMT-28" d="M 1497 -1347 
Q 1031 -759 709 28 
Q 388 816 388 1659 
Q 388 2403 628 3084 
Q 909 3875 1497 4659 
L 1900 4659 
Q 1522 4009 1400 3731 
Q 1209 3300 1100 2831 
Q 966 2247 966 1656 
Q 966 153 1900 -1347 
L 1497 -1347 
z
" transform="scale(0.015625)"/>
       <path id="ArialMT-52" d="M 503 0 
L 503 4581 
L 2534 4581 
Q 3147 4581 3465 4457 
Q 3784 4334 3975 4021 
Q 4166 3709 4166 3331 
Q 4166 2844 3850 2509 
Q 3534 2175 2875 2084 
Q 3116 1969 3241 1856 
Q 3506 1613 3744 1247 
L 4541 0 
L 3778 0 
L 3172 953 
Q 2906 1366 2734 1584 
Q 2563 1803 2427 1890 
Q 2291 1978 2150 2013 
Q 2047 2034 1813 2034 
L 1109 2034 
L 1109 0 
L 503 0 
z
M 1109 2559 
L 2413 2559 
Q 2828 2559 3062 2645 
Q 3297 2731 3419 2920 
Q 3541 3109 3541 3331 
Q 3541 3656 3305 3865 
Q 3069 4075 2559 4075 
L 1109 4075 
L 1109 2559 
z
" transform="scale(0.015625)"/>
       <path id="ArialMT-55" d="M 3500 4581 
L 4106 4581 
L 4106 1934 
Q 4106 1244 3950 837 
Q 3794 431 3386 176 
Q 2978 -78 2316 -78 
Q 1672 -78 1262 144 
Q 853 366 678 786 
Q 503 1206 503 1934 
L 503 4581 
L 1109 4581 
L 1109 1938 
Q 1109 1341 1220 1058 
Q 1331 775 1601 622 
Q 1872 469 2263 469 
Q 2931 469 3215 772 
Q 3500 1075 3500 1938 
L 3500 4581 
z
" transform="scale(0.015625)"/>
       <path id="ArialMT-54" d="M 1659 0 
L 1659 4041 
L 150 4041 
L 150 4581 
L 3781 4581 
L 3781 4041 
L 2266 4041 
L 2266 0 
L 1659 0 
z
" transform="scale(0.015625)"/>
       <path id="ArialMT-29" d="M 791 -1347 
L 388 -1347 
Q 1322 153 1322 1656 
Q 1322 2244 1188 2822 
Q 1081 3291 891 3722 
Q 769 4003 388 4659 
L 791 4659 
Q 1378 3875 1659 3084 
Q 1900 2403 1900 1659 
Q 1900 816 1576 28 
Q 1253 -759 791 -1347 
z
" transform="scale(0.015625)"/>
      </defs>
      <use xlink:href="#ArialMT-25"/>
      <use xlink:href="#ArialMT-20" x="88.916016"/>
      <use xlink:href="#ArialMT-53" x="116.699219"/>
      <use xlink:href="#ArialMT-75" x="183.398438"/>
      <use xlink:href="#ArialMT-72" x="239.013672"/>
      <use xlink:href="#ArialMT-76" x="272.314453"/>
      <use xlink:href="#ArialMT-69" x="322.314453"/>
      <use xlink:href="#ArialMT-76" x="344.53125"/>
      <use xlink:href="#ArialMT-61" x="394.53125"/>
      <use xlink:href="#ArialMT-6c" x="450.146484"/>
      <use xlink:href="#ArialMT-20" x="472.363281"/>
      <use xlink:href="#ArialMT-28" x="500.146484"/>
      <use xlink:href="#ArialMT-52" x="533.447266"/>
      <use xlink:href="#ArialMT-65" x="605.664062"/>
      <use xlink:href="#ArialMT-6c" x="661.279297"/>
      <use xlink:href="#ArialMT-61" x="683.496094"/>
      <use xlink:href="#ArialMT-74" x="739.111328"/>
      <use xlink:href="#ArialMT-69" x="766.894531"/>
      <use xlink:href="#ArialMT-76" x="789.111328"/>
      <use xlink:href="#ArialMT-65" x="839.111328"/>
      <use xlink:href="#ArialMT-20" x="894.726562"/>
      <use xlink:href="#ArialMT-74" x="922.509766"/>
      <use xlink:href="#ArialMT-6f" x="950.292969"/>
      <use xlink:href="#ArialMT-20" x="1005.908203"/>
      <use xlink:href="#ArialMT-55" x="1033.691406"/>
      <use xlink:href="#ArialMT-54" x="1105.908203"/>
      <use xlink:href="#ArialMT-29" x="1166.992188"/>
     </g>
    </g>
   </g>
   <g id="patch_3">
    <path d="M 101.528926 192.24 
L 109.411952 192.24 
L 109.411952 53.643723 
L 101.528926 53.643723 
z
" clip-path="url(#p332d4c4c2d)" style="fill: #176d9c; stroke: #ffffff; stroke-linejoin: miter"/>
   </g>
   <g id="patch_4">
    <path d="M 131.090273 192.24 
L 138.973299 192.24 
L 138.973299 40.018717 
L 131.090273 40.018717 
z
" clip-path="url(#p332d4c4c2d)" style="fill: #176d9c; stroke: #ffffff; stroke-linejoin: miter"/>
   </g>
   <g id="patch_5">
    <path d="M 160.651621 192.24 
L 168.534647 192.24 
L 168.534647 53.734528 
L 160.651621 53.734528 
z
" clip-path="url(#p332d4c4c2d)" style="fill: #176d9c; stroke: #ffffff; stroke-linejoin: miter"/>
   </g>
   <g id="patch_6">
    <path d="M 190.212969 192.24 
L 198.095995 192.24 
L 198.095995 63.538827 
L 190.212969 63.538827 
z
" clip-path="url(#p332d4c4c2d)" style="fill: #176d9c; stroke: #ffffff; stroke-linejoin: miter"/>
   </g>
   <g id="patch_7">
    <path d="M 219.774317 192.24 
L 227.657343 192.24 
L 227.657343 78.972957 
L 219.774317 78.972957 
z
" clip-path="url(#p332d4c4c2d)" style="fill: #176d9c; stroke: #ffffff; stroke-linejoin: miter"/>
   </g>
   <g id="patch_8">
    <path d="M 249.335664 192.24 
L 257.21869 192.24 
L 257.21869 117.017906 
L 249.335664 117.017906 
z
" clip-path="url(#p332d4c4c2d)" style="fill: #176d9c; stroke: #ffffff; stroke-linejoin: miter"/>
   </g>
   <g id="patch_9">
    <path d="M 278.897012 192.24 
L 286.780038 192.24 
L 286.780038 141.579353 
L 278.897012 141.579353 
z
" clip-path="url(#p332d4c4c2d)" style="fill: #176d9c; stroke: #ffffff; stroke-linejoin: miter"/>
   </g>
   <g id="patch_10">
    <path d="M 308.45836 192.24 
L 316.341386 192.24 
L 316.341386 168.001048 
L 308.45836 168.001048 
z
" clip-path="url(#p332d4c4c2d)" style="fill: #176d9c; stroke: #ffffff; stroke-linejoin: miter"/>
   </g>
   <g id="patch_11">
    <path d="M 109.411952 192.24 
L 117.294978 192.24 
L 117.294978 108.38348 
L 109.411952 108.38348 
z
" clip-path="url(#p332d4c4c2d)" style="fill: #c38820; stroke: #ffffff; stroke-linejoin: miter"/>
   </g>
   <g id="patch_12">
    <path d="M 138.973299 192.24 
L 146.856325 192.24 
L 146.856325 111.773305 
L 138.973299 111.773305 
z
" clip-path="url(#p332d4c4c2d)" style="fill: #c38820; stroke: #ffffff; stroke-linejoin: miter"/>
   </g>
   <g id="patch_13">
    <path d="M 168.534647 192.24 
L 176.417673 192.24 
L 176.417673 116.460121 
L 168.534647 116.460121 
z
" clip-path="url(#p332d4c4c2d)" style="fill: #c38820; stroke: #ffffff; stroke-linejoin: miter"/>
   </g>
   <g id="patch_14">
    <path d="M 198.095995 192.24 
L 205.979021 192.24 
L 205.979021 123.000435 
L 198.095995 123.000435 
z
" clip-path="url(#p332d4c4c2d)" style="fill: #c38820; stroke: #ffffff; stroke-linejoin: miter"/>
   </g>
   <g id="patch_15">
    <path d="M 227.657343 192.24 
L 235.540369 192.24 
L 235.540369 134.499887 
L 227.657343 134.499887 
z
" clip-path="url(#p332d4c4c2d)" style="fill: #c38820; stroke: #ffffff; stroke-linejoin: miter"/>
   </g>
   <g id="patch_16">
    <path d="M 257.21869 192.24 
L 265.101716 192.24 
L 265.101716 147.011902 
L 257.21869 147.011902 
z
" clip-path="url(#p332d4c4c2d)" style="fill: #c38820; stroke: #ffffff; stroke-linejoin: miter"/>
   </g>
   <g id="patch_17">
    <path d="M 286.780038 192.24 
L 294.663064 192.24 
L 294.663064 165.135469 
L 286.780038 165.135469 
z
" clip-path="url(#p332d4c4c2d)" style="fill: #c38820; stroke: #ffffff; stroke-linejoin: miter"/>
   </g>
   <g id="patch_18">
    <path d="M 316.341386 192.24 
L 324.224412 192.24 
L 324.224412 168.787176 
L 316.341386 168.787176 
z
" clip-path="url(#p332d4c4c2d)" style="fill: #c38820; stroke: #ffffff; stroke-linejoin: miter"/>
   </g>
   <g id="patch_19">
    <path d="M 117.294978 192.24 
L 125.178004 192.24 
L 125.178004 122.499973 
L 117.294978 122.499973 
z
" clip-path="url(#p332d4c4c2d)" style="fill: #158b6a; stroke: #ffffff; stroke-linejoin: miter"/>
   </g>
   <g id="patch_20">
    <path d="M 146.856325 192.24 
L 154.739352 192.24 
L 154.739352 120.48938 
L 146.856325 120.48938 
z
" clip-path="url(#p332d4c4c2d)" style="fill: #158b6a; stroke: #ffffff; stroke-linejoin: miter"/>
   </g>
   <g id="patch_21">
    <path d="M 176.417673 192.24 
L 184.300699 192.24 
L 184.300699 126.641147 
L 176.417673 126.641147 
z
" clip-path="url(#p332d4c4c2d)" style="fill: #158b6a; stroke: #ffffff; stroke-linejoin: miter"/>
   </g>
   <g id="patch_22">
    <path d="M 205.979021 192.24 
L 213.862047 192.24 
L 213.862047 131.421044 
L 205.979021 131.421044 
z
" clip-path="url(#p332d4c4c2d)" style="fill: #158b6a; stroke: #ffffff; stroke-linejoin: miter"/>
   </g>
   <g id="patch_23">
    <path d="M 235.540369 192.24 
L 243.423395 192.24 
L 243.423395 138.565901 
L 235.540369 138.565901 
z
" clip-path="url(#p332d4c4c2d)" style="fill: #158b6a; stroke: #ffffff; stroke-linejoin: miter"/>
   </g>
   <g id="patch_24">
    <path d="M 265.101716 192.24 
L 272.984743 192.24 
L 272.984743 147.993042 
L 265.101716 147.993042 
z
" clip-path="url(#p332d4c4c2d)" style="fill: #158b6a; stroke: #ffffff; stroke-linejoin: miter"/>
   </g>
   <g id="patch_25">
    <path d="M 294.663064 192.24 
L 302.54609 192.24 
L 302.54609 163.676275 
L 294.663064 163.676275 
z
" clip-path="url(#p332d4c4c2d)" style="fill: #158b6a; stroke: #ffffff; stroke-linejoin: miter"/>
   </g>
   <g id="patch_26">
    <path d="M 324.224412 192.24 
L 332.107438 192.24 
L 332.107438 169.302377 
L 324.224412 169.302377 
z
" clip-path="url(#p332d4c4c2d)" style="fill: #158b6a; stroke: #ffffff; stroke-linejoin: miter"/>
   </g>
   <g id="line2d_6">
    <path d="M 105.470439 53.643723 
L 105.470439 53.643723 
" clip-path="url(#p332d4c4c2d)" style="fill: none; stroke: #424242; stroke-width: 2.7; stroke-linecap: round"/>
   </g>
   <g id="line2d_7">
    <path d="M 135.031786 46.197434 
L 135.031786 33.84 
" clip-path="url(#p332d4c4c2d)" style="fill: none; stroke: #424242; stroke-width: 2.7; stroke-linecap: round"/>
   </g>
   <g id="line2d_8">
    <path d="M 164.593134 70.214253 
L 164.593134 37.254803 
" clip-path="url(#p332d4c4c2d)" style="fill: none; stroke: #424242; stroke-width: 2.7; stroke-linecap: round"/>
   </g>
   <g id="line2d_9">
    <path d="M 194.154482 65.432844 
L 194.154482 61.64481 
" clip-path="url(#p332d4c4c2d)" style="fill: none; stroke: #424242; stroke-width: 2.7; stroke-linecap: round"/>
   </g>
   <g id="line2d_10">
    <path d="M 223.71583 82.112969 
L 223.71583 75.832946 
" clip-path="url(#p332d4c4c2d)" style="fill: none; stroke: #424242; stroke-width: 2.7; stroke-linecap: round"/>
   </g>
   <g id="line2d_11">
    <path d="M 253.277177 124.361052 
L 253.277177 109.67476 
" clip-path="url(#p332d4c4c2d)" style="fill: none; stroke: #424242; stroke-width: 2.7; stroke-linecap: round"/>
   </g>
   <g id="line2d_12">
    <path d="M 282.838525 146.024482 
L 282.838525 137.134225 
" clip-path="url(#p332d4c4c2d)" style="fill: none; stroke: #424242; stroke-width: 2.7; stroke-linecap: round"/>
   </g>
   <g id="line2d_13">
    <path d="M 312.399873 169.974262 
L 312.399873 166.027834 
" clip-path="url(#p332d4c4c2d)" style="fill: none; stroke: #424242; stroke-width: 2.7; stroke-linecap: round"/>
   </g>
   <g id="line2d_14">
    <path d="M 113.353465 110.502039 
L 113.353465 106.264921 
" clip-path="url(#p332d4c4c2d)" style="fill: none; stroke: #424242; stroke-width: 2.7; stroke-linecap: round"/>
   </g>
   <g id="line2d_15">
    <path d="M 142.914812 114.945372 
L 142.914812 108.601237 
" clip-path="url(#p332d4c4c2d)" style="fill: none; stroke: #424242; stroke-width: 2.7; stroke-linecap: round"/>
   </g>
   <g id="line2d_16">
    <path d="M 172.47616 122.703778 
L 172.47616 110.216463 
" clip-path="url(#p332d4c4c2d)" style="fill: none; stroke: #424242; stroke-width: 2.7; stroke-linecap: round"/>
   </g>
   <g id="line2d_17">
    <path d="M 202.037508 126.136131 
L 202.037508 119.86474 
" clip-path="url(#p332d4c4c2d)" style="fill: none; stroke: #424242; stroke-width: 2.7; stroke-linecap: round"/>
   </g>
   <g id="line2d_18">
    <path d="M 231.598856 138.539965 
L 231.598856 130.459809 
" clip-path="url(#p332d4c4c2d)" style="fill: none; stroke: #424242; stroke-width: 2.7; stroke-linecap: round"/>
   </g>
   <g id="line2d_19">
    <path d="M 261.160203 147.888499 
L 261.160203 146.135304 
" clip-path="url(#p332d4c4c2d)" style="fill: none; stroke: #424242; stroke-width: 2.7; stroke-linecap: round"/>
   </g>
   <g id="line2d_20">
    <path d="M 290.721551 165.272346 
L 290.721551 164.998591 
" clip-path="url(#p332d4c4c2d)" style="fill: none; stroke: #424242; stroke-width: 2.7; stroke-linecap: round"/>
   </g>
   <g id="line2d_21">
    <path d="M 320.282899 170.642581 
L 320.282899 166.931771 
" clip-path="url(#p332d4c4c2d)" style="fill: none; stroke: #424242; stroke-width: 2.7; stroke-linecap: round"/>
   </g>
   <g id="line2d_22">
    <path d="M 121.236491 127.742807 
L 121.236491 117.257139 
" clip-path="url(#p332d4c4c2d)" style="fill: none; stroke: #424242; stroke-width: 2.7; stroke-linecap: round"/>
   </g>
   <g id="line2d_23">
    <path d="M 150.797839 120.675955 
L 150.797839 120.302805 
" clip-path="url(#p332d4c4c2d)" style="fill: none; stroke: #424242; stroke-width: 2.7; stroke-linecap: round"/>
   </g>
   <g id="line2d_24">
    <path d="M 180.359186 126.871818 
L 180.359186 126.410475 
" clip-path="url(#p332d4c4c2d)" style="fill: none; stroke: #424242; stroke-width: 2.7; stroke-linecap: round"/>
   </g>
   <g id="line2d_25">
    <path d="M 209.920534 133.513318 
L 209.920534 129.328771 
" clip-path="url(#p332d4c4c2d)" style="fill: none; stroke: #424242; stroke-width: 2.7; stroke-linecap: round"/>
   </g>
   <g id="line2d_26">
    <path d="M 239.481882 140.454812 
L 239.481882 136.676991 
" clip-path="url(#p332d4c4c2d)" style="fill: none; stroke: #424242; stroke-width: 2.7; stroke-linecap: round"/>
   </g>
   <g id="line2d_27">
    <path d="M 269.043229 151.003265 
L 269.043229 144.982819 
" clip-path="url(#p332d4c4c2d)" style="fill: none; stroke: #424242; stroke-width: 2.7; stroke-linecap: round"/>
   </g>
   <g id="line2d_28">
    <path d="M 298.604577 166.337915 
L 298.604577 161.014634 
" clip-path="url(#p332d4c4c2d)" style="fill: none; stroke: #424242; stroke-width: 2.7; stroke-linecap: round"/>
   </g>
   <g id="line2d_29">
    <path d="M 328.165925 170.037674 
L 328.165925 168.567079 
" clip-path="url(#p332d4c4c2d)" style="fill: none; stroke: #424242; stroke-width: 2.7; stroke-linecap: round"/>
   </g>
   <g id="line2d_30">
    <path d="M 142.914812 98.622037 
L 142.914812 95.295637 
L 150.797839 95.295637 
L 150.797839 98.622037 
" clip-path="url(#p332d4c4c2d)" style="fill: none; stroke: #333333; stroke-width: 1.5; stroke-linecap: round"/>
   </g>
   <g id="line2d_31">
    <path d="M 172.47616 100.237263 
L 172.47616 96.910863 
L 180.359186 96.910863 
L 180.359186 100.237263 
" clip-path="url(#p332d4c4c2d)" style="fill: none; stroke: #333333; stroke-width: 1.5; stroke-linecap: round"/>
   </g>
   <g id="line2d_32">
    <path d="M 202.037508 109.88554 
L 202.037508 106.55914 
L 209.920534 106.55914 
L 209.920534 109.88554 
" clip-path="url(#p332d4c4c2d)" style="fill: none; stroke: #333333; stroke-width: 1.5; stroke-linecap: round"/>
   </g>
   <g id="line2d_33">
    <path d="M 231.598856 120.480609 
L 231.598856 117.154209 
L 239.481882 117.154209 
L 239.481882 120.480609 
" clip-path="url(#p332d4c4c2d)" style="fill: none; stroke: #333333; stroke-width: 1.5; stroke-linecap: round"/>
   </g>
   <g id="line2d_34">
    <path d="M 261.160203 135.003619 
L 261.160203 131.677219 
L 269.043229 131.677219 
L 269.043229 135.003619 
" clip-path="url(#p332d4c4c2d)" style="fill: none; stroke: #333333; stroke-width: 1.5; stroke-linecap: round"/>
   </g>
   <g id="line2d_35">
    <path d="M 290.721551 151.035434 
L 290.721551 147.709034 
L 298.604577 147.709034 
L 298.604577 151.035434 
" clip-path="url(#p332d4c4c2d)" style="fill: none; stroke: #333333; stroke-width: 1.5; stroke-linecap: round"/>
   </g>
   <g id="line2d_36">
    <path d="M 320.282899 156.952571 
L 320.282899 153.626171 
L 328.165925 153.626171 
L 328.165925 156.952571 
" clip-path="url(#p332d4c4c2d)" style="fill: none; stroke: #333333; stroke-width: 1.5; stroke-linecap: round"/>
   </g>
   <g id="line2d_37">
    <path d="M 113.353465 96.285721 
L 113.353465 92.959321 
L 121.236491 92.959321 
L 121.236491 96.285721 
" clip-path="url(#p332d4c4c2d)" style="fill: none; stroke: #333333; stroke-width: 1.5; stroke-linecap: round"/>
   </g>
   <g id="patch_27">
    <path d="M 90 192.24 
L 90 25.92 
" style="fill: none; stroke: #cccccc; stroke-width: 0.6; stroke-linejoin: miter; stroke-linecap: square"/>
   </g>
   <g id="patch_28">
    <path d="M 343.636364 192.24 
L 343.636364 25.92 
" style="fill: none; stroke: #cccccc; stroke-width: 0.6; stroke-linejoin: miter; stroke-linecap: square"/>
   </g>
   <g id="patch_29">
    <path d="M 90 192.24 
L 343.636364 192.24 
" style="fill: none; stroke: #cccccc; stroke-width: 0.6; stroke-linejoin: miter; stroke-linecap: square"/>
   </g>
   <g id="patch_30">
    <path d="M 90 25.92 
L 343.636364 25.92 
" style="fill: none; stroke: #cccccc; stroke-width: 0.6; stroke-linejoin: miter; stroke-linecap: square"/>
   </g>
   <g id="text_16">
    <!-- ns -->
    <g style="fill: #262626" transform="translate(137.985138 90.956637) scale(0.168 -0.168)">
     <defs>
      <path id="ArialMT-73" d="M 197 991 
L 753 1078 
Q 800 744 1014 566 
Q 1228 388 1613 388 
Q 2000 388 2187 545 
Q 2375 703 2375 916 
Q 2375 1106 2209 1216 
Q 2094 1291 1634 1406 
Q 1016 1563 777 1677 
Q 538 1791 414 1992 
Q 291 2194 291 2438 
Q 291 2659 392 2848 
Q 494 3038 669 3163 
Q 800 3259 1026 3326 
Q 1253 3394 1513 3394 
Q 1903 3394 2198 3281 
Q 2494 3169 2634 2976 
Q 2775 2784 2828 2463 
L 2278 2388 
Q 2241 2644 2061 2787 
Q 1881 2931 1553 2931 
Q 1166 2931 1000 2803 
Q 834 2675 834 2503 
Q 834 2394 903 2306 
Q 972 2216 1119 2156 
Q 1203 2125 1616 2013 
Q 2213 1853 2448 1751 
Q 2684 1650 2818 1456 
Q 2953 1263 2953 975 
Q 2953 694 2789 445 
Q 2625 197 2315 61 
Q 2006 -75 1616 -75 
Q 969 -75 630 194 
Q 291 463 197 991 
z
" transform="scale(0.015625)"/>
     </defs>
     <use xlink:href="#ArialMT-6e"/>
     <use xlink:href="#ArialMT-73" x="55.615234"/>
    </g>
   </g>
   <g id="text_17">
    <!-- ns -->
    <g style="fill: #262626" transform="translate(167.546486 92.571863) scale(0.168 -0.168)">
     <use xlink:href="#ArialMT-6e"/>
     <use xlink:href="#ArialMT-73" x="55.615234"/>
    </g>
   </g>
   <g id="text_18">
    <!-- ns -->
    <g style="fill: #262626" transform="translate(197.107833 102.22014) scale(0.168 -0.168)">
     <use xlink:href="#ArialMT-6e"/>
     <use xlink:href="#ArialMT-73" x="55.615234"/>
    </g>
   </g>
   <g id="text_19">
    <!-- ns -->
    <g style="fill: #262626" transform="translate(226.669181 112.815209) scale(0.168 -0.168)">
     <use xlink:href="#ArialMT-6e"/>
     <use xlink:href="#ArialMT-73" x="55.615234"/>
    </g>
   </g>
   <g id="text_20">
    <!-- ns -->
    <g style="fill: #262626" transform="translate(256.230529 127.338219) scale(0.168 -0.168)">
     <use xlink:href="#ArialMT-6e"/>
     <use xlink:href="#ArialMT-73" x="55.615234"/>
    </g>
   </g>
   <g id="text_21">
    <!-- ns -->
    <g style="fill: #262626" transform="translate(285.791877 143.370034) scale(0.168 -0.168)">
     <use xlink:href="#ArialMT-6e"/>
     <use xlink:href="#ArialMT-73" x="55.615234"/>
    </g>
   </g>
   <g id="text_22">
    <!-- ns -->
    <g style="fill: #262626" transform="translate(315.353224 149.287171) scale(0.168 -0.168)">
     <use xlink:href="#ArialMT-6e"/>
     <use xlink:href="#ArialMT-73" x="55.615234"/>
    </g>
   </g>
   <g id="text_23">
    <!-- ns -->
    <g style="fill: #262626" transform="translate(108.42379 88.620321) scale(0.168 -0.168)">
     <use xlink:href="#ArialMT-6e"/>
     <use xlink:href="#ArialMT-73" x="55.615234"/>
    </g>
   </g>
   <g id="text_24">
    <!-- PC9 WT -->
    <g style="fill: #262626" transform="translate(185.084557 19.92) scale(0.168 -0.168)">
     <defs>
      <path id="ArialMT-50" d="M 494 0 
L 494 4581 
L 2222 4581 
Q 2678 4581 2919 4538 
Q 3256 4481 3484 4323 
Q 3713 4166 3852 3881 
Q 3991 3597 3991 3256 
Q 3991 2672 3619 2267 
Q 3247 1863 2275 1863 
L 1100 1863 
L 1100 0 
L 494 0 
z
M 1100 2403 
L 2284 2403 
Q 2872 2403 3119 2622 
Q 3366 2841 3366 3238 
Q 3366 3525 3220 3729 
Q 3075 3934 2838 4000 
Q 2684 4041 2272 4041 
L 1100 4041 
L 1100 2403 
z
" transform="scale(0.015625)"/>
      <path id="ArialMT-57" d="M 1294 0 
L 78 4581 
L 700 4581 
L 1397 1578 
Q 1509 1106 1591 641 
Q 1766 1375 1797 1488 
L 2669 4581 
L 3400 4581 
L 4056 2263 
Q 4303 1400 4413 641 
Q 4500 1075 4641 1638 
L 5359 4581 
L 5969 4581 
L 4713 0 
L 4128 0 
L 3163 3491 
Q 3041 3928 3019 4028 
Q 2947 3713 2884 3491 
L 1913 0 
L 1294 0 
z
" transform="scale(0.015625)"/>
     </defs>
     <use xlink:href="#ArialMT-50"/>
     <use xlink:href="#ArialMT-43" x="66.699219"/>
     <use xlink:href="#ArialMT-39" x="138.916016"/>
     <use xlink:href="#ArialMT-20" x="194.53125"/>
     <use xlink:href="#ArialMT-57" x="222.314453"/>
     <use xlink:href="#ArialMT-54" x="316.699219"/>
    </g>
   </g>
   <g id="legend_1">
    <g id="patch_31">
     <path d="M 250.773489 126.655469 
L 332.856364 126.655469 
Q 335.936364 126.655469 335.936364 123.575469 
L 335.936364 36.7 
Q 335.936364 33.62 332.856364 33.62 
L 250.773489 33.62 
Q 247.693489 33.62 247.693489 36.7 
L 247.693489 123.575469 
Q 247.693489 126.655469 250.773489 126.655469 
z
" style="fill: #ffffff; opacity: 0.8; stroke: #cccccc; stroke-linejoin: miter"/>
    </g>
    <g id="text_25">
     <!-- Treatment -->
     <g style="fill: #262626" transform="translate(253.853489 51.805125) scale(0.168 -0.168)">
      <defs>
       <path id="ArialMT-6d" d="M 422 0 
L 422 3319 
L 925 3319 
L 925 2853 
Q 1081 3097 1340 3245 
Q 1600 3394 1931 3394 
Q 2300 3394 2536 3241 
Q 2772 3088 2869 2813 
Q 3263 3394 3894 3394 
Q 4388 3394 4653 3120 
Q 4919 2847 4919 2278 
L 4919 0 
L 4359 0 
L 4359 2091 
Q 4359 2428 4304 2576 
Q 4250 2725 4106 2815 
Q 3963 2906 3769 2906 
Q 3419 2906 3187 2673 
Q 2956 2441 2956 1928 
L 2956 0 
L 2394 0 
L 2394 2156 
Q 2394 2531 2256 2718 
Q 2119 2906 1806 2906 
Q 1569 2906 1367 2781 
Q 1166 2656 1075 2415 
Q 984 2175 984 1722 
L 984 0 
L 422 0 
z
" transform="scale(0.015625)"/>
      </defs>
      <use xlink:href="#ArialMT-54"/>
      <use xlink:href="#ArialMT-72" x="57.333984"/>
      <use xlink:href="#ArialMT-65" x="90.634766"/>
      <use xlink:href="#ArialMT-61" x="146.25"/>
      <use xlink:href="#ArialMT-74" x="201.865234"/>
      <use xlink:href="#ArialMT-6d" x="229.648438"/>
      <use xlink:href="#ArialMT-65" x="312.949219"/>
      <use xlink:href="#ArialMT-6e" x="368.564453"/>
      <use xlink:href="#ArialMT-74" x="424.179688"/>
     </g>
    </g>
    <g id="patch_32">
     <path d="M 259.982645 73.867156 
L 290.782645 73.867156 
L 290.782645 63.087156 
L 259.982645 63.087156 
z
" style="fill: #176d9c; stroke: #ffffff; stroke-linejoin: miter"/>
    </g>
    <g id="text_26">
     <!-- UT -->
     <g style="fill: #262626" transform="translate(303.102645 73.867156) scale(0.154 -0.154)">
      <use xlink:href="#ArialMT-55"/>
      <use xlink:href="#ArialMT-54" x="72.216797"/>
     </g>
    </g>
    <g id="patch_33">
     <path d="M 259.982645 95.650937 
L 290.782645 95.650937 
L 290.782645 84.870937 
L 259.982645 84.870937 
z
" style="fill: #c38820; stroke: #ffffff; stroke-linejoin: miter"/>
    </g>
    <g id="text_27">
     <!-- EA -->
     <g style="fill: #262626" transform="translate(303.102645 95.650937) scale(0.154 -0.154)">
      <defs>
       <path id="ArialMT-45" d="M 506 0 
L 506 4581 
L 3819 4581 
L 3819 4041 
L 1113 4041 
L 1113 2638 
L 3647 2638 
L 3647 2100 
L 1113 2100 
L 1113 541 
L 3925 541 
L 3925 0 
L 506 0 
z
" transform="scale(0.015625)"/>
       <path id="ArialMT-41" d="M -9 0 
L 1750 4581 
L 2403 4581 
L 4278 0 
L 3588 0 
L 3053 1388 
L 1138 1388 
L 634 0 
L -9 0 
z
M 1313 1881 
L 2866 1881 
L 2388 3150 
Q 2169 3728 2063 4100 
Q 1975 3659 1816 3225 
L 1313 1881 
z
" transform="scale(0.015625)"/>
      </defs>
      <use xlink:href="#ArialMT-45"/>
      <use xlink:href="#ArialMT-41" x="66.699219"/>
     </g>
    </g>
    <g id="patch_34">
     <path d="M 259.982645 117.434719 
L 290.782645 117.434719 
L 290.782645 106.654719 
L 259.982645 106.654719 
z
" style="fill: #158b6a; stroke: #ffffff; stroke-linejoin: miter"/>
    </g>
    <g id="text_28">
     <!-- E -->
     <g style="fill: #262626" transform="translate(303.102645 117.434719) scale(0.154 -0.154)">
      <use xlink:href="#ArialMT-45"/>
     </g>
    </g>
   </g>
  </g>
  <g id="axes_2">
   <g id="patch_35">
    <path d="M 394.363636 192.24 
L 648 192.24 
L 648 25.92 
L 394.363636 25.92 
z
" style="fill: #ffffff"/>
   </g>
   <g id="matplotlib.axis_3">
    <g id="xtick_9">
     <g id="text_29">
      <!-- 0uM -->
      <g style="fill: #262626" transform="translate(402.739398 212.763031) scale(0.154 -0.154)">
       <use xlink:href="#ArialMT-30"/>
       <use xlink:href="#ArialMT-75" x="55.615234"/>
       <use xlink:href="#ArialMT-4d" x="111.230469"/>
      </g>
     </g>
    </g>
    <g id="xtick_10">
     <g id="text_30">
      <!-- 0.5uM -->
      <g style="fill: #262626" transform="translate(425.879668 212.763031) scale(0.154 -0.154)">
       <use xlink:href="#ArialMT-30"/>
       <use xlink:href="#ArialMT-2e" x="55.615234"/>
       <use xlink:href="#ArialMT-35" x="83.398438"/>
       <use xlink:href="#ArialMT-75" x="139.013672"/>
       <use xlink:href="#ArialMT-4d" x="194.628906"/>
      </g>
     </g>
    </g>
    <g id="xtick_11">
     <g id="text_31">
      <!-- 1uM -->
      <g style="fill: #262626" transform="translate(461.862093 212.763031) scale(0.154 -0.154)">
       <use xlink:href="#ArialMT-31"/>
       <use xlink:href="#ArialMT-75" x="55.615234"/>
       <use xlink:href="#ArialMT-4d" x="111.230469"/>
      </g>
     </g>
    </g>
    <g id="xtick_12">
     <g id="text_32">
      <!-- 2uM -->
      <g style="fill: #262626" transform="translate(491.423441 212.763031) scale(0.154 -0.154)">
       <use xlink:href="#ArialMT-32"/>
       <use xlink:href="#ArialMT-75" x="55.615234"/>
       <use xlink:href="#ArialMT-4d" x="111.230469"/>
      </g>
     </g>
    </g>
    <g id="xtick_13">
     <g id="text_33">
      <!-- 4uM -->
      <g style="fill: #262626" transform="translate(520.984789 212.763031) scale(0.154 -0.154)">
       <use xlink:href="#ArialMT-34"/>
       <use xlink:href="#ArialMT-75" x="55.615234"/>
       <use xlink:href="#ArialMT-4d" x="111.230469"/>
      </g>
     </g>
    </g>
    <g id="xtick_14">
     <g id="text_34">
      <!-- 8uM -->
      <g style="fill: #262626" transform="translate(550.546137 212.763031) scale(0.154 -0.154)">
       <use xlink:href="#ArialMT-38"/>
       <use xlink:href="#ArialMT-75" x="55.615234"/>
       <use xlink:href="#ArialMT-4d" x="111.230469"/>
      </g>
     </g>
    </g>
    <g id="xtick_15">
     <g id="text_35">
      <!-- 16uM -->
      <g style="fill: #262626" transform="translate(575.825563 212.763031) scale(0.154 -0.154)">
       <use xlink:href="#ArialMT-31"/>
       <use xlink:href="#ArialMT-36" x="55.615234"/>
       <use xlink:href="#ArialMT-75" x="111.230469"/>
       <use xlink:href="#ArialMT-4d" x="166.845703"/>
      </g>
     </g>
    </g>
    <g id="xtick_16">
     <g id="text_36">
      <!-- 32uM -->
      <g style="fill: #262626" transform="translate(605.38691 212.763031) scale(0.154 -0.154)">
       <use xlink:href="#ArialMT-33"/>
       <use xlink:href="#ArialMT-32" x="55.615234"/>
       <use xlink:href="#ArialMT-75" x="111.230469"/>
       <use xlink:href="#ArialMT-4d" x="166.845703"/>
      </g>
     </g>
    </g>
    <g id="text_37">
     <!-- CX-4945 Concentration -->
     <g style="fill: #262626" transform="translate(433.401818 231.848906) scale(0.168 -0.168)">
      <use xlink:href="#ArialMT-43"/>
      <use xlink:href="#ArialMT-58" x="72.216797"/>
      <use xlink:href="#ArialMT-2d" x="138.916016"/>
      <use xlink:href="#ArialMT-34" x="172.216797"/>
      <use xlink:href="#ArialMT-39" x="227.832031"/>
      <use xlink:href="#ArialMT-34" x="283.447266"/>
      <use xlink:href="#ArialMT-35" x="339.0625"/>
      <use xlink:href="#ArialMT-20" x="394.677734"/>
      <use xlink:href="#ArialMT-43" x="422.460938"/>
      <use xlink:href="#ArialMT-6f" x="494.677734"/>
      <use xlink:href="#ArialMT-6e" x="550.292969"/>
      <use xlink:href="#ArialMT-63" x="605.908203"/>
      <use xlink:href="#ArialMT-65" x="655.908203"/>
      <use xlink:href="#ArialMT-6e" x="711.523438"/>
      <use xlink:href="#ArialMT-74" x="767.138672"/>
      <use xlink:href="#ArialMT-72" x="794.921875"/>
      <use xlink:href="#ArialMT-61" x="828.222656"/>
      <use xlink:href="#ArialMT-74" x="883.837891"/>
      <use xlink:href="#ArialMT-69" x="911.621094"/>
      <use xlink:href="#ArialMT-6f" x="933.837891"/>
      <use xlink:href="#ArialMT-6e" x="989.453125"/>
     </g>
    </g>
   </g>
   <g id="matplotlib.axis_4">
    <g id="ytick_6">
     <g id="line2d_38">
      <path d="M 394.363636 192.24 
L 648 192.24 
" clip-path="url(#p7b562dd6de)" style="fill: none; stroke-dasharray: 1,1.65; stroke-dashoffset: 0; stroke: #cccccc"/>
     </g>
    </g>
    <g id="ytick_7">
     <g id="line2d_39">
      <path d="M 394.363636 157.590931 
L 648 157.590931 
" clip-path="url(#p7b562dd6de)" style="fill: none; stroke-dasharray: 1,1.65; stroke-dashoffset: 0; stroke: #cccccc"/>
     </g>
    </g>
    <g id="ytick_8">
     <g id="line2d_40">
      <path d="M 394.363636 122.941861 
L 648 122.941861 
" clip-path="url(#p7b562dd6de)" style="fill: none; stroke-dasharray: 1,1.65; stroke-dashoffset: 0; stroke: #cccccc"/>
     </g>
    </g>
    <g id="ytick_9">
     <g id="line2d_41">
      <path d="M 394.363636 88.292792 
L 648 88.292792 
" clip-path="url(#p7b562dd6de)" style="fill: none; stroke-dasharray: 1,1.65; stroke-dashoffset: 0; stroke: #cccccc"/>
     </g>
    </g>
    <g id="ytick_10">
     <g id="line2d_42">
      <path d="M 394.363636 53.643723 
L 648 53.643723 
" clip-path="url(#p7b562dd6de)" style="fill: none; stroke-dasharray: 1,1.65; stroke-dashoffset: 0; stroke: #cccccc"/>
     </g>
    </g>
    <g id="text_38">
     <!-- % Survival (Relative to UT) -->
     <g style="fill: #262626" transform="translate(386.827761 209.901) rotate(-90) scale(0.168 -0.168)">
      <use xlink:href="#ArialMT-25"/>
      <use xlink:href="#ArialMT-20" x="88.916016"/>
      <use xlink:href="#ArialMT-53" x="116.699219"/>
      <use xlink:href="#ArialMT-75" x="183.398438"/>
      <use xlink:href="#ArialMT-72" x="239.013672"/>
      <use xlink:href="#ArialMT-76" x="272.314453"/>
      <use xlink:href="#ArialMT-69" x="322.314453"/>
      <use xlink:href="#ArialMT-76" x="344.53125"/>
      <use xlink:href="#ArialMT-61" x="394.53125"/>
      <use xlink:href="#ArialMT-6c" x="450.146484"/>
      <use xlink:href="#ArialMT-20" x="472.363281"/>
      <use xlink:href="#ArialMT-28" x="500.146484"/>
      <use xlink:href="#ArialMT-52" x="533.447266"/>
      <use xlink:href="#ArialMT-65" x="605.664062"/>
      <use xlink:href="#ArialMT-6c" x="661.279297"/>
      <use xlink:href="#ArialMT-61" x="683.496094"/>
      <use xlink:href="#ArialMT-74" x="739.111328"/>
      <use xlink:href="#ArialMT-69" x="766.894531"/>
      <use xlink:href="#ArialMT-76" x="789.111328"/>
      <use xlink:href="#ArialMT-65" x="839.111328"/>
      <use xlink:href="#ArialMT-20" x="894.726562"/>
      <use xlink:href="#ArialMT-74" x="922.509766"/>
      <use xlink:href="#ArialMT-6f" x="950.292969"/>
      <use xlink:href="#ArialMT-20" x="1005.908203"/>
      <use xlink:href="#ArialMT-55" x="1033.691406"/>
      <use xlink:href="#ArialMT-54" x="1105.908203"/>
      <use xlink:href="#ArialMT-29" x="1166.992188"/>
     </g>
    </g>
   </g>
   <g id="patch_36">
    <path d="M 405.892562 192.24 
L 413.775588 192.24 
L 413.775588 78.909462 
L 405.892562 78.909462 
z
" clip-path="url(#p7b562dd6de)" style="fill: #176d9c; stroke: #ffffff; stroke-linejoin: miter"/>
   </g>
   <g id="patch_37">
    <path d="M 435.45391 192.24 
L 443.336936 192.24 
L 443.336936 77.484828 
L 435.45391 77.484828 
z
" clip-path="url(#p7b562dd6de)" style="fill: #176d9c; stroke: #ffffff; stroke-linejoin: miter"/>
   </g>
   <g id="patch_38">
    <path d="M 465.015257 192.24 
L 472.898284 192.24 
L 472.898284 80.930633 
L 465.015257 80.930633 
z
" clip-path="url(#p7b562dd6de)" style="fill: #176d9c; stroke: #ffffff; stroke-linejoin: miter"/>
   </g>
   <g id="patch_39">
    <path d="M 494.576605 192.24 
L 502.459631 192.24 
L 502.459631 92.228023 
L 494.576605 92.228023 
z
" clip-path="url(#p7b562dd6de)" style="fill: #176d9c; stroke: #ffffff; stroke-linejoin: miter"/>
   </g>
   <g id="patch_40">
    <path d="M 524.137953 192.24 
L 532.020979 192.24 
L 532.020979 108.125798 
L 524.137953 108.125798 
z
" clip-path="url(#p7b562dd6de)" style="fill: #176d9c; stroke: #ffffff; stroke-linejoin: miter"/>
   </g>
   <g id="patch_41">
    <path d="M 553.699301 192.24 
L 561.582327 192.24 
L 561.582327 127.266209 
L 553.699301 127.266209 
z
" clip-path="url(#p7b562dd6de)" style="fill: #176d9c; stroke: #ffffff; stroke-linejoin: miter"/>
   </g>
   <g id="patch_42">
    <path d="M 583.260648 192.24 
L 591.143675 192.24 
L 591.143675 151.954872 
L 583.260648 151.954872 
z
" clip-path="url(#p7b562dd6de)" style="fill: #176d9c; stroke: #ffffff; stroke-linejoin: miter"/>
   </g>
   <g id="patch_43">
    <path d="M 612.821996 192.24 
L 620.705022 192.24 
L 620.705022 173.09625 
L 612.821996 173.09625 
z
" clip-path="url(#p7b562dd6de)" style="fill: #176d9c; stroke: #ffffff; stroke-linejoin: miter"/>
   </g>
   <g id="patch_44">
    <path d="M 413.775588 192.24 
L 421.658614 192.24 
L 421.658614 147.608561 
L 413.775588 147.608561 
z
" clip-path="url(#p7b562dd6de)" style="fill: #c38820; stroke: #ffffff; stroke-linejoin: miter"/>
   </g>
   <g id="patch_45">
    <path d="M 443.336936 192.24 
L 451.219962 192.24 
L 451.219962 145.801902 
L 443.336936 145.801902 
z
" clip-path="url(#p7b562dd6de)" style="fill: #c38820; stroke: #ffffff; stroke-linejoin: miter"/>
   </g>
   <g id="patch_46">
    <path d="M 472.898284 192.24 
L 480.78131 192.24 
L 480.78131 147.781988 
L 472.898284 147.781988 
z
" clip-path="url(#p7b562dd6de)" style="fill: #c38820; stroke: #ffffff; stroke-linejoin: miter"/>
   </g>
   <g id="patch_47">
    <path d="M 502.459631 192.24 
L 510.342657 192.24 
L 510.342657 149.90537 
L 502.459631 149.90537 
z
" clip-path="url(#p7b562dd6de)" style="fill: #c38820; stroke: #ffffff; stroke-linejoin: miter"/>
   </g>
   <g id="patch_48">
    <path d="M 532.020979 192.24 
L 539.904005 192.24 
L 539.904005 156.58092 
L 532.020979 156.58092 
z
" clip-path="url(#p7b562dd6de)" style="fill: #c38820; stroke: #ffffff; stroke-linejoin: miter"/>
   </g>
   <g id="patch_49">
    <path d="M 561.582327 192.24 
L 569.465353 192.24 
L 569.465353 163.290135 
L 561.582327 163.290135 
z
" clip-path="url(#p7b562dd6de)" style="fill: #c38820; stroke: #ffffff; stroke-linejoin: miter"/>
   </g>
   <g id="patch_50">
    <path d="M 591.143675 192.24 
L 599.026701 192.24 
L 599.026701 168.820959 
L 591.143675 168.820959 
z
" clip-path="url(#p7b562dd6de)" style="fill: #c38820; stroke: #ffffff; stroke-linejoin: miter"/>
   </g>
   <g id="patch_51">
    <path d="M 620.705022 192.24 
L 628.588048 192.24 
L 628.588048 172.578742 
L 620.705022 172.578742 
z
" clip-path="url(#p7b562dd6de)" style="fill: #c38820; stroke: #ffffff; stroke-linejoin: miter"/>
   </g>
   <g id="patch_52">
    <path d="M 421.658614 192.24 
L 429.54164 192.24 
L 429.54164 147.533982 
L 421.658614 147.533982 
z
" clip-path="url(#p7b562dd6de)" style="fill: #158b6a; stroke: #ffffff; stroke-linejoin: miter"/>
   </g>
   <g id="patch_53">
    <path d="M 451.219962 192.24 
L 459.102988 192.24 
L 459.102988 143.275531 
L 451.219962 143.275531 
z
" clip-path="url(#p7b562dd6de)" style="fill: #158b6a; stroke: #ffffff; stroke-linejoin: miter"/>
   </g>
   <g id="patch_54">
    <path d="M 480.78131 192.24 
L 488.664336 192.24 
L 488.664336 145.668732 
L 480.78131 145.668732 
z
" clip-path="url(#p7b562dd6de)" style="fill: #158b6a; stroke: #ffffff; stroke-linejoin: miter"/>
   </g>
   <g id="patch_55">
    <path d="M 510.342657 192.24 
L 518.225683 192.24 
L 518.225683 147.409994 
L 510.342657 147.409994 
z
" clip-path="url(#p7b562dd6de)" style="fill: #158b6a; stroke: #ffffff; stroke-linejoin: miter"/>
   </g>
   <g id="patch_56">
    <path d="M 539.904005 192.24 
L 547.787031 192.24 
L 547.787031 154.293334 
L 539.904005 154.293334 
z
" clip-path="url(#p7b562dd6de)" style="fill: #158b6a; stroke: #ffffff; stroke-linejoin: miter"/>
   </g>
   <g id="patch_57">
    <path d="M 569.465353 192.24 
L 577.348379 192.24 
L 577.348379 162.002729 
L 569.465353 162.002729 
z
" clip-path="url(#p7b562dd6de)" style="fill: #158b6a; stroke: #ffffff; stroke-linejoin: miter"/>
   </g>
   <g id="patch_58">
    <path d="M 599.026701 192.24 
L 606.909727 192.24 
L 606.909727 167.944878 
L 599.026701 167.944878 
z
" clip-path="url(#p7b562dd6de)" style="fill: #158b6a; stroke: #ffffff; stroke-linejoin: miter"/>
   </g>
   <g id="patch_59">
    <path d="M 628.588048 192.24 
L 636.471074 192.24 
L 636.471074 171.678432 
L 628.588048 171.678432 
z
" clip-path="url(#p7b562dd6de)" style="fill: #158b6a; stroke: #ffffff; stroke-linejoin: miter"/>
   </g>
   <g id="line2d_43">
    <path d="M 409.834075 81.995604 
L 409.834075 75.823319 
" clip-path="url(#p7b562dd6de)" style="fill: none; stroke: #424242; stroke-width: 2.7; stroke-linecap: round"/>
   </g>
   <g id="line2d_44">
    <path d="M 439.395423 79.786821 
L 439.395423 75.182835 
" clip-path="url(#p7b562dd6de)" style="fill: none; stroke: #424242; stroke-width: 2.7; stroke-linecap: round"/>
   </g>
   <g id="line2d_45">
    <path d="M 468.956771 83.616834 
L 468.956771 78.244432 
" clip-path="url(#p7b562dd6de)" style="fill: none; stroke: #424242; stroke-width: 2.7; stroke-linecap: round"/>
   </g>
   <g id="line2d_46">
    <path d="M 498.518118 94.177062 
L 498.518118 90.278984 
" clip-path="url(#p7b562dd6de)" style="fill: none; stroke: #424242; stroke-width: 2.7; stroke-linecap: round"/>
   </g>
   <g id="line2d_47">
    <path d="M 528.079466 110.866832 
L 528.079466 105.384763 
" clip-path="url(#p7b562dd6de)" style="fill: none; stroke: #424242; stroke-width: 2.7; stroke-linecap: round"/>
   </g>
   <g id="line2d_48">
    <path d="M 557.640814 128.996459 
L 557.640814 125.535959 
" clip-path="url(#p7b562dd6de)" style="fill: none; stroke: #424242; stroke-width: 2.7; stroke-linecap: round"/>
   </g>
   <g id="line2d_49">
    <path d="M 587.202161 157.21175 
L 587.202161 146.697995 
" clip-path="url(#p7b562dd6de)" style="fill: none; stroke: #424242; stroke-width: 2.7; stroke-linecap: round"/>
   </g>
   <g id="line2d_50">
    <path d="M 616.763509 174.18481 
L 616.763509 172.00769 
" clip-path="url(#p7b562dd6de)" style="fill: none; stroke: #424242; stroke-width: 2.7; stroke-linecap: round"/>
   </g>
   <g id="line2d_51">
    <path d="M 417.717101 151.852269 
L 417.717101 143.364853 
" clip-path="url(#p7b562dd6de)" style="fill: none; stroke: #424242; stroke-width: 2.7; stroke-linecap: round"/>
   </g>
   <g id="line2d_52">
    <path d="M 447.278449 151.336158 
L 447.278449 140.267646 
" clip-path="url(#p7b562dd6de)" style="fill: none; stroke: #424242; stroke-width: 2.7; stroke-linecap: round"/>
   </g>
   <g id="line2d_53">
    <path d="M 476.839797 151.353082 
L 476.839797 144.210895 
" clip-path="url(#p7b562dd6de)" style="fill: none; stroke: #424242; stroke-width: 2.7; stroke-linecap: round"/>
   </g>
   <g id="line2d_54">
    <path d="M 506.401144 153.332028 
L 506.401144 146.478712 
" clip-path="url(#p7b562dd6de)" style="fill: none; stroke: #424242; stroke-width: 2.7; stroke-linecap: round"/>
   </g>
   <g id="line2d_55">
    <path d="M 535.962492 157.930146 
L 535.962492 155.231694 
" clip-path="url(#p7b562dd6de)" style="fill: none; stroke: #424242; stroke-width: 2.7; stroke-linecap: round"/>
   </g>
   <g id="line2d_56">
    <path d="M 565.52384 164.063402 
L 565.52384 162.516867 
" clip-path="url(#p7b562dd6de)" style="fill: none; stroke: #424242; stroke-width: 2.7; stroke-linecap: round"/>
   </g>
   <g id="line2d_57">
    <path d="M 595.085188 169.017677 
L 595.085188 168.624241 
" clip-path="url(#p7b562dd6de)" style="fill: none; stroke: #424242; stroke-width: 2.7; stroke-linecap: round"/>
   </g>
   <g id="line2d_58">
    <path d="M 624.646535 173.048606 
L 624.646535 172.108879 
" clip-path="url(#p7b562dd6de)" style="fill: none; stroke: #424242; stroke-width: 2.7; stroke-linecap: round"/>
   </g>
   <g id="line2d_59">
    <path d="M 425.600127 150.038968 
L 425.600127 145.028995 
" clip-path="url(#p7b562dd6de)" style="fill: none; stroke: #424242; stroke-width: 2.7; stroke-linecap: round"/>
   </g>
   <g id="line2d_60">
    <path d="M 455.161475 149.344148 
L 455.161475 137.206915 
" clip-path="url(#p7b562dd6de)" style="fill: none; stroke: #424242; stroke-width: 2.7; stroke-linecap: round"/>
   </g>
   <g id="line2d_61">
    <path d="M 484.722823 149.970026 
L 484.722823 141.367438 
" clip-path="url(#p7b562dd6de)" style="fill: none; stroke: #424242; stroke-width: 2.7; stroke-linecap: round"/>
   </g>
   <g id="line2d_62">
    <path d="M 514.28417 150.335865 
L 514.28417 144.484123 
" clip-path="url(#p7b562dd6de)" style="fill: none; stroke: #424242; stroke-width: 2.7; stroke-linecap: round"/>
   </g>
   <g id="line2d_63">
    <path d="M 543.845518 155.82024 
L 543.845518 152.766428 
" clip-path="url(#p7b562dd6de)" style="fill: none; stroke: #424242; stroke-width: 2.7; stroke-linecap: round"/>
   </g>
   <g id="line2d_64">
    <path d="M 573.406866 162.21042 
L 573.406866 161.795037 
" clip-path="url(#p7b562dd6de)" style="fill: none; stroke: #424242; stroke-width: 2.7; stroke-linecap: round"/>
   </g>
   <g id="line2d_65">
    <path d="M 602.968214 168.447703 
L 602.968214 167.442054 
" clip-path="url(#p7b562dd6de)" style="fill: none; stroke: #424242; stroke-width: 2.7; stroke-linecap: round"/>
   </g>
   <g id="line2d_66">
    <path d="M 632.529561 172.745776 
L 632.529561 170.611088 
" clip-path="url(#p7b562dd6de)" style="fill: none; stroke: #424242; stroke-width: 2.7; stroke-linecap: round"/>
   </g>
   <g id="line2d_67">
    <path d="M 447.278449 127.227715 
L 447.278449 123.901315 
L 455.161475 123.901315 
L 455.161475 127.227715 
" clip-path="url(#p7b562dd6de)" style="fill: none; stroke: #333333; stroke-width: 1.5; stroke-linecap: round"/>
   </g>
   <g id="line2d_68">
    <path d="M 476.839797 131.388238 
L 476.839797 128.061838 
L 484.722823 128.061838 
L 484.722823 131.388238 
" clip-path="url(#p7b562dd6de)" style="fill: none; stroke: #333333; stroke-width: 1.5; stroke-linecap: round"/>
   </g>
   <g id="line2d_69">
    <path d="M 506.401144 134.504923 
L 506.401144 131.178523 
L 514.28417 131.178523 
L 514.28417 134.504923 
" clip-path="url(#p7b562dd6de)" style="fill: none; stroke: #333333; stroke-width: 1.5; stroke-linecap: round"/>
   </g>
   <g id="line2d_70">
    <path d="M 535.962492 142.787228 
L 535.962492 139.460828 
L 543.845518 139.460828 
L 543.845518 142.787228 
" clip-path="url(#p7b562dd6de)" style="fill: none; stroke: #333333; stroke-width: 1.5; stroke-linecap: round"/>
   </g>
   <g id="line2d_71">
    <path d="M 565.52384 151.815837 
L 565.52384 148.489437 
L 573.406866 148.489437 
L 573.406866 151.815837 
" clip-path="url(#p7b562dd6de)" style="fill: none; stroke: #333333; stroke-width: 1.5; stroke-linecap: round"/>
   </g>
   <g id="line2d_72">
    <path d="M 595.085188 157.462854 
L 595.085188 154.136454 
L 602.968214 154.136454 
L 602.968214 157.462854 
" clip-path="url(#p7b562dd6de)" style="fill: none; stroke: #333333; stroke-width: 1.5; stroke-linecap: round"/>
   </g>
   <g id="line2d_73">
    <path d="M 624.646535 160.631888 
L 624.646535 157.305488 
L 632.529561 157.305488 
L 632.529561 160.631888 
" clip-path="url(#p7b562dd6de)" style="fill: none; stroke: #333333; stroke-width: 1.5; stroke-linecap: round"/>
   </g>
   <g id="line2d_74">
    <path d="M 417.717101 133.385653 
L 417.717101 130.059253 
L 425.600127 130.059253 
L 425.600127 133.385653 
" clip-path="url(#p7b562dd6de)" style="fill: none; stroke: #333333; stroke-width: 1.5; stroke-linecap: round"/>
   </g>
   <g id="patch_60">
    <path d="M 394.363636 192.24 
L 394.363636 25.92 
" style="fill: none; stroke: #cccccc; stroke-width: 0.6; stroke-linejoin: miter; stroke-linecap: square"/>
   </g>
   <g id="patch_61">
    <path d="M 648 192.24 
L 648 25.92 
" style="fill: none; stroke: #cccccc; stroke-width: 0.6; stroke-linejoin: miter; stroke-linecap: square"/>
   </g>
   <g id="patch_62">
    <path d="M 394.363636 192.24 
L 648 192.24 
" style="fill: none; stroke: #cccccc; stroke-width: 0.6; stroke-linejoin: miter; stroke-linecap: square"/>
   </g>
   <g id="patch_63">
    <path d="M 394.363636 25.92 
L 648 25.92 
" style="fill: none; stroke: #cccccc; stroke-width: 0.6; stroke-linejoin: miter; stroke-linecap: square"/>
   </g>
   <g id="text_39">
    <!-- ns -->
    <g style="fill: #262626" transform="translate(442.348774 119.562315) scale(0.168 -0.168)">
     <use xlink:href="#ArialMT-6e"/>
     <use xlink:href="#ArialMT-73" x="55.615234"/>
    </g>
   </g>
   <g id="text_40">
    <!-- ns -->
    <g style="fill: #262626" transform="translate(471.910122 123.722838) scale(0.168 -0.168)">
     <use xlink:href="#ArialMT-6e"/>
     <use xlink:href="#ArialMT-73" x="55.615234"/>
    </g>
   </g>
   <g id="text_41">
    <!-- ns -->
    <g style="fill: #262626" transform="translate(501.47147 126.839523) scale(0.168 -0.168)">
     <use xlink:href="#ArialMT-6e"/>
     <use xlink:href="#ArialMT-73" x="55.615234"/>
    </g>
   </g>
   <g id="text_42">
    <!-- ns -->
    <g style="fill: #262626" transform="translate(531.032818 135.121828) scale(0.168 -0.168)">
     <use xlink:href="#ArialMT-6e"/>
     <use xlink:href="#ArialMT-73" x="55.615234"/>
    </g>
   </g>
   <g id="text_43">
    <!-- ns -->
    <g style="fill: #262626" transform="translate(560.594165 144.150437) scale(0.168 -0.168)">
     <use xlink:href="#ArialMT-6e"/>
     <use xlink:href="#ArialMT-73" x="55.615234"/>
    </g>
   </g>
   <g id="text_44">
    <!-- ns -->
    <g style="fill: #262626" transform="translate(590.155513 149.797454) scale(0.168 -0.168)">
     <use xlink:href="#ArialMT-6e"/>
     <use xlink:href="#ArialMT-73" x="55.615234"/>
    </g>
   </g>
   <g id="text_45">
    <!-- ns -->
    <g style="fill: #262626" transform="translate(619.716861 152.966488) scale(0.168 -0.168)">
     <use xlink:href="#ArialMT-6e"/>
     <use xlink:href="#ArialMT-73" x="55.615234"/>
    </g>
   </g>
   <g id="text_46">
    <!-- ns -->
    <g style="fill: #262626" transform="translate(412.787427 125.720253) scale(0.168 -0.168)">
     <use xlink:href="#ArialMT-6e"/>
     <use xlink:href="#ArialMT-73" x="55.615234"/>
    </g>
   </g>
   <g id="text_47">
    <!-- PC9 AXL KO -->
    <g style="fill: #262626" transform="translate(472.936943 19.92) scale(0.168 -0.168)">
     <defs>
      <path id="ArialMT-4c" d="M 469 0 
L 469 4581 
L 1075 4581 
L 1075 541 
L 3331 541 
L 3331 0 
L 469 0 
z
" transform="scale(0.015625)"/>
      <path id="ArialMT-4b" d="M 469 0 
L 469 4581 
L 1075 4581 
L 1075 2309 
L 3350 4581 
L 4172 4581 
L 2250 2725 
L 4256 0 
L 3456 0 
L 1825 2319 
L 1075 1588 
L 1075 0 
L 469 0 
z
" transform="scale(0.015625)"/>
      <path id="ArialMT-4f" d="M 309 2231 
Q 309 3372 921 4017 
Q 1534 4663 2503 4663 
Q 3138 4663 3647 4359 
Q 4156 4056 4423 3514 
Q 4691 2972 4691 2284 
Q 4691 1588 4409 1038 
Q 4128 488 3612 205 
Q 3097 -78 2500 -78 
Q 1853 -78 1343 234 
Q 834 547 571 1087 
Q 309 1628 309 2231 
z
M 934 2222 
Q 934 1394 1379 917 
Q 1825 441 2497 441 
Q 3181 441 3623 922 
Q 4066 1403 4066 2288 
Q 4066 2847 3877 3264 
Q 3688 3681 3323 3911 
Q 2959 4141 2506 4141 
Q 1863 4141 1398 3698 
Q 934 3256 934 2222 
z
" transform="scale(0.015625)"/>
     </defs>
     <use xlink:href="#ArialMT-50"/>
     <use xlink:href="#ArialMT-43" x="66.699219"/>
     <use xlink:href="#ArialMT-39" x="138.916016"/>
     <use xlink:href="#ArialMT-20" x="194.53125"/>
     <use xlink:href="#ArialMT-41" x="216.814453"/>
     <use xlink:href="#ArialMT-58" x="283.513672"/>
     <use xlink:href="#ArialMT-4c" x="350.212891"/>
     <use xlink:href="#ArialMT-20" x="402.078125"/>
     <use xlink:href="#ArialMT-4b" x="429.861328"/>
     <use xlink:href="#ArialMT-4f" x="496.560547"/>
    </g>
   </g>
   <g id="legend_2">
    <g id="patch_64">
     <path d="M 555.137125 126.655469 
L 637.22 126.655469 
Q 640.3 126.655469 640.3 123.575469 
L 640.3 36.7 
Q 640.3 33.62 637.22 33.62 
L 555.137125 33.62 
Q 552.057125 33.62 552.057125 36.7 
L 552.057125 123.575469 
Q 552.057125 126.655469 555.137125 126.655469 
z
" style="fill: #ffffff; opacity: 0.8; stroke: #cccccc; stroke-linejoin: miter"/>
    </g>
    <g id="text_48">
     <!-- Treatment -->
     <g style="fill: #262626" transform="translate(558.217125 51.805125) scale(0.168 -0.168)">
      <use xlink:href="#ArialMT-54"/>
      <use xlink:href="#ArialMT-72" x="57.333984"/>
      <use xlink:href="#ArialMT-65" x="90.634766"/>
      <use xlink:href="#ArialMT-61" x="146.25"/>
      <use xlink:href="#ArialMT-74" x="201.865234"/>
      <use xlink:href="#ArialMT-6d" x="229.648438"/>
      <use xlink:href="#ArialMT-65" x="312.949219"/>
      <use xlink:href="#ArialMT-6e" x="368.564453"/>
      <use xlink:href="#ArialMT-74" x="424.179688"/>
     </g>
    </g>
    <g id="patch_65">
     <path d="M 564.346281 73.867156 
L 595.146281 73.867156 
L 595.146281 63.087156 
L 564.346281 63.087156 
z
" style="fill: #176d9c; stroke: #ffffff; stroke-linejoin: miter"/>
    </g>
    <g id="text_49">
     <!-- UT -->
     <g style="fill: #262626" transform="translate(607.466281 73.867156) scale(0.154 -0.154)">
      <use xlink:href="#ArialMT-55"/>
      <use xlink:href="#ArialMT-54" x="72.216797"/>
     </g>
    </g>
    <g id="patch_66">
     <path d="M 564.346281 95.650937 
L 595.146281 95.650937 
L 595.146281 84.870937 
L 564.346281 84.870937 
z
" style="fill: #c38820; stroke: #ffffff; stroke-linejoin: miter"/>
    </g>
    <g id="text_50">
     <!-- EA -->
     <g style="fill: #262626" transform="translate(607.466281 95.650937) scale(0.154 -0.154)">
      <use xlink:href="#ArialMT-45"/>
      <use xlink:href="#ArialMT-41" x="66.699219"/>
     </g>
    </g>
    <g id="patch_67">
     <path d="M 564.346281 117.434719 
L 595.146281 117.434719 
L 595.146281 106.654719 
L 564.346281 106.654719 
z
" style="fill: #158b6a; stroke: #ffffff; stroke-linejoin: miter"/>
    </g>
    <g id="text_51">
     <!-- E -->
     <g style="fill: #262626" transform="translate(607.466281 117.434719) scale(0.154 -0.154)">
      <use xlink:href="#ArialMT-45"/>
     </g>
    </g>
   </g>
  </g>
 </g>
 <defs>
  <clipPath id="p332d4c4c2d">
   <rect x="90" y="25.92" width="253.636364" height="166.32"/>
  </clipPath>
  <clipPath id="p7b562dd6de">
   <rect x="394.363636" y="25.92" width="253.636364" height="166.32"/>
  </clipPath>
 </defs>
</svg>
