<?xml version="1.0" encoding="utf-8" standalone="no"?>
<!DOCTYPE svg PUBLIC "-//W3C//DTD SVG 1.1//EN"
  "http://www.w3.org/Graphics/SVG/1.1/DTD/svg11.dtd">
<svg height="288pt" version="1.1" viewBox="0 0 648 288" width="648pt" xmlns="http://www.w3.org/2000/svg" xmlns:xlink="http://www.w3.org/1999/xlink">
 <metadata>
  <rdf:RDF xmlns:cc="http://creativecommons.org/ns#" xmlns:dc="http://purl.org/dc/elements/1.1/" xmlns:rdf="http://www.w3.org/1999/02/22-rdf-syntax-ns#">
   <cc:Work>
    <dc:type rdf:resource="http://purl.org/dc/dcmitype/StillImage"/>
    <dc:date>2022-04-06T14:10:58.201162</dc:date>
    <dc:format>image/svg+xml</dc:format>
    <dc:creator>
     <cc:Agent>
      <dc:title>Matplotlib v3.4.3, https://matplotlib.org/</dc:title>
     </cc:Agent>
    </dc:creator>
   </cc:Work>
  </rdf:RDF>
 </metadata>
 <defs>
  <style type="text/css">*{stroke-linecap:butt;stroke-linejoin:round;}</style>
 </defs>
 <g id="figure_1">
  <g id="patch_1">
   <path d="M 0 288 
L 648 288 
L 648 0 
L 0 0 
z
" style="fill:#ffffff;"/>
  </g>
  <g id="axes_1">
   <g id="patch_2">
    <path d="M 81 252 
L 309.272727 252 
L 309.272727 34.56 
L 81 34.56 
z
" style="fill:#ffffff;"/>
   </g>
   <g id="matplotlib.axis_1">
    <g id="xtick_1">
     <g id="line2d_1">
      <path clip-path="url(#p1d5ec5914b)" d="M 98.264363 252 
L 98.264363 34.56 
" style="fill:none;stroke:#cccccc;stroke-dasharray:1,1.65;stroke-dashoffset:0;"/>
     </g>
     <g id="text_1">
      <!-- −2 -->
      <g style="fill:#262626;" transform="translate(91.993504 269.373594)scale(0.11 -0.11)">
       <defs>
        <path d="M 3381 1997 
L 356 1997 
L 356 2522 
L 3381 2522 
L 3381 1997 
z
" id="ArialMT-2212" transform="scale(0.015625)"/>
        <path d="M 3222 541 
L 3222 0 
L 194 0 
Q 188 203 259 391 
Q 375 700 629 1000 
Q 884 1300 1366 1694 
Q 2113 2306 2375 2664 
Q 2638 3022 2638 3341 
Q 2638 3675 2398 3904 
Q 2159 4134 1775 4134 
Q 1369 4134 1125 3890 
Q 881 3647 878 3216 
L 300 3275 
Q 359 3922 746 4261 
Q 1134 4600 1788 4600 
Q 2447 4600 2831 4234 
Q 3216 3869 3216 3328 
Q 3216 3053 3103 2787 
Q 2991 2522 2730 2228 
Q 2469 1934 1863 1422 
Q 1356 997 1212 845 
Q 1069 694 975 541 
L 3222 541 
z
" id="ArialMT-32" transform="scale(0.015625)"/>
       </defs>
       <use xlink:href="#ArialMT-2212"/>
       <use x="58.398438" xlink:href="#ArialMT-32"/>
      </g>
     </g>
    </g>
    <g id="xtick_2">
     <g id="line2d_2">
      <path clip-path="url(#p1d5ec5914b)" d="M 141.195702 252 
L 141.195702 34.56 
" style="fill:none;stroke:#cccccc;stroke-dasharray:1,1.65;stroke-dashoffset:0;"/>
     </g>
     <g id="text_2">
      <!-- −1 -->
      <g style="fill:#262626;" transform="translate(134.924842 269.373594)scale(0.11 -0.11)">
       <defs>
        <path d="M 2384 0 
L 1822 0 
L 1822 3584 
Q 1619 3391 1289 3197 
Q 959 3003 697 2906 
L 697 3450 
Q 1169 3672 1522 3987 
Q 1875 4303 2022 4600 
L 2384 4600 
L 2384 0 
z
" id="ArialMT-31" transform="scale(0.015625)"/>
       </defs>
       <use xlink:href="#ArialMT-2212"/>
       <use x="58.398438" xlink:href="#ArialMT-31"/>
      </g>
     </g>
    </g>
    <g id="xtick_3">
     <g id="line2d_3">
      <path clip-path="url(#p1d5ec5914b)" d="M 184.127041 252 
L 184.127041 34.56 
" style="fill:none;stroke:#cccccc;stroke-dasharray:1,1.65;stroke-dashoffset:0;"/>
     </g>
     <g id="text_3">
      <!-- 0 -->
      <g style="fill:#262626;" transform="translate(181.068525 269.373594)scale(0.11 -0.11)">
       <defs>
        <path d="M 266 2259 
Q 266 3072 433 3567 
Q 600 4063 929 4331 
Q 1259 4600 1759 4600 
Q 2128 4600 2406 4451 
Q 2684 4303 2865 4023 
Q 3047 3744 3150 3342 
Q 3253 2941 3253 2259 
Q 3253 1453 3087 958 
Q 2922 463 2592 192 
Q 2263 -78 1759 -78 
Q 1097 -78 719 397 
Q 266 969 266 2259 
z
M 844 2259 
Q 844 1131 1108 757 
Q 1372 384 1759 384 
Q 2147 384 2411 759 
Q 2675 1134 2675 2259 
Q 2675 3391 2411 3762 
Q 2147 4134 1753 4134 
Q 1366 4134 1134 3806 
Q 844 3388 844 2259 
z
" id="ArialMT-30" transform="scale(0.015625)"/>
       </defs>
       <use xlink:href="#ArialMT-30"/>
      </g>
     </g>
    </g>
    <g id="xtick_4">
     <g id="line2d_4">
      <path clip-path="url(#p1d5ec5914b)" d="M 227.058379 252 
L 227.058379 34.56 
" style="fill:none;stroke:#cccccc;stroke-dasharray:1,1.65;stroke-dashoffset:0;"/>
     </g>
     <g id="text_4">
      <!-- 1 -->
      <g style="fill:#262626;" transform="translate(223.999864 269.373594)scale(0.11 -0.11)">
       <use xlink:href="#ArialMT-31"/>
      </g>
     </g>
    </g>
    <g id="xtick_5">
     <g id="line2d_5">
      <path clip-path="url(#p1d5ec5914b)" d="M 269.989718 252 
L 269.989718 34.56 
" style="fill:none;stroke:#cccccc;stroke-dasharray:1,1.65;stroke-dashoffset:0;"/>
     </g>
     <g id="text_5">
      <!-- 2 -->
      <g style="fill:#262626;" transform="translate(266.931203 269.373594)scale(0.11 -0.11)">
       <use xlink:href="#ArialMT-32"/>
      </g>
     </g>
    </g>
    <g id="text_6">
     <!-- PC1 (84%) -->
     <g style="fill:#262626;" transform="translate(170.68402 282.839531)scale(0.1 -0.1)">
      <defs>
       <path d="M 494 0 
L 494 4581 
L 2222 4581 
Q 2678 4581 2919 4538 
Q 3256 4481 3484 4323 
Q 3713 4166 3852 3881 
Q 3991 3597 3991 3256 
Q 3991 2672 3619 2267 
Q 3247 1863 2275 1863 
L 1100 1863 
L 1100 0 
L 494 0 
z
M 1100 2403 
L 2284 2403 
Q 2872 2403 3119 2622 
Q 3366 2841 3366 3238 
Q 3366 3525 3220 3729 
Q 3075 3934 2838 4000 
Q 2684 4041 2272 4041 
L 1100 4041 
L 1100 2403 
z
" id="ArialMT-50" transform="scale(0.015625)"/>
       <path d="M 3763 1606 
L 4369 1453 
Q 4178 706 3683 314 
Q 3188 -78 2472 -78 
Q 1731 -78 1267 223 
Q 803 525 561 1097 
Q 319 1669 319 2325 
Q 319 3041 592 3573 
Q 866 4106 1370 4382 
Q 1875 4659 2481 4659 
Q 3169 4659 3637 4309 
Q 4106 3959 4291 3325 
L 3694 3184 
Q 3534 3684 3231 3912 
Q 2928 4141 2469 4141 
Q 1941 4141 1586 3887 
Q 1231 3634 1087 3207 
Q 944 2781 944 2328 
Q 944 1744 1114 1308 
Q 1284 872 1643 656 
Q 2003 441 2422 441 
Q 2931 441 3284 734 
Q 3638 1028 3763 1606 
z
" id="ArialMT-43" transform="scale(0.015625)"/>
       <path id="ArialMT-20" transform="scale(0.015625)"/>
       <path d="M 1497 -1347 
Q 1031 -759 709 28 
Q 388 816 388 1659 
Q 388 2403 628 3084 
Q 909 3875 1497 4659 
L 1900 4659 
Q 1522 4009 1400 3731 
Q 1209 3300 1100 2831 
Q 966 2247 966 1656 
Q 966 153 1900 -1347 
L 1497 -1347 
z
" id="ArialMT-28" transform="scale(0.015625)"/>
       <path d="M 1131 2484 
Q 781 2613 612 2850 
Q 444 3088 444 3419 
Q 444 3919 803 4259 
Q 1163 4600 1759 4600 
Q 2359 4600 2725 4251 
Q 3091 3903 3091 3403 
Q 3091 3084 2923 2848 
Q 2756 2613 2416 2484 
Q 2838 2347 3058 2040 
Q 3278 1734 3278 1309 
Q 3278 722 2862 322 
Q 2447 -78 1769 -78 
Q 1091 -78 675 323 
Q 259 725 259 1325 
Q 259 1772 486 2073 
Q 713 2375 1131 2484 
z
M 1019 3438 
Q 1019 3113 1228 2906 
Q 1438 2700 1772 2700 
Q 2097 2700 2305 2904 
Q 2513 3109 2513 3406 
Q 2513 3716 2298 3927 
Q 2084 4138 1766 4138 
Q 1444 4138 1231 3931 
Q 1019 3725 1019 3438 
z
M 838 1322 
Q 838 1081 952 856 
Q 1066 631 1291 507 
Q 1516 384 1775 384 
Q 2178 384 2440 643 
Q 2703 903 2703 1303 
Q 2703 1709 2433 1975 
Q 2163 2241 1756 2241 
Q 1359 2241 1098 1978 
Q 838 1716 838 1322 
z
" id="ArialMT-38" transform="scale(0.015625)"/>
       <path d="M 2069 0 
L 2069 1097 
L 81 1097 
L 81 1613 
L 2172 4581 
L 2631 4581 
L 2631 1613 
L 3250 1613 
L 3250 1097 
L 2631 1097 
L 2631 0 
L 2069 0 
z
M 2069 1613 
L 2069 3678 
L 634 1613 
L 2069 1613 
z
" id="ArialMT-34" transform="scale(0.015625)"/>
       <path d="M 372 3481 
Q 372 3972 619 4315 
Q 866 4659 1334 4659 
Q 1766 4659 2048 4351 
Q 2331 4044 2331 3447 
Q 2331 2866 2045 2552 
Q 1759 2238 1341 2238 
Q 925 2238 648 2547 
Q 372 2856 372 3481 
z
M 1350 4272 
Q 1141 4272 1002 4090 
Q 863 3909 863 3425 
Q 863 2984 1003 2804 
Q 1144 2625 1350 2625 
Q 1563 2625 1702 2806 
Q 1841 2988 1841 3469 
Q 1841 3913 1700 4092 
Q 1559 4272 1350 4272 
z
M 1353 -169 
L 3859 4659 
L 4316 4659 
L 1819 -169 
L 1353 -169 
z
M 3334 1075 
Q 3334 1569 3581 1911 
Q 3828 2253 4300 2253 
Q 4731 2253 5014 1945 
Q 5297 1638 5297 1041 
Q 5297 459 5011 145 
Q 4725 -169 4303 -169 
Q 3888 -169 3611 142 
Q 3334 453 3334 1075 
z
M 4316 1866 
Q 4103 1866 3964 1684 
Q 3825 1503 3825 1019 
Q 3825 581 3965 400 
Q 4106 219 4313 219 
Q 4528 219 4667 400 
Q 4806 581 4806 1063 
Q 4806 1506 4665 1686 
Q 4525 1866 4316 1866 
z
" id="ArialMT-25" transform="scale(0.015625)"/>
       <path d="M 791 -1347 
L 388 -1347 
Q 1322 153 1322 1656 
Q 1322 2244 1188 2822 
Q 1081 3291 891 3722 
Q 769 4003 388 4659 
L 791 4659 
Q 1378 3875 1659 3084 
Q 1900 2403 1900 1659 
Q 1900 816 1576 28 
Q 1253 -759 791 -1347 
z
" id="ArialMT-29" transform="scale(0.015625)"/>
      </defs>
      <use xlink:href="#ArialMT-50"/>
      <use x="66.699219" xlink:href="#ArialMT-43"/>
      <use x="138.916016" xlink:href="#ArialMT-31"/>
      <use x="194.53125" xlink:href="#ArialMT-20"/>
      <use x="222.314453" xlink:href="#ArialMT-28"/>
      <use x="255.615234" xlink:href="#ArialMT-38"/>
      <use x="311.230469" xlink:href="#ArialMT-34"/>
      <use x="366.845703" xlink:href="#ArialMT-25"/>
      <use x="455.761719" xlink:href="#ArialMT-29"/>
     </g>
    </g>
   </g>
   <g id="matplotlib.axis_2">
    <g id="ytick_1">
     <g id="line2d_6">
      <path clip-path="url(#p1d5ec5914b)" d="M 81 228.725627 
L 309.272727 228.725627 
" style="fill:none;stroke:#cccccc;stroke-dasharray:1,1.65;stroke-dashoffset:0;"/>
     </g>
     <g id="text_7">
      <!-- −1.0 -->
      <g style="fill:#262626;" transform="translate(49.785313 232.662424)scale(0.11 -0.11)">
       <defs>
        <path d="M 581 0 
L 581 641 
L 1222 641 
L 1222 0 
L 581 0 
z
" id="ArialMT-2e" transform="scale(0.015625)"/>
       </defs>
       <use xlink:href="#ArialMT-2212"/>
       <use x="58.398438" xlink:href="#ArialMT-31"/>
       <use x="114.013672" xlink:href="#ArialMT-2e"/>
       <use x="141.796875" xlink:href="#ArialMT-30"/>
      </g>
     </g>
    </g>
    <g id="ytick_2">
     <g id="line2d_7">
      <path clip-path="url(#p1d5ec5914b)" d="M 81 191.107638 
L 309.272727 191.107638 
" style="fill:none;stroke:#cccccc;stroke-dasharray:1,1.65;stroke-dashoffset:0;"/>
     </g>
     <g id="text_8">
      <!-- −0.5 -->
      <g style="fill:#262626;" transform="translate(49.785313 195.044435)scale(0.11 -0.11)">
       <defs>
        <path d="M 266 1200 
L 856 1250 
Q 922 819 1161 601 
Q 1400 384 1738 384 
Q 2144 384 2425 690 
Q 2706 997 2706 1503 
Q 2706 1984 2436 2262 
Q 2166 2541 1728 2541 
Q 1456 2541 1237 2417 
Q 1019 2294 894 2097 
L 366 2166 
L 809 4519 
L 3088 4519 
L 3088 3981 
L 1259 3981 
L 1013 2750 
Q 1425 3038 1878 3038 
Q 2478 3038 2890 2622 
Q 3303 2206 3303 1553 
Q 3303 931 2941 478 
Q 2500 -78 1738 -78 
Q 1113 -78 717 272 
Q 322 622 266 1200 
z
" id="ArialMT-35" transform="scale(0.015625)"/>
       </defs>
       <use xlink:href="#ArialMT-2212"/>
       <use x="58.398438" xlink:href="#ArialMT-30"/>
       <use x="114.013672" xlink:href="#ArialMT-2e"/>
       <use x="141.796875" xlink:href="#ArialMT-35"/>
      </g>
     </g>
    </g>
    <g id="ytick_3">
     <g id="line2d_8">
      <path clip-path="url(#p1d5ec5914b)" d="M 81 153.489649 
L 309.272727 153.489649 
" style="fill:none;stroke:#cccccc;stroke-dasharray:1,1.65;stroke-dashoffset:0;"/>
     </g>
     <g id="text_9">
      <!-- 0.0 -->
      <g style="fill:#262626;" transform="translate(56.21 157.426446)scale(0.11 -0.11)">
       <use xlink:href="#ArialMT-30"/>
       <use x="55.615234" xlink:href="#ArialMT-2e"/>
       <use x="83.398438" xlink:href="#ArialMT-30"/>
      </g>
     </g>
    </g>
    <g id="ytick_4">
     <g id="line2d_9">
      <path clip-path="url(#p1d5ec5914b)" d="M 81 115.87166 
L 309.272727 115.87166 
" style="fill:none;stroke:#cccccc;stroke-dasharray:1,1.65;stroke-dashoffset:0;"/>
     </g>
     <g id="text_10">
      <!-- 0.5 -->
      <g style="fill:#262626;" transform="translate(56.21 119.808457)scale(0.11 -0.11)">
       <use xlink:href="#ArialMT-30"/>
       <use x="55.615234" xlink:href="#ArialMT-2e"/>
       <use x="83.398438" xlink:href="#ArialMT-35"/>
      </g>
     </g>
    </g>
    <g id="ytick_5">
     <g id="line2d_10">
      <path clip-path="url(#p1d5ec5914b)" d="M 81 78.253671 
L 309.272727 78.253671 
" style="fill:none;stroke:#cccccc;stroke-dasharray:1,1.65;stroke-dashoffset:0;"/>
     </g>
     <g id="text_11">
      <!-- 1.0 -->
      <g style="fill:#262626;" transform="translate(56.21 82.190468)scale(0.11 -0.11)">
       <use xlink:href="#ArialMT-31"/>
       <use x="55.615234" xlink:href="#ArialMT-2e"/>
       <use x="83.398438" xlink:href="#ArialMT-30"/>
      </g>
     </g>
    </g>
    <g id="ytick_6">
     <g id="line2d_11">
      <path clip-path="url(#p1d5ec5914b)" d="M 81 40.635682 
L 309.272727 40.635682 
" style="fill:none;stroke:#cccccc;stroke-dasharray:1,1.65;stroke-dashoffset:0;"/>
     </g>
     <g id="text_12">
      <!-- 1.5 -->
      <g style="fill:#262626;" transform="translate(56.21 44.572479)scale(0.11 -0.11)">
       <use xlink:href="#ArialMT-31"/>
       <use x="55.615234" xlink:href="#ArialMT-2e"/>
       <use x="83.398438" xlink:href="#ArialMT-35"/>
      </g>
     </g>
    </g>
    <g id="text_13">
     <!-- PC2 (9%) -->
     <g style="fill:#262626;" transform="translate(43.680625 164.951875)rotate(-90)scale(0.1 -0.1)">
      <defs>
       <path d="M 350 1059 
L 891 1109 
Q 959 728 1153 556 
Q 1347 384 1650 384 
Q 1909 384 2104 503 
Q 2300 622 2425 820 
Q 2550 1019 2634 1356 
Q 2719 1694 2719 2044 
Q 2719 2081 2716 2156 
Q 2547 1888 2255 1720 
Q 1963 1553 1622 1553 
Q 1053 1553 659 1965 
Q 266 2378 266 3053 
Q 266 3750 677 4175 
Q 1088 4600 1706 4600 
Q 2153 4600 2523 4359 
Q 2894 4119 3086 3673 
Q 3278 3228 3278 2384 
Q 3278 1506 3087 986 
Q 2897 466 2520 194 
Q 2144 -78 1638 -78 
Q 1100 -78 759 220 
Q 419 519 350 1059 
z
M 2653 3081 
Q 2653 3566 2395 3850 
Q 2138 4134 1775 4134 
Q 1400 4134 1122 3828 
Q 844 3522 844 3034 
Q 844 2597 1108 2323 
Q 1372 2050 1759 2050 
Q 2150 2050 2401 2323 
Q 2653 2597 2653 3081 
z
" id="ArialMT-39" transform="scale(0.015625)"/>
      </defs>
      <use xlink:href="#ArialMT-50"/>
      <use x="66.699219" xlink:href="#ArialMT-43"/>
      <use x="138.916016" xlink:href="#ArialMT-32"/>
      <use x="194.53125" xlink:href="#ArialMT-20"/>
      <use x="222.314453" xlink:href="#ArialMT-28"/>
      <use x="255.615234" xlink:href="#ArialMT-39"/>
      <use x="311.230469" xlink:href="#ArialMT-25"/>
      <use x="400.146484" xlink:href="#ArialMT-29"/>
     </g>
    </g>
   </g>
   <g id="PathCollection_1">
    <path clip-path="url(#p1d5ec5914b)" d="M 298.127712 156.379522 
C 299.453727 156.379522 300.725611 155.85269 301.663246 154.915056 
C 302.60088 153.977421 303.127712 152.705537 303.127712 151.379522 
C 303.127712 150.053506 302.60088 148.781622 301.663246 147.843988 
C 300.725611 146.906353 299.453727 146.379522 298.127712 146.379522 
C 296.801696 146.379522 295.529813 146.906353 294.592178 147.843988 
C 293.654543 148.781622 293.127712 150.053506 293.127712 151.379522 
C 293.127712 152.705537 293.654543 153.977421 294.592178 154.915056 
C 295.529813 155.85269 296.801696 156.379522 298.127712 156.379522 
z
" style="fill:#0173b2;stroke:#1a1a1a;stroke-width:0.5;"/>
    <path clip-path="url(#p1d5ec5914b)" d="M 266.209371 157.201354 
C 267.535386 157.201354 268.80727 156.674523 269.744905 155.736888 
C 270.682539 154.799253 271.209371 153.52737 271.209371 152.201354 
C 271.209371 150.875339 270.682539 149.603455 269.744905 148.66582 
C 268.80727 147.728186 267.535386 147.201354 266.209371 147.201354 
C 264.883355 147.201354 263.611472 147.728186 262.673837 148.66582 
C 261.736202 149.603455 261.209371 150.875339 261.209371 152.201354 
C 261.209371 153.52737 261.736202 154.799253 262.673837 155.736888 
C 263.611472 156.674523 264.883355 157.201354 266.209371 157.201354 
z
" style="fill:#de8f05;stroke:#1a1a1a;stroke-width:0.5;"/>
    <path clip-path="url(#p1d5ec5914b)" d="M 284.809454 165.581559 
C 286.135469 165.581559 287.407353 165.054727 288.344988 164.117093 
C 289.282622 163.179458 289.809454 161.907574 289.809454 160.581559 
C 289.809454 159.255543 289.282622 157.98366 288.344988 157.046025 
C 287.407353 156.108391 286.135469 155.581559 284.809454 155.581559 
C 283.483438 155.581559 282.211555 156.108391 281.27392 157.046025 
C 280.336286 157.98366 279.809454 159.255543 279.809454 160.581559 
C 279.809454 161.907574 280.336286 163.179458 281.27392 164.117093 
C 282.211555 165.054727 283.483438 165.581559 284.809454 165.581559 
z
" style="fill:#029e73;stroke:#1a1a1a;stroke-width:0.5;"/>
    <path clip-path="url(#p1d5ec5914b)" d="M 298.896694 154.276837 
C 300.22271 154.276837 301.494594 153.750005 302.432228 152.812371 
C 303.369863 151.874736 303.896694 150.602852 303.896694 149.276837 
C 303.896694 147.950821 303.369863 146.678937 302.432228 145.741303 
C 301.494594 144.803668 300.22271 144.276837 298.896694 144.276837 
C 297.570679 144.276837 296.298795 144.803668 295.36116 145.741303 
C 294.423526 146.678937 293.896694 147.950821 293.896694 149.276837 
C 293.896694 150.602852 294.423526 151.874736 295.36116 152.812371 
C 296.298795 153.750005 297.570679 154.276837 298.896694 154.276837 
z
" style="fill:#d55e00;stroke:#1a1a1a;stroke-width:0.5;"/>
    <path clip-path="url(#p1d5ec5914b)" d="M 282.097188 148.098008 
C 283.423203 148.098008 284.695087 147.571176 285.632722 146.633542 
C 286.570356 145.695907 287.097188 144.424024 287.097188 143.098008 
C 287.097188 141.771993 286.570356 140.500109 285.632722 139.562474 
C 284.695087 138.62484 283.423203 138.098008 282.097188 138.098008 
C 280.771172 138.098008 279.499288 138.62484 278.561654 139.562474 
C 277.624019 140.500109 277.097188 141.771993 277.097188 143.098008 
C 277.097188 144.424024 277.624019 145.695907 278.561654 146.633542 
C 279.499288 147.571176 280.771172 148.098008 282.097188 148.098008 
z
" style="fill:#cc78bc;stroke:#1a1a1a;stroke-width:0.5;"/>
    <path clip-path="url(#p1d5ec5914b)" d="M 291.919238 170.805234 
C 293.245253 170.805234 294.517137 170.278402 295.454772 169.340768 
C 296.392406 168.403133 296.919238 167.131249 296.919238 165.805234 
C 296.919238 164.479218 296.392406 163.207334 295.454772 162.2697 
C 294.517137 161.332065 293.245253 160.805234 291.919238 160.805234 
C 290.593222 160.805234 289.321338 161.332065 288.383704 162.2697 
C 287.446069 163.207334 286.919238 164.479218 286.919238 165.805234 
C 286.919238 167.131249 287.446069 168.403133 288.383704 169.340768 
C 289.321338 170.278402 290.593222 170.805234 291.919238 170.805234 
z
" style="fill:#ca9161;stroke:#1a1a1a;stroke-width:0.5;"/>
    <path clip-path="url(#p1d5ec5914b)" d="M 279.500848 174.376077 
C 280.826863 174.376077 282.098747 173.849246 283.036382 172.911611 
C 283.974016 171.973977 284.500848 170.702093 284.500848 169.376077 
C 284.500848 168.050062 283.974016 166.778178 283.036382 165.840543 
C 282.098747 164.902909 280.826863 164.376077 279.500848 164.376077 
C 278.174832 164.376077 276.902949 164.902909 275.965314 165.840543 
C 275.027679 166.778178 274.500848 168.050062 274.500848 169.376077 
C 274.500848 170.702093 275.027679 171.973977 275.965314 172.911611 
C 276.902949 173.849246 278.174832 174.376077 279.500848 174.376077 
z
" style="fill:#fbafe4;stroke:#1a1a1a;stroke-width:0.5;"/>
    <path clip-path="url(#p1d5ec5914b)" d="M 297.869799 158.869579 
C 299.195814 158.869579 300.467698 158.342748 301.405333 157.405113 
C 302.342967 156.467479 302.869799 155.195595 302.869799 153.869579 
C 302.869799 152.543564 302.342967 151.27168 301.405333 150.334045 
C 300.467698 149.396411 299.195814 148.869579 297.869799 148.869579 
C 296.543783 148.869579 295.271899 149.396411 294.334265 150.334045 
C 293.39663 151.27168 292.869799 152.543564 292.869799 153.869579 
C 292.869799 155.195595 293.39663 156.467479 294.334265 157.405113 
C 295.271899 158.342748 296.543783 158.869579 297.869799 158.869579 
z
" style="fill:#949494;stroke:#1a1a1a;stroke-width:0.5;"/>
    <path clip-path="url(#p1d5ec5914b)" d="M 294.417303 158.663669 
C 295.743318 158.663669 297.015202 158.136837 297.952837 157.199203 
C 298.890471 156.261568 299.417303 154.989684 299.417303 153.663669 
C 299.417303 152.337653 298.890471 151.065769 297.952837 150.128135 
C 297.015202 149.1905 295.743318 148.663669 294.417303 148.663669 
C 293.091287 148.663669 291.819404 149.1905 290.881769 150.128135 
C 289.944134 151.065769 289.417303 152.337653 289.417303 153.663669 
C 289.417303 154.989684 289.944134 156.261568 290.881769 157.199203 
C 291.819404 158.136837 293.091287 158.663669 294.417303 158.663669 
z
" style="fill:#ece133;stroke:#1a1a1a;stroke-width:0.5;"/>
    <path clip-path="url(#p1d5ec5914b)" d="M 287.383629 171.805642 
C 288.709644 171.805642 289.981528 171.278811 290.919163 170.341176 
C 291.856797 169.403541 292.383629 168.131658 292.383629 166.805642 
C 292.383629 165.479627 291.856797 164.207743 290.919163 163.270108 
C 289.981528 162.332474 288.709644 161.805642 287.383629 161.805642 
C 286.057613 161.805642 284.785729 162.332474 283.848095 163.270108 
C 282.91046 164.207743 282.383629 165.479627 282.383629 166.805642 
C 282.383629 168.131658 282.91046 169.403541 283.848095 170.341176 
C 284.785729 171.278811 286.057613 171.805642 287.383629 171.805642 
z
" style="fill:#56b4e9;stroke:#1a1a1a;stroke-width:0.5;"/>
    <path clip-path="url(#p1d5ec5914b)" d="M 88.876033 63.082529 
L 91.376033 60.582529 
L 93.876033 63.082529 
L 96.376033 60.582529 
L 93.876033 58.082529 
L 96.376033 55.582529 
L 93.876033 53.082529 
L 91.376033 55.582529 
L 88.876033 53.082529 
L 86.376033 55.582529 
L 88.876033 58.082529 
L 86.376033 60.582529 
z
" style="fill:#0173b2;stroke:#1a1a1a;stroke-width:0.5;"/>
    <path clip-path="url(#p1d5ec5914b)" d="M 101.625971 107.356514 
L 104.125971 104.856514 
L 106.625971 107.356514 
L 109.125971 104.856514 
L 106.625971 102.356514 
L 109.125971 99.856514 
L 106.625971 97.356514 
L 104.125971 99.856514 
L 101.625971 97.356514 
L 99.125971 99.856514 
L 101.625971 102.356514 
L 99.125971 104.856514 
z
" style="fill:#de8f05;stroke:#1a1a1a;stroke-width:0.5;"/>
    <path clip-path="url(#p1d5ec5914b)" d="M 90.345625 164.071564 
L 92.845625 161.571564 
L 95.345625 164.071564 
L 97.845625 161.571564 
L 95.345625 159.071564 
L 97.845625 156.571564 
L 95.345625 154.071564 
L 92.845625 156.571564 
L 90.345625 154.071564 
L 87.845625 156.571564 
L 90.345625 159.071564 
L 87.845625 161.571564 
z
" style="fill:#029e73;stroke:#1a1a1a;stroke-width:0.5;"/>
    <path clip-path="url(#p1d5ec5914b)" d="M 112.373594 185.617656 
L 114.873594 183.117656 
L 117.373594 185.617656 
L 119.873594 183.117656 
L 117.373594 180.617656 
L 119.873594 178.117656 
L 117.373594 175.617656 
L 114.873594 178.117656 
L 112.373594 175.617656 
L 109.873594 178.117656 
L 112.373594 180.617656 
L 109.873594 183.117656 
z
" style="fill:#d55e00;stroke:#1a1a1a;stroke-width:0.5;"/>
    <path clip-path="url(#p1d5ec5914b)" d="M 135.368914 131.007002 
L 137.868914 128.507002 
L 140.368914 131.007002 
L 142.868914 128.507002 
L 140.368914 126.007002 
L 142.868914 123.507002 
L 140.368914 121.007002 
L 137.868914 123.507002 
L 135.368914 121.007002 
L 132.868914 123.507002 
L 135.368914 126.007002 
L 132.868914 128.507002 
z
" style="fill:#cc78bc;stroke:#1a1a1a;stroke-width:0.5;"/>
    <path clip-path="url(#p1d5ec5914b)" d="M 125.696468 134.172009 
L 128.196468 131.672009 
L 130.696468 134.172009 
L 133.196468 131.672009 
L 130.696468 129.172009 
L 133.196468 126.672009 
L 130.696468 124.172009 
L 128.196468 126.672009 
L 125.696468 124.172009 
L 123.196468 126.672009 
L 125.696468 129.172009 
L 123.196468 131.672009 
z
" style="fill:#ca9161;stroke:#1a1a1a;stroke-width:0.5;"/>
    <path clip-path="url(#p1d5ec5914b)" d="M 126.52555 161.765138 
L 129.02555 159.265138 
L 131.52555 161.765138 
L 134.02555 159.265138 
L 131.52555 156.765138 
L 134.02555 154.265138 
L 131.52555 151.765138 
L 129.02555 154.265138 
L 126.52555 151.765138 
L 124.02555 154.265138 
L 126.52555 156.765138 
L 124.02555 159.265138 
z
" style="fill:#fbafe4;stroke:#1a1a1a;stroke-width:0.5;"/>
    <path clip-path="url(#p1d5ec5914b)" d="M 106.744357 201.518066 
L 109.244357 199.018066 
L 111.744357 201.518066 
L 114.244357 199.018066 
L 111.744357 196.518066 
L 114.244357 194.018066 
L 111.744357 191.518066 
L 109.244357 194.018066 
L 106.744357 191.518066 
L 104.244357 194.018066 
L 106.744357 196.518066 
L 104.244357 199.018066 
z
" style="fill:#949494;stroke:#1a1a1a;stroke-width:0.5;"/>
    <path clip-path="url(#p1d5ec5914b)" d="M 111.706413 247.116364 
L 114.206413 244.616364 
L 116.706413 247.116364 
L 119.206413 244.616364 
L 116.706413 242.116364 
L 119.206413 239.616364 
L 116.706413 237.116364 
L 114.206413 239.616364 
L 111.706413 237.116364 
L 109.206413 239.616364 
L 111.706413 242.116364 
L 109.206413 244.616364 
z
" style="fill:#ece133;stroke:#1a1a1a;stroke-width:0.5;"/>
    <path clip-path="url(#p1d5ec5914b)" d="M 94.544104 206.870453 
L 97.044104 204.370453 
L 99.544104 206.870453 
L 102.044104 204.370453 
L 99.544104 201.870453 
L 102.044104 199.370453 
L 99.544104 196.870453 
L 97.044104 199.370453 
L 94.544104 196.870453 
L 92.044104 199.370453 
L 94.544104 201.870453 
L 92.044104 204.370453 
z
" style="fill:#56b4e9;stroke:#1a1a1a;stroke-width:0.5;"/>
    <path clip-path="url(#p1d5ec5914b)" d="M 181.346808 117.693226 
L 181.346808 124.764294 
L 188.417875 124.764294 
L 188.417875 117.693226 
z
" style="fill:#0173b2;stroke:#1a1a1a;stroke-width:0.5;"/>
    <path clip-path="url(#p1d5ec5914b)" d="M 97.821751 40.908102 
L 97.821751 47.97917 
L 104.892819 47.97917 
L 104.892819 40.908102 
z
" style="fill:#de8f05;stroke:#1a1a1a;stroke-width:0.5;"/>
    <path clip-path="url(#p1d5ec5914b)" d="M 92.145483 176.377856 
L 92.145483 183.448924 
L 99.216551 183.448924 
L 99.216551 176.377856 
z
" style="fill:#029e73;stroke:#1a1a1a;stroke-width:0.5;"/>
    <path clip-path="url(#p1d5ec5914b)" d="M 121.507904 236.14435 
L 121.507904 243.215418 
L 128.578972 243.215418 
L 128.578972 236.14435 
z
" style="fill:#d55e00;stroke:#1a1a1a;stroke-width:0.5;"/>
    <path clip-path="url(#p1d5ec5914b)" d="M 162.382909 136.202037 
L 162.382909 143.273105 
L 169.453976 143.273105 
L 169.453976 136.202037 
z
" style="fill:#cc78bc;stroke:#1a1a1a;stroke-width:0.5;"/>
    <path clip-path="url(#p1d5ec5914b)" d="M 168.649159 89.889164 
L 168.649159 96.960232 
L 175.720227 96.960232 
L 175.720227 89.889164 
z
" style="fill:#ca9161;stroke:#1a1a1a;stroke-width:0.5;"/>
    <path clip-path="url(#p1d5ec5914b)" d="M 191.919968 106.753506 
L 191.919968 113.824574 
L 198.991036 113.824574 
L 198.991036 106.753506 
z
" style="fill:#fbafe4;stroke:#1a1a1a;stroke-width:0.5;"/>
    <path clip-path="url(#p1d5ec5914b)" d="M 185.430583 129.394964 
L 185.430583 136.466032 
L 192.501651 136.466032 
L 192.501651 129.394964 
z
" style="fill:#949494;stroke:#1a1a1a;stroke-width:0.5;"/>
    <path clip-path="url(#p1d5ec5914b)" d="M 148.025017 194.609256 
L 148.025017 201.680323 
L 155.096085 201.680323 
L 155.096085 194.609256 
z
" style="fill:#ece133;stroke:#1a1a1a;stroke-width:0.5;"/>
    <path clip-path="url(#p1d5ec5914b)" d="M 139.188034 222.726893 
L 139.188034 229.797961 
L 146.259101 229.797961 
L 146.259101 222.726893 
z
" style="fill:#56b4e9;stroke:#1a1a1a;stroke-width:0.5;"/>
   </g>
   <g id="PathCollection_2"/>
   <g id="PathCollection_3"/>
   <g id="PathCollection_4"/>
   <g id="PathCollection_5"/>
   <g id="PathCollection_6"/>
   <g id="PathCollection_7"/>
   <g id="PathCollection_8"/>
   <g id="PathCollection_9"/>
   <g id="PathCollection_10"/>
   <g id="PathCollection_11"/>
   <g id="PathCollection_12"/>
   <g id="PathCollection_13"/>
   <g id="PathCollection_14"/>
   <g id="line2d_12">
    <path clip-path="url(#p1d5ec5914b)" d="M 81 153.489649 
L 309.272727 153.489649 
" style="fill:none;stroke:#d3d3d3;stroke-dasharray:5.55,2.4;stroke-dashoffset:0;stroke-width:1.5;"/>
   </g>
   <g id="line2d_13">
    <path clip-path="url(#p1d5ec5914b)" d="M 184.127041 252 
L 184.127041 34.56 
" style="fill:none;stroke:#d3d3d3;stroke-dasharray:5.55,2.4;stroke-dashoffset:0;stroke-width:1.5;"/>
   </g>
   <g id="patch_3">
    <path d="M 81 252 
L 81 34.56 
" style="fill:none;stroke:#cccccc;stroke-linecap:square;stroke-linejoin:miter;stroke-width:0.6;"/>
   </g>
   <g id="patch_4">
    <path d="M 309.272727 252 
L 309.272727 34.56 
" style="fill:none;stroke:#cccccc;stroke-linecap:square;stroke-linejoin:miter;stroke-width:0.6;"/>
   </g>
   <g id="patch_5">
    <path d="M 81 252 
L 309.272727 252 
" style="fill:none;stroke:#cccccc;stroke-linecap:square;stroke-linejoin:miter;stroke-width:0.6;"/>
   </g>
   <g id="patch_6">
    <path d="M 81 34.56 
L 309.272727 34.56 
" style="fill:none;stroke:#cccccc;stroke-linecap:square;stroke-linejoin:miter;stroke-width:0.6;"/>
   </g>
   <g id="text_14">
    <!-- PCA Scores -->
    <g style="fill:#262626;" transform="translate(162.788864 28.56)scale(0.12 -0.12)">
     <defs>
      <path d="M -9 0 
L 1750 4581 
L 2403 4581 
L 4278 0 
L 3588 0 
L 3053 1388 
L 1138 1388 
L 634 0 
L -9 0 
z
M 1313 1881 
L 2866 1881 
L 2388 3150 
Q 2169 3728 2063 4100 
Q 1975 3659 1816 3225 
L 1313 1881 
z
" id="ArialMT-41" transform="scale(0.015625)"/>
      <path d="M 288 1472 
L 859 1522 
Q 900 1178 1048 958 
Q 1197 738 1509 602 
Q 1822 466 2213 466 
Q 2559 466 2825 569 
Q 3091 672 3220 851 
Q 3350 1031 3350 1244 
Q 3350 1459 3225 1620 
Q 3100 1781 2813 1891 
Q 2628 1963 1997 2114 
Q 1366 2266 1113 2400 
Q 784 2572 623 2826 
Q 463 3081 463 3397 
Q 463 3744 659 4045 
Q 856 4347 1234 4503 
Q 1613 4659 2075 4659 
Q 2584 4659 2973 4495 
Q 3363 4331 3572 4012 
Q 3781 3694 3797 3291 
L 3216 3247 
Q 3169 3681 2898 3903 
Q 2628 4125 2100 4125 
Q 1550 4125 1298 3923 
Q 1047 3722 1047 3438 
Q 1047 3191 1225 3031 
Q 1400 2872 2139 2705 
Q 2878 2538 3153 2413 
Q 3553 2228 3743 1945 
Q 3934 1663 3934 1294 
Q 3934 928 3725 604 
Q 3516 281 3123 101 
Q 2731 -78 2241 -78 
Q 1619 -78 1198 103 
Q 778 284 539 648 
Q 300 1013 288 1472 
z
" id="ArialMT-53" transform="scale(0.015625)"/>
      <path d="M 2588 1216 
L 3141 1144 
Q 3050 572 2676 248 
Q 2303 -75 1759 -75 
Q 1078 -75 664 370 
Q 250 816 250 1647 
Q 250 2184 428 2587 
Q 606 2991 970 3192 
Q 1334 3394 1763 3394 
Q 2303 3394 2647 3120 
Q 2991 2847 3088 2344 
L 2541 2259 
Q 2463 2594 2264 2762 
Q 2066 2931 1784 2931 
Q 1359 2931 1093 2626 
Q 828 2322 828 1663 
Q 828 994 1084 691 
Q 1341 388 1753 388 
Q 2084 388 2306 591 
Q 2528 794 2588 1216 
z
" id="ArialMT-63" transform="scale(0.015625)"/>
      <path d="M 213 1659 
Q 213 2581 725 3025 
Q 1153 3394 1769 3394 
Q 2453 3394 2887 2945 
Q 3322 2497 3322 1706 
Q 3322 1066 3130 698 
Q 2938 331 2570 128 
Q 2203 -75 1769 -75 
Q 1072 -75 642 372 
Q 213 819 213 1659 
z
M 791 1659 
Q 791 1022 1069 705 
Q 1347 388 1769 388 
Q 2188 388 2466 706 
Q 2744 1025 2744 1678 
Q 2744 2294 2464 2611 
Q 2184 2928 1769 2928 
Q 1347 2928 1069 2612 
Q 791 2297 791 1659 
z
" id="ArialMT-6f" transform="scale(0.015625)"/>
      <path d="M 416 0 
L 416 3319 
L 922 3319 
L 922 2816 
Q 1116 3169 1280 3281 
Q 1444 3394 1641 3394 
Q 1925 3394 2219 3213 
L 2025 2691 
Q 1819 2813 1613 2813 
Q 1428 2813 1281 2702 
Q 1134 2591 1072 2394 
Q 978 2094 978 1738 
L 978 0 
L 416 0 
z
" id="ArialMT-72" transform="scale(0.015625)"/>
      <path d="M 2694 1069 
L 3275 997 
Q 3138 488 2766 206 
Q 2394 -75 1816 -75 
Q 1088 -75 661 373 
Q 234 822 234 1631 
Q 234 2469 665 2931 
Q 1097 3394 1784 3394 
Q 2450 3394 2872 2941 
Q 3294 2488 3294 1666 
Q 3294 1616 3291 1516 
L 816 1516 
Q 847 969 1125 678 
Q 1403 388 1819 388 
Q 2128 388 2347 550 
Q 2566 713 2694 1069 
z
M 847 1978 
L 2700 1978 
Q 2663 2397 2488 2606 
Q 2219 2931 1791 2931 
Q 1403 2931 1139 2672 
Q 875 2413 847 1978 
z
" id="ArialMT-65" transform="scale(0.015625)"/>
      <path d="M 197 991 
L 753 1078 
Q 800 744 1014 566 
Q 1228 388 1613 388 
Q 2000 388 2187 545 
Q 2375 703 2375 916 
Q 2375 1106 2209 1216 
Q 2094 1291 1634 1406 
Q 1016 1563 777 1677 
Q 538 1791 414 1992 
Q 291 2194 291 2438 
Q 291 2659 392 2848 
Q 494 3038 669 3163 
Q 800 3259 1026 3326 
Q 1253 3394 1513 3394 
Q 1903 3394 2198 3281 
Q 2494 3169 2634 2976 
Q 2775 2784 2828 2463 
L 2278 2388 
Q 2241 2644 2061 2787 
Q 1881 2931 1553 2931 
Q 1166 2931 1000 2803 
Q 834 2675 834 2503 
Q 834 2394 903 2306 
Q 972 2216 1119 2156 
Q 1203 2125 1616 2013 
Q 2213 1853 2448 1751 
Q 2684 1650 2818 1456 
Q 2953 1263 2953 975 
Q 2953 694 2789 445 
Q 2625 197 2315 61 
Q 2006 -75 1616 -75 
Q 969 -75 630 194 
Q 291 463 197 991 
z
" id="ArialMT-73" transform="scale(0.015625)"/>
     </defs>
     <use xlink:href="#ArialMT-50"/>
     <use x="66.699219" xlink:href="#ArialMT-43"/>
     <use x="138.916016" xlink:href="#ArialMT-41"/>
     <use x="200.115234" xlink:href="#ArialMT-20"/>
     <use x="227.898438" xlink:href="#ArialMT-53"/>
     <use x="294.597656" xlink:href="#ArialMT-63"/>
     <use x="344.597656" xlink:href="#ArialMT-6f"/>
     <use x="400.212891" xlink:href="#ArialMT-72"/>
     <use x="433.513672" xlink:href="#ArialMT-65"/>
     <use x="489.128906" xlink:href="#ArialMT-73"/>
    </g>
   </g>
   <g id="legend_1">
    <g id="patch_7">
     <path d="M 164.259489 248 
L 226.013239 248 
Q 227.613239 248 227.613239 246.4 
L 227.613239 77.45625 
Q 227.613239 75.85625 226.013239 75.85625 
L 164.259489 75.85625 
Q 162.659489 75.85625 162.659489 77.45625 
L 162.659489 246.4 
Q 162.659489 248 164.259489 248 
z
" style="fill:#ffffff;opacity:0.8;stroke:#cccccc;stroke-linejoin:miter;"/>
    </g>
    <g id="text_15">
     <!-- Lines -->
     <g style="fill:#262626;" transform="translate(188.259489 84.7825)scale(0.08 -0.08)">
      <defs>
       <path d="M 469 0 
L 469 4581 
L 1075 4581 
L 1075 541 
L 3331 541 
L 3331 0 
L 469 0 
z
" id="ArialMT-4c" transform="scale(0.015625)"/>
       <path d="M 425 3934 
L 425 4581 
L 988 4581 
L 988 3934 
L 425 3934 
z
M 425 0 
L 425 3319 
L 988 3319 
L 988 0 
L 425 0 
z
" id="ArialMT-69" transform="scale(0.015625)"/>
       <path d="M 422 0 
L 422 3319 
L 928 3319 
L 928 2847 
Q 1294 3394 1984 3394 
Q 2284 3394 2536 3286 
Q 2788 3178 2913 3003 
Q 3038 2828 3088 2588 
Q 3119 2431 3119 2041 
L 3119 0 
L 2556 0 
L 2556 2019 
Q 2556 2363 2490 2533 
Q 2425 2703 2258 2804 
Q 2091 2906 1866 2906 
Q 1506 2906 1245 2678 
Q 984 2450 984 1813 
L 984 0 
L 422 0 
z
" id="ArialMT-6e" transform="scale(0.015625)"/>
      </defs>
      <use xlink:href="#ArialMT-4c"/>
      <use x="55.615234" xlink:href="#ArialMT-69"/>
      <use x="77.832031" xlink:href="#ArialMT-6e"/>
      <use x="133.447266" xlink:href="#ArialMT-65"/>
      <use x="189.0625" xlink:href="#ArialMT-73"/>
     </g>
    </g>
    <g id="PathCollection_15">
     <defs>
      <path d="M 0 3 
C 0.795609 3 1.55874 2.683901 2.12132 2.12132 
C 2.683901 1.55874 3 0.795609 3 0 
C 3 -0.795609 2.683901 -1.55874 2.12132 -2.12132 
C 1.55874 -2.683901 0.795609 -3 0 -3 
C -0.795609 -3 -1.55874 -2.683901 -2.12132 -2.12132 
C -2.683901 -1.55874 -3 -0.795609 -3 0 
C -3 0.795609 -2.683901 1.55874 -2.12132 2.12132 
C -1.55874 2.683901 -0.795609 3 0 3 
z
" id="m1004f2d2e3" style="stroke:#0173b2;"/>
     </defs>
     <g>
      <use style="fill:#0173b2;stroke:#0173b2;" x="173.859489" xlink:href="#m1004f2d2e3" y="93.99875"/>
     </g>
    </g>
    <g id="text_16">
     <!-- WT -->
     <g style="fill:#262626;" transform="translate(188.259489 96.09875)scale(0.08 -0.08)">
      <defs>
       <path d="M 1294 0 
L 78 4581 
L 700 4581 
L 1397 1578 
Q 1509 1106 1591 641 
Q 1766 1375 1797 1488 
L 2669 4581 
L 3400 4581 
L 4056 2263 
Q 4303 1400 4413 641 
Q 4500 1075 4641 1638 
L 5359 4581 
L 5969 4581 
L 4713 0 
L 4128 0 
L 3163 3491 
Q 3041 3928 3019 4028 
Q 2947 3713 2884 3491 
L 1913 0 
L 1294 0 
z
" id="ArialMT-57" transform="scale(0.015625)"/>
       <path d="M 1659 0 
L 1659 4041 
L 150 4041 
L 150 4581 
L 3781 4581 
L 3781 4041 
L 2266 4041 
L 2266 0 
L 1659 0 
z
" id="ArialMT-54" transform="scale(0.015625)"/>
      </defs>
      <use xlink:href="#ArialMT-57"/>
      <use x="94.384766" xlink:href="#ArialMT-54"/>
     </g>
    </g>
    <g id="PathCollection_16">
     <defs>
      <path d="M 0 3 
C 0.795609 3 1.55874 2.683901 2.12132 2.12132 
C 2.683901 1.55874 3 0.795609 3 0 
C 3 -0.795609 2.683901 -1.55874 2.12132 -2.12132 
C 1.55874 -2.683901 0.795609 -3 0 -3 
C -0.795609 -3 -1.55874 -2.683901 -2.12132 -2.12132 
C -2.683901 -1.55874 -3 -0.795609 -3 0 
C -3 0.795609 -2.683901 1.55874 -2.12132 2.12132 
C -1.55874 2.683901 -0.795609 3 0 3 
z
" id="m0ccad3a4ff" style="stroke:#de8f05;"/>
     </defs>
     <g>
      <use style="fill:#de8f05;stroke:#de8f05;" x="173.859489" xlink:href="#m0ccad3a4ff" y="105.315"/>
     </g>
    </g>
    <g id="text_17">
     <!-- KO -->
     <g style="fill:#262626;" transform="translate(188.259489 107.415)scale(0.08 -0.08)">
      <defs>
       <path d="M 469 0 
L 469 4581 
L 1075 4581 
L 1075 2309 
L 3350 4581 
L 4172 4581 
L 2250 2725 
L 4256 0 
L 3456 0 
L 1825 2319 
L 1075 1588 
L 1075 0 
L 469 0 
z
" id="ArialMT-4b" transform="scale(0.015625)"/>
       <path d="M 309 2231 
Q 309 3372 921 4017 
Q 1534 4663 2503 4663 
Q 3138 4663 3647 4359 
Q 4156 4056 4423 3514 
Q 4691 2972 4691 2284 
Q 4691 1588 4409 1038 
Q 4128 488 3612 205 
Q 3097 -78 2500 -78 
Q 1853 -78 1343 234 
Q 834 547 571 1087 
Q 309 1628 309 2231 
z
M 934 2222 
Q 934 1394 1379 917 
Q 1825 441 2497 441 
Q 3181 441 3623 922 
Q 4066 1403 4066 2288 
Q 4066 2847 3877 3264 
Q 3688 3681 3323 3911 
Q 2959 4141 2506 4141 
Q 1863 4141 1398 3698 
Q 934 3256 934 2222 
z
" id="ArialMT-4f" transform="scale(0.015625)"/>
      </defs>
      <use xlink:href="#ArialMT-4b"/>
      <use x="66.699219" xlink:href="#ArialMT-4f"/>
     </g>
    </g>
    <g id="PathCollection_17">
     <defs>
      <path d="M 0 3 
C 0.795609 3 1.55874 2.683901 2.12132 2.12132 
C 2.683901 1.55874 3 0.795609 3 0 
C 3 -0.795609 2.683901 -1.55874 2.12132 -2.12132 
C 1.55874 -2.683901 0.795609 -3 0 -3 
C -0.795609 -3 -1.55874 -2.683901 -2.12132 -2.12132 
C -2.683901 -1.55874 -3 -0.795609 -3 0 
C -3 0.795609 -2.683901 1.55874 -2.12132 2.12132 
C -1.55874 2.683901 -0.795609 3 0 3 
z
" id="m32d46b5588" style="stroke:#029e73;"/>
     </defs>
     <g>
      <use style="fill:#029e73;stroke:#029e73;" x="173.859489" xlink:href="#m32d46b5588" y="116.63125"/>
     </g>
    </g>
    <g id="text_18">
     <!-- KD -->
     <g style="fill:#262626;" transform="translate(188.259489 118.73125)scale(0.08 -0.08)">
      <defs>
       <path d="M 494 0 
L 494 4581 
L 2072 4581 
Q 2606 4581 2888 4516 
Q 3281 4425 3559 4188 
Q 3922 3881 4101 3404 
Q 4281 2928 4281 2316 
Q 4281 1794 4159 1391 
Q 4038 988 3847 723 
Q 3656 459 3429 307 
Q 3203 156 2883 78 
Q 2563 0 2147 0 
L 494 0 
z
M 1100 541 
L 2078 541 
Q 2531 541 2789 625 
Q 3047 709 3200 863 
Q 3416 1078 3536 1442 
Q 3656 1806 3656 2325 
Q 3656 3044 3420 3430 
Q 3184 3816 2847 3947 
Q 2603 4041 2063 4041 
L 1100 4041 
L 1100 541 
z
" id="ArialMT-44" transform="scale(0.015625)"/>
      </defs>
      <use xlink:href="#ArialMT-4b"/>
      <use x="66.699219" xlink:href="#ArialMT-44"/>
     </g>
    </g>
    <g id="PathCollection_18">
     <defs>
      <path d="M 0 3 
C 0.795609 3 1.55874 2.683901 2.12132 2.12132 
C 2.683901 1.55874 3 0.795609 3 0 
C 3 -0.795609 2.683901 -1.55874 2.12132 -2.12132 
C 1.55874 -2.683901 0.795609 -3 0 -3 
C -0.795609 -3 -1.55874 -2.683901 -2.12132 -2.12132 
C -2.683901 -1.55874 -3 -0.795609 -3 0 
C -3 0.795609 -2.683901 1.55874 -2.12132 2.12132 
C -1.55874 2.683901 -0.795609 3 0 3 
z
" id="m4f3ee39f81" style="stroke:#d55e00;"/>
     </defs>
     <g>
      <use style="fill:#d55e00;stroke:#d55e00;" x="173.859489" xlink:href="#m4f3ee39f81" y="127.9475"/>
     </g>
    </g>
    <g id="text_19">
     <!-- KI -->
     <g style="fill:#262626;" transform="translate(188.259489 130.0475)scale(0.08 -0.08)">
      <defs>
       <path d="M 597 0 
L 597 4581 
L 1203 4581 
L 1203 0 
L 597 0 
z
" id="ArialMT-49" transform="scale(0.015625)"/>
      </defs>
      <use xlink:href="#ArialMT-4b"/>
      <use x="66.699219" xlink:href="#ArialMT-49"/>
     </g>
    </g>
    <g id="PathCollection_19">
     <defs>
      <path d="M 0 3 
C 0.795609 3 1.55874 2.683901 2.12132 2.12132 
C 2.683901 1.55874 3 0.795609 3 0 
C 3 -0.795609 2.683901 -1.55874 2.12132 -2.12132 
C 1.55874 -2.683901 0.795609 -3 0 -3 
C -0.795609 -3 -1.55874 -2.683901 -2.12132 -2.12132 
C -2.683901 -1.55874 -3 -0.795609 -3 0 
C -3 0.795609 -2.683901 1.55874 -2.12132 2.12132 
C -1.55874 2.683901 -0.795609 3 0 3 
z
" id="m940a9bcd4b" style="stroke:#cc78bc;"/>
     </defs>
     <g>
      <use style="fill:#cc78bc;stroke:#cc78bc;" x="173.859489" xlink:href="#m940a9bcd4b" y="139.26375"/>
     </g>
    </g>
    <g id="text_20">
     <!-- Y634F -->
     <g style="fill:#262626;" transform="translate(188.259489 141.36375)scale(0.08 -0.08)">
      <defs>
       <path d="M 1784 0 
L 1784 1941 
L 19 4581 
L 756 4581 
L 1659 3200 
Q 1909 2813 2125 2425 
Q 2331 2784 2625 3234 
L 3513 4581 
L 4219 4581 
L 2391 1941 
L 2391 0 
L 1784 0 
z
" id="ArialMT-59" transform="scale(0.015625)"/>
       <path d="M 3184 3459 
L 2625 3416 
Q 2550 3747 2413 3897 
Q 2184 4138 1850 4138 
Q 1581 4138 1378 3988 
Q 1113 3794 959 3422 
Q 806 3050 800 2363 
Q 1003 2672 1297 2822 
Q 1591 2972 1913 2972 
Q 2475 2972 2870 2558 
Q 3266 2144 3266 1488 
Q 3266 1056 3080 686 
Q 2894 316 2569 119 
Q 2244 -78 1831 -78 
Q 1128 -78 684 439 
Q 241 956 241 2144 
Q 241 3472 731 4075 
Q 1159 4600 1884 4600 
Q 2425 4600 2770 4297 
Q 3116 3994 3184 3459 
z
M 888 1484 
Q 888 1194 1011 928 
Q 1134 663 1356 523 
Q 1578 384 1822 384 
Q 2178 384 2434 671 
Q 2691 959 2691 1453 
Q 2691 1928 2437 2201 
Q 2184 2475 1800 2475 
Q 1419 2475 1153 2201 
Q 888 1928 888 1484 
z
" id="ArialMT-36" transform="scale(0.015625)"/>
       <path d="M 269 1209 
L 831 1284 
Q 928 806 1161 595 
Q 1394 384 1728 384 
Q 2125 384 2398 659 
Q 2672 934 2672 1341 
Q 2672 1728 2419 1979 
Q 2166 2231 1775 2231 
Q 1616 2231 1378 2169 
L 1441 2663 
Q 1497 2656 1531 2656 
Q 1891 2656 2178 2843 
Q 2466 3031 2466 3422 
Q 2466 3731 2256 3934 
Q 2047 4138 1716 4138 
Q 1388 4138 1169 3931 
Q 950 3725 888 3313 
L 325 3413 
Q 428 3978 793 4289 
Q 1159 4600 1703 4600 
Q 2078 4600 2393 4439 
Q 2709 4278 2876 4000 
Q 3044 3722 3044 3409 
Q 3044 3113 2884 2869 
Q 2725 2625 2413 2481 
Q 2819 2388 3044 2092 
Q 3269 1797 3269 1353 
Q 3269 753 2831 336 
Q 2394 -81 1725 -81 
Q 1122 -81 723 278 
Q 325 638 269 1209 
z
" id="ArialMT-33" transform="scale(0.015625)"/>
       <path d="M 525 0 
L 525 4581 
L 3616 4581 
L 3616 4041 
L 1131 4041 
L 1131 2622 
L 3281 2622 
L 3281 2081 
L 1131 2081 
L 1131 0 
L 525 0 
z
" id="ArialMT-46" transform="scale(0.015625)"/>
      </defs>
      <use xlink:href="#ArialMT-59"/>
      <use x="66.699219" xlink:href="#ArialMT-36"/>
      <use x="122.314453" xlink:href="#ArialMT-33"/>
      <use x="177.929688" xlink:href="#ArialMT-34"/>
      <use x="233.544922" xlink:href="#ArialMT-46"/>
     </g>
    </g>
    <g id="PathCollection_20">
     <defs>
      <path d="M 0 3 
C 0.795609 3 1.55874 2.683901 2.12132 2.12132 
C 2.683901 1.55874 3 0.795609 3 0 
C 3 -0.795609 2.683901 -1.55874 2.12132 -2.12132 
C 1.55874 -2.683901 0.795609 -3 0 -3 
C -0.795609 -3 -1.55874 -2.683901 -2.12132 -2.12132 
C -2.683901 -1.55874 -3 -0.795609 -3 0 
C -3 0.795609 -2.683901 1.55874 -2.12132 2.12132 
C -1.55874 2.683901 -0.795609 3 0 3 
z
" id="ma756ef49ba" style="stroke:#ca9161;"/>
     </defs>
     <g>
      <use style="fill:#ca9161;stroke:#ca9161;" x="173.859489" xlink:href="#ma756ef49ba" y="150.58"/>
     </g>
    </g>
    <g id="text_21">
     <!-- Y643F -->
     <g style="fill:#262626;" transform="translate(188.259489 152.68)scale(0.08 -0.08)">
      <use xlink:href="#ArialMT-59"/>
      <use x="66.699219" xlink:href="#ArialMT-36"/>
      <use x="122.314453" xlink:href="#ArialMT-34"/>
      <use x="177.929688" xlink:href="#ArialMT-33"/>
      <use x="233.544922" xlink:href="#ArialMT-46"/>
     </g>
    </g>
    <g id="PathCollection_21">
     <defs>
      <path d="M 0 3 
C 0.795609 3 1.55874 2.683901 2.12132 2.12132 
C 2.683901 1.55874 3 0.795609 3 0 
C 3 -0.795609 2.683901 -1.55874 2.12132 -2.12132 
C 1.55874 -2.683901 0.795609 -3 0 -3 
C -0.795609 -3 -1.55874 -2.683901 -2.12132 -2.12132 
C -2.683901 -1.55874 -3 -0.795609 -3 0 
C -3 0.795609 -2.683901 1.55874 -2.12132 2.12132 
C -1.55874 2.683901 -0.795609 3 0 3 
z
" id="m385af3db23" style="stroke:#fbafe4;"/>
     </defs>
     <g>
      <use style="fill:#fbafe4;stroke:#fbafe4;" x="173.859489" xlink:href="#m385af3db23" y="161.89625"/>
     </g>
    </g>
    <g id="text_22">
     <!-- Y698F -->
     <g style="fill:#262626;" transform="translate(188.259489 163.99625)scale(0.08 -0.08)">
      <use xlink:href="#ArialMT-59"/>
      <use x="66.699219" xlink:href="#ArialMT-36"/>
      <use x="122.314453" xlink:href="#ArialMT-39"/>
      <use x="177.929688" xlink:href="#ArialMT-38"/>
      <use x="233.544922" xlink:href="#ArialMT-46"/>
     </g>
    </g>
    <g id="PathCollection_22">
     <defs>
      <path d="M 0 3 
C 0.795609 3 1.55874 2.683901 2.12132 2.12132 
C 2.683901 1.55874 3 0.795609 3 0 
C 3 -0.795609 2.683901 -1.55874 2.12132 -2.12132 
C 1.55874 -2.683901 0.795609 -3 0 -3 
C -0.795609 -3 -1.55874 -2.683901 -2.12132 -2.12132 
C -2.683901 -1.55874 -3 -0.795609 -3 0 
C -3 0.795609 -2.683901 1.55874 -2.12132 2.12132 
C -1.55874 2.683901 -0.795609 3 0 3 
z
" id="m6f0dd3eaf8" style="stroke:#949494;"/>
     </defs>
     <g>
      <use style="fill:#949494;stroke:#949494;" x="173.859489" xlink:href="#m6f0dd3eaf8" y="173.2125"/>
     </g>
    </g>
    <g id="text_23">
     <!-- Y726F -->
     <g style="fill:#262626;" transform="translate(188.259489 175.3125)scale(0.08 -0.08)">
      <defs>
       <path d="M 303 3981 
L 303 4522 
L 3269 4522 
L 3269 4084 
Q 2831 3619 2401 2847 
Q 1972 2075 1738 1259 
Q 1569 684 1522 0 
L 944 0 
Q 953 541 1156 1306 
Q 1359 2072 1739 2783 
Q 2119 3494 2547 3981 
L 303 3981 
z
" id="ArialMT-37" transform="scale(0.015625)"/>
      </defs>
      <use xlink:href="#ArialMT-59"/>
      <use x="66.699219" xlink:href="#ArialMT-37"/>
      <use x="122.314453" xlink:href="#ArialMT-32"/>
      <use x="177.929688" xlink:href="#ArialMT-36"/>
      <use x="233.544922" xlink:href="#ArialMT-46"/>
     </g>
    </g>
    <g id="PathCollection_23">
     <defs>
      <path d="M 0 3 
C 0.795609 3 1.55874 2.683901 2.12132 2.12132 
C 2.683901 1.55874 3 0.795609 3 0 
C 3 -0.795609 2.683901 -1.55874 2.12132 -2.12132 
C 1.55874 -2.683901 0.795609 -3 0 -3 
C -0.795609 -3 -1.55874 -2.683901 -2.12132 -2.12132 
C -2.683901 -1.55874 -3 -0.795609 -3 0 
C -3 0.795609 -2.683901 1.55874 -2.12132 2.12132 
C -1.55874 2.683901 -0.795609 3 0 3 
z
" id="mcea92edaf8" style="stroke:#ece133;"/>
     </defs>
     <g>
      <use style="fill:#ece133;stroke:#ece133;" x="173.859489" xlink:href="#mcea92edaf8" y="184.52875"/>
     </g>
    </g>
    <g id="text_24">
     <!-- Y750F -->
     <g style="fill:#262626;" transform="translate(188.259489 186.62875)scale(0.08 -0.08)">
      <use xlink:href="#ArialMT-59"/>
      <use x="66.699219" xlink:href="#ArialMT-37"/>
      <use x="122.314453" xlink:href="#ArialMT-35"/>
      <use x="177.929688" xlink:href="#ArialMT-30"/>
      <use x="233.544922" xlink:href="#ArialMT-46"/>
     </g>
    </g>
    <g id="PathCollection_24">
     <defs>
      <path d="M 0 3 
C 0.795609 3 1.55874 2.683901 2.12132 2.12132 
C 2.683901 1.55874 3 0.795609 3 0 
C 3 -0.795609 2.683901 -1.55874 2.12132 -2.12132 
C 1.55874 -2.683901 0.795609 -3 0 -3 
C -0.795609 -3 -1.55874 -2.683901 -2.12132 -2.12132 
C -2.683901 -1.55874 -3 -0.795609 -3 0 
C -3 0.795609 -2.683901 1.55874 -2.12132 2.12132 
C -1.55874 2.683901 -0.795609 3 0 3 
z
" id="m7c369fb1b6" style="stroke:#56b4e9;"/>
     </defs>
     <g>
      <use style="fill:#56b4e9;stroke:#56b4e9;" x="173.859489" xlink:href="#m7c369fb1b6" y="195.845"/>
     </g>
    </g>
    <g id="text_25">
     <!-- Y821F -->
     <g style="fill:#262626;" transform="translate(188.259489 197.945)scale(0.08 -0.08)">
      <use xlink:href="#ArialMT-59"/>
      <use x="66.699219" xlink:href="#ArialMT-38"/>
      <use x="122.314453" xlink:href="#ArialMT-32"/>
      <use x="177.929688" xlink:href="#ArialMT-31"/>
      <use x="233.544922" xlink:href="#ArialMT-46"/>
     </g>
    </g>
    <g id="text_26">
     <!-- Treatment -->
     <g style="fill:#262626;" transform="translate(188.259489 209.26125)scale(0.08 -0.08)">
      <defs>
       <path d="M 2588 409 
Q 2275 144 1986 34 
Q 1697 -75 1366 -75 
Q 819 -75 525 192 
Q 231 459 231 875 
Q 231 1119 342 1320 
Q 453 1522 633 1644 
Q 813 1766 1038 1828 
Q 1203 1872 1538 1913 
Q 2219 1994 2541 2106 
Q 2544 2222 2544 2253 
Q 2544 2597 2384 2738 
Q 2169 2928 1744 2928 
Q 1347 2928 1158 2789 
Q 969 2650 878 2297 
L 328 2372 
Q 403 2725 575 2942 
Q 747 3159 1072 3276 
Q 1397 3394 1825 3394 
Q 2250 3394 2515 3294 
Q 2781 3194 2906 3042 
Q 3031 2891 3081 2659 
Q 3109 2516 3109 2141 
L 3109 1391 
Q 3109 606 3145 398 
Q 3181 191 3288 0 
L 2700 0 
Q 2613 175 2588 409 
z
M 2541 1666 
Q 2234 1541 1622 1453 
Q 1275 1403 1131 1340 
Q 988 1278 909 1158 
Q 831 1038 831 891 
Q 831 666 1001 516 
Q 1172 366 1500 366 
Q 1825 366 2078 508 
Q 2331 650 2450 897 
Q 2541 1088 2541 1459 
L 2541 1666 
z
" id="ArialMT-61" transform="scale(0.015625)"/>
       <path d="M 1650 503 
L 1731 6 
Q 1494 -44 1306 -44 
Q 1000 -44 831 53 
Q 663 150 594 308 
Q 525 466 525 972 
L 525 2881 
L 113 2881 
L 113 3319 
L 525 3319 
L 525 4141 
L 1084 4478 
L 1084 3319 
L 1650 3319 
L 1650 2881 
L 1084 2881 
L 1084 941 
Q 1084 700 1114 631 
Q 1144 563 1211 522 
Q 1278 481 1403 481 
Q 1497 481 1650 503 
z
" id="ArialMT-74" transform="scale(0.015625)"/>
       <path d="M 422 0 
L 422 3319 
L 925 3319 
L 925 2853 
Q 1081 3097 1340 3245 
Q 1600 3394 1931 3394 
Q 2300 3394 2536 3241 
Q 2772 3088 2869 2813 
Q 3263 3394 3894 3394 
Q 4388 3394 4653 3120 
Q 4919 2847 4919 2278 
L 4919 0 
L 4359 0 
L 4359 2091 
Q 4359 2428 4304 2576 
Q 4250 2725 4106 2815 
Q 3963 2906 3769 2906 
Q 3419 2906 3187 2673 
Q 2956 2441 2956 1928 
L 2956 0 
L 2394 0 
L 2394 2156 
Q 2394 2531 2256 2718 
Q 2119 2906 1806 2906 
Q 1569 2906 1367 2781 
Q 1166 2656 1075 2415 
Q 984 2175 984 1722 
L 984 0 
L 422 0 
z
" id="ArialMT-6d" transform="scale(0.015625)"/>
      </defs>
      <use xlink:href="#ArialMT-54"/>
      <use x="57.333984" xlink:href="#ArialMT-72"/>
      <use x="90.634766" xlink:href="#ArialMT-65"/>
      <use x="146.25" xlink:href="#ArialMT-61"/>
      <use x="201.865234" xlink:href="#ArialMT-74"/>
      <use x="229.648438" xlink:href="#ArialMT-6d"/>
      <use x="312.949219" xlink:href="#ArialMT-65"/>
      <use x="368.564453" xlink:href="#ArialMT-6e"/>
      <use x="424.179688" xlink:href="#ArialMT-74"/>
     </g>
    </g>
    <g id="PathCollection_25">
     <defs>
      <path d="M 0 3 
C 0.795609 3 1.55874 2.683901 2.12132 2.12132 
C 2.683901 1.55874 3 0.795609 3 0 
C 3 -0.795609 2.683901 -1.55874 2.12132 -2.12132 
C 1.55874 -2.683901 0.795609 -3 0 -3 
C -0.795609 -3 -1.55874 -2.683901 -2.12132 -2.12132 
C -2.683901 -1.55874 -3 -0.795609 -3 0 
C -3 0.795609 -2.683901 1.55874 -2.12132 2.12132 
C -1.55874 2.683901 -0.795609 3 0 3 
z
" id="mb16e622341" style="stroke:#333333;"/>
     </defs>
     <g>
      <use style="fill:#333333;stroke:#333333;" x="173.859489" xlink:href="#mb16e622341" y="218.4775"/>
     </g>
    </g>
    <g id="text_27">
     <!-- UT -->
     <g style="fill:#262626;" transform="translate(188.259489 220.5775)scale(0.08 -0.08)">
      <defs>
       <path d="M 3500 4581 
L 4106 4581 
L 4106 1934 
Q 4106 1244 3950 837 
Q 3794 431 3386 176 
Q 2978 -78 2316 -78 
Q 1672 -78 1262 144 
Q 853 366 678 786 
Q 503 1206 503 1934 
L 503 4581 
L 1109 4581 
L 1109 1938 
Q 1109 1341 1220 1058 
Q 1331 775 1601 622 
Q 1872 469 2263 469 
Q 2931 469 3215 772 
Q 3500 1075 3500 1938 
L 3500 4581 
z
" id="ArialMT-55" transform="scale(0.015625)"/>
      </defs>
      <use xlink:href="#ArialMT-55"/>
      <use x="72.216797" xlink:href="#ArialMT-54"/>
     </g>
    </g>
    <g id="PathCollection_26">
     <defs>
      <path d="M -1.5 3 
L 0 1.5 
L 1.5 3 
L 3 1.5 
L 1.5 0 
L 3 -1.5 
L 1.5 -3 
L 0 -1.5 
L -1.5 -3 
L -3 -1.5 
L -1.5 0 
L -3 1.5 
z
" id="m739140529e" style="stroke:#333333;"/>
     </defs>
     <g>
      <use style="fill:#333333;stroke:#333333;" x="173.859489" xlink:href="#m739140529e" y="229.79375"/>
     </g>
    </g>
    <g id="text_28">
     <!-- -E -->
     <g style="fill:#262626;" transform="translate(188.259489 231.89375)scale(0.08 -0.08)">
      <defs>
       <path d="M 203 1375 
L 203 1941 
L 1931 1941 
L 1931 1375 
L 203 1375 
z
" id="ArialMT-2d" transform="scale(0.015625)"/>
       <path d="M 506 0 
L 506 4581 
L 3819 4581 
L 3819 4041 
L 1113 4041 
L 1113 2638 
L 3647 2638 
L 3647 2100 
L 1113 2100 
L 1113 541 
L 3925 541 
L 3925 0 
L 506 0 
z
" id="ArialMT-45" transform="scale(0.015625)"/>
      </defs>
      <use xlink:href="#ArialMT-2d"/>
      <use x="33.300781" xlink:href="#ArialMT-45"/>
     </g>
    </g>
    <g id="PathCollection_27">
     <defs>
      <path d="M -2.12132 -2.12132 
L -2.12132 2.12132 
L 2.12132 2.12132 
L 2.12132 -2.12132 
z
" id="m84bfe980db" style="stroke:#333333;"/>
     </defs>
     <g>
      <use style="fill:#333333;stroke:#333333;" x="173.859489" xlink:href="#m84bfe980db" y="241.11"/>
     </g>
    </g>
    <g id="text_29">
     <!-- A/E -->
     <g style="fill:#262626;" transform="translate(188.259489 243.21)scale(0.08 -0.08)">
      <defs>
       <path d="M 0 -78 
L 1328 4659 
L 1778 4659 
L 453 -78 
L 0 -78 
z
" id="ArialMT-2f" transform="scale(0.015625)"/>
      </defs>
      <use xlink:href="#ArialMT-41"/>
      <use x="66.699219" xlink:href="#ArialMT-2f"/>
      <use x="94.482422" xlink:href="#ArialMT-45"/>
     </g>
    </g>
   </g>
  </g>
  <g id="axes_2">
   <g id="patch_8">
    <path d="M 354.927273 252 
L 583.2 252 
L 583.2 34.56 
L 354.927273 34.56 
z
" style="fill:#ffffff;"/>
   </g>
   <g id="matplotlib.axis_3">
    <g id="xtick_6">
     <g id="line2d_14">
      <path clip-path="url(#p744bc80eb5)" d="M 382.662382 252 
L 382.662382 34.56 
" style="fill:none;stroke:#cccccc;stroke-dasharray:1,1.65;stroke-dashoffset:0;"/>
     </g>
     <g id="text_30">
      <!-- −0.4 -->
      <g style="fill:#262626;" transform="translate(371.805038 269.373594)scale(0.11 -0.11)">
       <use xlink:href="#ArialMT-2212"/>
       <use x="58.398438" xlink:href="#ArialMT-30"/>
       <use x="114.013672" xlink:href="#ArialMT-2e"/>
       <use x="141.796875" xlink:href="#ArialMT-34"/>
      </g>
     </g>
    </g>
    <g id="xtick_7">
     <g id="line2d_15">
      <path clip-path="url(#p744bc80eb5)" d="M 423.587386 252 
L 423.587386 34.56 
" style="fill:none;stroke:#cccccc;stroke-dasharray:1,1.65;stroke-dashoffset:0;"/>
     </g>
     <g id="text_31">
      <!-- −0.2 -->
      <g style="fill:#262626;" transform="translate(412.730042 269.373594)scale(0.11 -0.11)">
       <use xlink:href="#ArialMT-2212"/>
       <use x="58.398438" xlink:href="#ArialMT-30"/>
       <use x="114.013672" xlink:href="#ArialMT-2e"/>
       <use x="141.796875" xlink:href="#ArialMT-32"/>
      </g>
     </g>
    </g>
    <g id="xtick_8">
     <g id="line2d_16">
      <path clip-path="url(#p744bc80eb5)" d="M 464.51239 252 
L 464.51239 34.56 
" style="fill:none;stroke:#cccccc;stroke-dasharray:1,1.65;stroke-dashoffset:0;"/>
     </g>
     <g id="text_32">
      <!-- 0.0 -->
      <g style="fill:#262626;" transform="translate(456.86739 269.373594)scale(0.11 -0.11)">
       <use xlink:href="#ArialMT-30"/>
       <use x="55.615234" xlink:href="#ArialMT-2e"/>
       <use x="83.398438" xlink:href="#ArialMT-30"/>
      </g>
     </g>
    </g>
    <g id="xtick_9">
     <g id="line2d_17">
      <path clip-path="url(#p744bc80eb5)" d="M 505.437394 252 
L 505.437394 34.56 
" style="fill:none;stroke:#cccccc;stroke-dasharray:1,1.65;stroke-dashoffset:0;"/>
     </g>
     <g id="text_33">
      <!-- 0.2 -->
      <g style="fill:#262626;" transform="translate(497.792394 269.373594)scale(0.11 -0.11)">
       <use xlink:href="#ArialMT-30"/>
       <use x="55.615234" xlink:href="#ArialMT-2e"/>
       <use x="83.398438" xlink:href="#ArialMT-32"/>
      </g>
     </g>
    </g>
    <g id="xtick_10">
     <g id="line2d_18">
      <path clip-path="url(#p744bc80eb5)" d="M 546.362398 252 
L 546.362398 34.56 
" style="fill:none;stroke:#cccccc;stroke-dasharray:1,1.65;stroke-dashoffset:0;"/>
     </g>
     <g id="text_34">
      <!-- 0.4 -->
      <g style="fill:#262626;" transform="translate(538.717398 269.373594)scale(0.11 -0.11)">
       <use xlink:href="#ArialMT-30"/>
       <use x="55.615234" xlink:href="#ArialMT-2e"/>
       <use x="83.398438" xlink:href="#ArialMT-34"/>
      </g>
     </g>
    </g>
    <g id="text_35">
     <!-- PC1 (84%) -->
     <g style="fill:#262626;" transform="translate(444.611293 282.839531)scale(0.1 -0.1)">
      <use xlink:href="#ArialMT-50"/>
      <use x="66.699219" xlink:href="#ArialMT-43"/>
      <use x="138.916016" xlink:href="#ArialMT-31"/>
      <use x="194.53125" xlink:href="#ArialMT-20"/>
      <use x="222.314453" xlink:href="#ArialMT-28"/>
      <use x="255.615234" xlink:href="#ArialMT-38"/>
      <use x="311.230469" xlink:href="#ArialMT-34"/>
      <use x="366.845703" xlink:href="#ArialMT-25"/>
      <use x="455.761719" xlink:href="#ArialMT-29"/>
     </g>
    </g>
   </g>
   <g id="matplotlib.axis_4">
    <g id="ytick_7">
     <g id="line2d_19">
      <path clip-path="url(#p744bc80eb5)" d="M 354.927273 224.340479 
L 583.2 224.340479 
" style="fill:none;stroke:#cccccc;stroke-dasharray:1,1.65;stroke-dashoffset:0;"/>
     </g>
     <g id="text_36">
      <!-- −0.6 -->
      <g style="fill:#262626;" transform="translate(323.712585 228.277276)scale(0.11 -0.11)">
       <use xlink:href="#ArialMT-2212"/>
       <use x="58.398438" xlink:href="#ArialMT-30"/>
       <use x="114.013672" xlink:href="#ArialMT-2e"/>
       <use x="141.796875" xlink:href="#ArialMT-36"/>
      </g>
     </g>
    </g>
    <g id="ytick_8">
     <g id="line2d_20">
      <path clip-path="url(#p744bc80eb5)" d="M 354.927273 195.771643 
L 583.2 195.771643 
" style="fill:none;stroke:#cccccc;stroke-dasharray:1,1.65;stroke-dashoffset:0;"/>
     </g>
     <g id="text_37">
      <!-- −0.4 -->
      <g style="fill:#262626;" transform="translate(323.712585 199.70844)scale(0.11 -0.11)">
       <use xlink:href="#ArialMT-2212"/>
       <use x="58.398438" xlink:href="#ArialMT-30"/>
       <use x="114.013672" xlink:href="#ArialMT-2e"/>
       <use x="141.796875" xlink:href="#ArialMT-34"/>
      </g>
     </g>
    </g>
    <g id="ytick_9">
     <g id="line2d_21">
      <path clip-path="url(#p744bc80eb5)" d="M 354.927273 167.202808 
L 583.2 167.202808 
" style="fill:none;stroke:#cccccc;stroke-dasharray:1,1.65;stroke-dashoffset:0;"/>
     </g>
     <g id="text_38">
      <!-- −0.2 -->
      <g style="fill:#262626;" transform="translate(323.712585 171.139605)scale(0.11 -0.11)">
       <use xlink:href="#ArialMT-2212"/>
       <use x="58.398438" xlink:href="#ArialMT-30"/>
       <use x="114.013672" xlink:href="#ArialMT-2e"/>
       <use x="141.796875" xlink:href="#ArialMT-32"/>
      </g>
     </g>
    </g>
    <g id="ytick_10">
     <g id="line2d_22">
      <path clip-path="url(#p744bc80eb5)" d="M 354.927273 138.633973 
L 583.2 138.633973 
" style="fill:none;stroke:#cccccc;stroke-dasharray:1,1.65;stroke-dashoffset:0;"/>
     </g>
     <g id="text_39">
      <!-- 0.0 -->
      <g style="fill:#262626;" transform="translate(330.137273 142.57077)scale(0.11 -0.11)">
       <use xlink:href="#ArialMT-30"/>
       <use x="55.615234" xlink:href="#ArialMT-2e"/>
       <use x="83.398438" xlink:href="#ArialMT-30"/>
      </g>
     </g>
    </g>
    <g id="ytick_11">
     <g id="line2d_23">
      <path clip-path="url(#p744bc80eb5)" d="M 354.927273 110.065138 
L 583.2 110.065138 
" style="fill:none;stroke:#cccccc;stroke-dasharray:1,1.65;stroke-dashoffset:0;"/>
     </g>
     <g id="text_40">
      <!-- 0.2 -->
      <g style="fill:#262626;" transform="translate(330.137273 114.001934)scale(0.11 -0.11)">
       <use xlink:href="#ArialMT-30"/>
       <use x="55.615234" xlink:href="#ArialMT-2e"/>
       <use x="83.398438" xlink:href="#ArialMT-32"/>
      </g>
     </g>
    </g>
    <g id="ytick_12">
     <g id="line2d_24">
      <path clip-path="url(#p744bc80eb5)" d="M 354.927273 81.496302 
L 583.2 81.496302 
" style="fill:none;stroke:#cccccc;stroke-dasharray:1,1.65;stroke-dashoffset:0;"/>
     </g>
     <g id="text_41">
      <!-- 0.4 -->
      <g style="fill:#262626;" transform="translate(330.137273 85.433099)scale(0.11 -0.11)">
       <use xlink:href="#ArialMT-30"/>
       <use x="55.615234" xlink:href="#ArialMT-2e"/>
       <use x="83.398438" xlink:href="#ArialMT-34"/>
      </g>
     </g>
    </g>
    <g id="ytick_13">
     <g id="line2d_25">
      <path clip-path="url(#p744bc80eb5)" d="M 354.927273 52.927467 
L 583.2 52.927467 
" style="fill:none;stroke:#cccccc;stroke-dasharray:1,1.65;stroke-dashoffset:0;"/>
     </g>
     <g id="text_42">
      <!-- 0.6 -->
      <g style="fill:#262626;" transform="translate(330.137273 56.864264)scale(0.11 -0.11)">
       <use xlink:href="#ArialMT-30"/>
       <use x="55.615234" xlink:href="#ArialMT-2e"/>
       <use x="83.398438" xlink:href="#ArialMT-36"/>
      </g>
     </g>
    </g>
    <g id="text_43">
     <!-- PC2 (9%) -->
     <g style="fill:#262626;" transform="translate(317.607898 164.951875)rotate(-90)scale(0.1 -0.1)">
      <use xlink:href="#ArialMT-50"/>
      <use x="66.699219" xlink:href="#ArialMT-43"/>
      <use x="138.916016" xlink:href="#ArialMT-32"/>
      <use x="194.53125" xlink:href="#ArialMT-20"/>
      <use x="222.314453" xlink:href="#ArialMT-28"/>
      <use x="255.615234" xlink:href="#ArialMT-39"/>
      <use x="311.230469" xlink:href="#ArialMT-25"/>
      <use x="400.146484" xlink:href="#ArialMT-29"/>
     </g>
    </g>
   </g>
   <g id="PathCollection_28">
    <defs>
     <path d="M 0 5 
C 1.326016 5 2.597899 4.473168 3.535534 3.535534 
C 4.473168 2.597899 5 1.326016 5 0 
C 5 -1.326016 4.473168 -2.597899 3.535534 -3.535534 
C 2.597899 -4.473168 1.326016 -5 0 -5 
C -1.326016 -5 -2.597899 -4.473168 -3.535534 -3.535534 
C -4.473168 -2.597899 -5 -1.326016 -5 0 
C -5 1.326016 -4.473168 2.597899 -3.535534 3.535534 
C -2.597899 4.473168 -1.326016 5 0 5 
z
" id="mc61507ff94" style="stroke:#1a1a1a;stroke-width:0.5;"/>
    </defs>
    <g clip-path="url(#p744bc80eb5)">
     <use style="fill:#0173b2;stroke:#1a1a1a;stroke-width:0.5;" x="572.823967" xlink:href="#mc61507ff94" y="161.677467"/>
     <use style="fill:#0173b2;stroke:#1a1a1a;stroke-width:0.5;" x="365.303306" xlink:href="#mc61507ff94" y="44.443636"/>
     <use style="fill:#0173b2;stroke:#1a1a1a;stroke-width:0.5;" x="568.686482" xlink:href="#mc61507ff94" y="121.515812"/>
     <use style="fill:#0173b2;stroke:#1a1a1a;stroke-width:0.5;" x="367.325368" xlink:href="#mc61507ff94" y="242.116364"/>
    </g>
   </g>
   <g id="line2d_26">
    <path clip-path="url(#p744bc80eb5)" d="M 354.927273 138.633973 
L 583.2 138.633973 
" style="fill:none;stroke:#d3d3d3;stroke-dasharray:5.55,2.4;stroke-dashoffset:0;stroke-width:1.5;"/>
   </g>
   <g id="line2d_27">
    <path clip-path="url(#p744bc80eb5)" d="M 464.51239 252 
L 464.51239 34.56 
" style="fill:none;stroke:#d3d3d3;stroke-dasharray:5.55,2.4;stroke-dashoffset:0;stroke-width:1.5;"/>
   </g>
   <g id="patch_9">
    <path d="M 354.927273 252 
L 354.927273 34.56 
" style="fill:none;stroke:#cccccc;stroke-linecap:square;stroke-linejoin:miter;stroke-width:0.6;"/>
   </g>
   <g id="patch_10">
    <path d="M 583.2 252 
L 583.2 34.56 
" style="fill:none;stroke:#cccccc;stroke-linecap:square;stroke-linejoin:miter;stroke-width:0.6;"/>
   </g>
   <g id="patch_11">
    <path d="M 354.927273 252 
L 583.2 252 
" style="fill:none;stroke:#cccccc;stroke-linecap:square;stroke-linejoin:miter;stroke-width:0.6;"/>
   </g>
   <g id="patch_12">
    <path d="M 354.927273 34.56 
L 583.2 34.56 
" style="fill:none;stroke:#cccccc;stroke-linecap:square;stroke-linejoin:miter;stroke-width:0.6;"/>
   </g>
   <g id="text_44">
    <!-- Viability -->
    <g style="fill:#262626;" transform="translate(573.028592 161.534623)scale(0.1 -0.1)">
     <defs>
      <path d="M 1803 0 
L 28 4581 
L 684 4581 
L 1875 1253 
Q 2019 853 2116 503 
Q 2222 878 2363 1253 
L 3600 4581 
L 4219 4581 
L 2425 0 
L 1803 0 
z
" id="ArialMT-56" transform="scale(0.015625)"/>
      <path d="M 941 0 
L 419 0 
L 419 4581 
L 981 4581 
L 981 2947 
Q 1338 3394 1891 3394 
Q 2197 3394 2470 3270 
Q 2744 3147 2920 2923 
Q 3097 2700 3197 2384 
Q 3297 2069 3297 1709 
Q 3297 856 2875 390 
Q 2453 -75 1863 -75 
Q 1275 -75 941 416 
L 941 0 
z
M 934 1684 
Q 934 1088 1097 822 
Q 1363 388 1816 388 
Q 2184 388 2453 708 
Q 2722 1028 2722 1663 
Q 2722 2313 2464 2622 
Q 2206 2931 1841 2931 
Q 1472 2931 1203 2611 
Q 934 2291 934 1684 
z
" id="ArialMT-62" transform="scale(0.015625)"/>
      <path d="M 409 0 
L 409 4581 
L 972 4581 
L 972 0 
L 409 0 
z
" id="ArialMT-6c" transform="scale(0.015625)"/>
      <path d="M 397 -1278 
L 334 -750 
Q 519 -800 656 -800 
Q 844 -800 956 -737 
Q 1069 -675 1141 -563 
Q 1194 -478 1313 -144 
Q 1328 -97 1363 -6 
L 103 3319 
L 709 3319 
L 1400 1397 
Q 1534 1031 1641 628 
Q 1738 1016 1872 1384 
L 2581 3319 
L 3144 3319 
L 1881 -56 
Q 1678 -603 1566 -809 
Q 1416 -1088 1222 -1217 
Q 1028 -1347 759 -1347 
Q 597 -1347 397 -1278 
z
" id="ArialMT-79" transform="scale(0.015625)"/>
     </defs>
     <use xlink:href="#ArialMT-56"/>
     <use x="64.949219" xlink:href="#ArialMT-69"/>
     <use x="87.166016" xlink:href="#ArialMT-61"/>
     <use x="142.78125" xlink:href="#ArialMT-62"/>
     <use x="198.396484" xlink:href="#ArialMT-69"/>
     <use x="220.613281" xlink:href="#ArialMT-6c"/>
     <use x="242.830078" xlink:href="#ArialMT-69"/>
     <use x="265.046875" xlink:href="#ArialMT-74"/>
     <use x="292.830078" xlink:href="#ArialMT-79"/>
    </g>
   </g>
   <g id="text_45">
    <!-- Apoptosis -->
    <g style="fill:#262626;" transform="translate(365.507931 44.300792)scale(0.1 -0.1)">
     <defs>
      <path d="M 422 -1272 
L 422 3319 
L 934 3319 
L 934 2888 
Q 1116 3141 1344 3267 
Q 1572 3394 1897 3394 
Q 2322 3394 2647 3175 
Q 2972 2956 3137 2557 
Q 3303 2159 3303 1684 
Q 3303 1175 3120 767 
Q 2938 359 2589 142 
Q 2241 -75 1856 -75 
Q 1575 -75 1351 44 
Q 1128 163 984 344 
L 984 -1272 
L 422 -1272 
z
M 931 1641 
Q 931 1000 1190 694 
Q 1450 388 1819 388 
Q 2194 388 2461 705 
Q 2728 1022 2728 1688 
Q 2728 2322 2467 2637 
Q 2206 2953 1844 2953 
Q 1484 2953 1207 2617 
Q 931 2281 931 1641 
z
" id="ArialMT-70" transform="scale(0.015625)"/>
     </defs>
     <use xlink:href="#ArialMT-41"/>
     <use x="66.699219" xlink:href="#ArialMT-70"/>
     <use x="122.314453" xlink:href="#ArialMT-6f"/>
     <use x="177.929688" xlink:href="#ArialMT-70"/>
     <use x="233.544922" xlink:href="#ArialMT-74"/>
     <use x="261.328125" xlink:href="#ArialMT-6f"/>
     <use x="316.943359" xlink:href="#ArialMT-73"/>
     <use x="366.943359" xlink:href="#ArialMT-69"/>
     <use x="389.160156" xlink:href="#ArialMT-73"/>
    </g>
   </g>
   <g id="text_46">
    <!-- Migration -->
    <g style="fill:#262626;" transform="translate(568.891107 121.372968)scale(0.1 -0.1)">
     <defs>
      <path d="M 475 0 
L 475 4581 
L 1388 4581 
L 2472 1338 
Q 2622 884 2691 659 
Q 2769 909 2934 1394 
L 4031 4581 
L 4847 4581 
L 4847 0 
L 4263 0 
L 4263 3834 
L 2931 0 
L 2384 0 
L 1059 3900 
L 1059 0 
L 475 0 
z
" id="ArialMT-4d" transform="scale(0.015625)"/>
      <path d="M 319 -275 
L 866 -356 
Q 900 -609 1056 -725 
Q 1266 -881 1628 -881 
Q 2019 -881 2231 -725 
Q 2444 -569 2519 -288 
Q 2563 -116 2559 434 
Q 2191 0 1641 0 
Q 956 0 581 494 
Q 206 988 206 1678 
Q 206 2153 378 2554 
Q 550 2956 876 3175 
Q 1203 3394 1644 3394 
Q 2231 3394 2613 2919 
L 2613 3319 
L 3131 3319 
L 3131 450 
Q 3131 -325 2973 -648 
Q 2816 -972 2473 -1159 
Q 2131 -1347 1631 -1347 
Q 1038 -1347 672 -1080 
Q 306 -813 319 -275 
z
M 784 1719 
Q 784 1066 1043 766 
Q 1303 466 1694 466 
Q 2081 466 2343 764 
Q 2606 1063 2606 1700 
Q 2606 2309 2336 2618 
Q 2066 2928 1684 2928 
Q 1309 2928 1046 2623 
Q 784 2319 784 1719 
z
" id="ArialMT-67" transform="scale(0.015625)"/>
     </defs>
     <use xlink:href="#ArialMT-4d"/>
     <use x="83.300781" xlink:href="#ArialMT-69"/>
     <use x="105.517578" xlink:href="#ArialMT-67"/>
     <use x="161.132812" xlink:href="#ArialMT-72"/>
     <use x="194.433594" xlink:href="#ArialMT-61"/>
     <use x="250.048828" xlink:href="#ArialMT-74"/>
     <use x="277.832031" xlink:href="#ArialMT-69"/>
     <use x="300.048828" xlink:href="#ArialMT-6f"/>
     <use x="355.664062" xlink:href="#ArialMT-6e"/>
    </g>
   </g>
   <g id="text_47">
    <!-- Island -->
    <g style="fill:#262626;" transform="translate(367.529993 241.973519)scale(0.1 -0.1)">
     <defs>
      <path d="M 2575 0 
L 2575 419 
Q 2259 -75 1647 -75 
Q 1250 -75 917 144 
Q 584 363 401 755 
Q 219 1147 219 1656 
Q 219 2153 384 2558 
Q 550 2963 881 3178 
Q 1213 3394 1622 3394 
Q 1922 3394 2156 3267 
Q 2391 3141 2538 2938 
L 2538 4581 
L 3097 4581 
L 3097 0 
L 2575 0 
z
M 797 1656 
Q 797 1019 1065 703 
Q 1334 388 1700 388 
Q 2069 388 2326 689 
Q 2584 991 2584 1609 
Q 2584 2291 2321 2609 
Q 2059 2928 1675 2928 
Q 1300 2928 1048 2622 
Q 797 2316 797 1656 
z
" id="ArialMT-64" transform="scale(0.015625)"/>
     </defs>
     <use xlink:href="#ArialMT-49"/>
     <use x="27.783203" xlink:href="#ArialMT-73"/>
     <use x="77.783203" xlink:href="#ArialMT-6c"/>
     <use x="100" xlink:href="#ArialMT-61"/>
     <use x="155.615234" xlink:href="#ArialMT-6e"/>
     <use x="211.230469" xlink:href="#ArialMT-64"/>
    </g>
   </g>
   <g id="text_48">
    <!-- PCA Loadings -->
    <g style="fill:#262626;" transform="translate(431.036761 28.56)scale(0.12 -0.12)">
     <use xlink:href="#ArialMT-50"/>
     <use x="66.699219" xlink:href="#ArialMT-43"/>
     <use x="138.916016" xlink:href="#ArialMT-41"/>
     <use x="200.115234" xlink:href="#ArialMT-20"/>
     <use x="227.898438" xlink:href="#ArialMT-4c"/>
     <use x="283.513672" xlink:href="#ArialMT-6f"/>
     <use x="339.128906" xlink:href="#ArialMT-61"/>
     <use x="394.744141" xlink:href="#ArialMT-64"/>
     <use x="450.359375" xlink:href="#ArialMT-69"/>
     <use x="472.576172" xlink:href="#ArialMT-6e"/>
     <use x="528.191406" xlink:href="#ArialMT-67"/>
     <use x="583.806641" xlink:href="#ArialMT-73"/>
    </g>
   </g>
   <g id="legend_2">
    <g id="patch_13">
     <path d="M 574.4 44.96 
L 577.6 44.96 
Q 579.2 44.96 579.2 43.36 
L 579.2 40.16 
Q 579.2 38.56 577.6 38.56 
L 574.4 38.56 
Q 572.8 38.56 572.8 40.16 
L 572.8 43.36 
Q 572.8 44.96 574.4 44.96 
z
" style="fill:#ffffff;opacity:0.8;stroke:#cccccc;stroke-linejoin:miter;"/>
    </g>
   </g>
  </g>
 </g>
 <defs>
  <clipPath id="p1d5ec5914b">
   <rect height="217.44" width="228.272727" x="81" y="34.56"/>
  </clipPath>
  <clipPath id="p744bc80eb5">
   <rect height="217.44" width="228.272727" x="354.927273" y="34.56"/>
  </clipPath>
 </defs>
</svg>
